G04 #@! TF.FileFunction,Soldermask,Top*
%FSLAX46Y46*%
G04 Gerber Fmt 4.6, Leading zero omitted, Abs format (unit mm)*
G04 Created by KiCad (PCBNEW 4.0.1-stable) date 14-Oct-16 3:18:09 PM*
%MOMM*%
G01*
G04 APERTURE LIST*
%ADD10C,0.100000*%
%ADD11C,0.150000*%
%ADD12R,2.432000X2.432000*%
%ADD13C,2.400000*%
%ADD14R,1.700000X1.700000*%
%ADD15C,1.700000*%
%ADD16R,2.432000X2.127200*%
%ADD17O,2.432000X2.127200*%
%ADD18C,2.398980*%
%ADD19C,2.348180*%
%ADD20C,5.200600*%
%ADD21R,5.200600X5.200600*%
%ADD22R,2.398980X2.398980*%
%ADD23R,2.400000X2.400000*%
%ADD24O,2.000000X2.000000*%
%ADD25C,1.400760*%
%ADD26O,2.099260X3.900120*%
%ADD27R,2.000000X2.000000*%
%ADD28C,2.000000*%
%ADD29C,2.100000*%
%ADD30R,10.400000X4.400000*%
%ADD31C,3.600000*%
G04 APERTURE END LIST*
D10*
D11*
X172466000Y-73787000D02*
X172466000Y-31242000D01*
X246126000Y-75057000D02*
X173990000Y-75057000D01*
X247523000Y-31242000D02*
X247523000Y-73660000D01*
X173990000Y-29972000D02*
X245999000Y-29972000D01*
X173990000Y-29972000D02*
G75*
G03X172466000Y-31242000I-127000J-1397000D01*
G01*
X247523000Y-31242000D02*
G75*
G03X245999000Y-29972000I-1397000J-127000D01*
G01*
X246126000Y-75057000D02*
G75*
G03X247523000Y-73660000I0J1397000D01*
G01*
X172466000Y-73787000D02*
G75*
G03X173990000Y-75057000I1397000J127000D01*
G01*
D12*
X205973680Y-59903360D03*
D13*
X208513680Y-59903360D03*
X211053680Y-59903360D03*
X213593680Y-59903360D03*
X216133680Y-59903360D03*
X218673680Y-59903360D03*
X213593680Y-44663360D03*
X216133680Y-44663360D03*
X205973680Y-44663360D03*
X208513680Y-44663360D03*
X218673680Y-44663360D03*
X211053680Y-44663360D03*
D14*
X187960000Y-64516000D03*
D15*
X190460000Y-64516000D03*
D16*
X174752000Y-38608000D03*
D17*
X174752000Y-41148000D03*
X174752000Y-43688000D03*
X174752000Y-46228000D03*
X174752000Y-48768000D03*
X174752000Y-51308000D03*
X174752000Y-53848000D03*
D18*
X192532000Y-32004000D03*
X182372000Y-32004000D03*
X182372000Y-35306000D03*
X192532000Y-35306000D03*
X203454000Y-64516000D03*
X193294000Y-64516000D03*
X220726000Y-64516000D03*
X230886000Y-64516000D03*
X240284000Y-56134000D03*
X240284000Y-45974000D03*
X180594000Y-53873400D03*
X180594000Y-43713400D03*
X183794400Y-53873400D03*
X183794400Y-43713400D03*
D19*
X236029500Y-43030140D03*
X236029500Y-63030100D03*
D20*
X175564800Y-60198000D03*
D21*
X181660800Y-60198000D03*
D20*
X177850800Y-65278000D03*
D18*
X177535840Y-53987700D03*
D22*
X177535840Y-43827700D03*
D23*
X178816000Y-38354000D03*
D13*
X178816000Y-40894000D03*
D14*
X221488000Y-31242000D03*
D15*
X223988000Y-31242000D03*
D18*
X182372000Y-38356540D03*
D22*
X192532000Y-38356540D03*
D18*
X192532000Y-41145460D03*
D22*
X182372000Y-41145460D03*
D24*
X196342000Y-41402000D03*
X198882000Y-41402000D03*
X201422000Y-41402000D03*
X203962000Y-41402000D03*
X206502000Y-41402000D03*
X209042000Y-41402000D03*
X211582000Y-41402000D03*
X214122000Y-41402000D03*
X216662000Y-41402000D03*
X219202000Y-41402000D03*
X221742000Y-41402000D03*
X224282000Y-41402000D03*
X226822000Y-41402000D03*
X229362000Y-41402000D03*
X229362000Y-33782000D03*
X226822000Y-33782000D03*
X224282000Y-33782000D03*
X221742000Y-33782000D03*
X219202000Y-33782000D03*
X216662000Y-33782000D03*
X214122000Y-33782000D03*
X211582000Y-33782000D03*
X209042000Y-33782000D03*
X206502000Y-33782000D03*
X203962000Y-33782000D03*
X201422000Y-33782000D03*
X198882000Y-33782000D03*
X196342000Y-33782000D03*
D25*
X202692000Y-72898000D03*
X201422000Y-71628000D03*
X203962000Y-71628000D03*
D26*
X225552000Y-69088000D03*
X227843080Y-69088000D03*
X223260920Y-69088000D03*
D18*
X203454000Y-67564000D03*
X193294000Y-67564000D03*
X243586000Y-45974000D03*
X243586000Y-56134000D03*
D27*
X216662000Y-68580000D03*
D28*
X209042000Y-68580000D03*
D29*
X231648000Y-73660000D03*
X231648000Y-68580000D03*
X239268000Y-73660000D03*
X239268000Y-68580000D03*
X181356000Y-73406000D03*
X181356000Y-68326000D03*
X188976000Y-73406000D03*
X188976000Y-68326000D03*
D14*
X207772000Y-31496000D03*
D15*
X210272000Y-31496000D03*
D13*
X233680000Y-37846000D03*
X233680000Y-40386000D03*
D30*
X241300000Y-39116000D03*
D31*
X243840000Y-33782000D03*
X176022000Y-71120000D03*
X176022000Y-33782000D03*
X243840000Y-71120000D03*
M02*
