M48
;DRILL file {KiCad 4.0.1-stable} date 14-Oct-16 3:18:13 PM
;FORMAT={-:-/ absolute / metric / decimal}
FMAT,2
METRIC,TZ
T1C0.600
T2C0.635
T3C0.800
T4C0.800
T5C0.813
T6C0.850
T7C0.914
T8C1.000
T9C1.001
T10C1.016
T11C1.270
T12C1.298
T13C1.400
%
G90
G05
M71
T1
X201.422Y-71.628
X202.692Y-72.898
X203.962Y-71.628
T2
X184.658Y-39.624
X190.881Y-44.577
X195.58Y-55.626
X196.342Y-50.038
X196.723Y-56.515
X197.612Y-57.658
X201.295Y-56.769
X203.2Y-54.61
X203.2Y-56.896
X203.708Y-39.37
X204.724Y-37.084
X209.931Y-50.419
X210.058Y-42.926
X210.058Y-57.912
X214.63Y-57.912
X217.932Y-65.024
X218.186Y-36.068
X219.202Y-38.862
X219.456Y-57.658
X219.71Y-68.707
X220.726Y-36.068
X220.726Y-55.626
X222.758Y-45.212
X223.012Y-43.688
X223.266Y-55.626
X223.266Y-64.516
X224.028Y-53.34
X225.298Y-43.688
X229.362Y-72.39
X232.791Y-42.672
X233.299Y-64.643
X234.696Y-66.802
X235.966Y-46.99
X237.236Y-66.802
T3
X187.96Y-64.516
X196.342Y-33.782
X196.342Y-41.402
X198.882Y-33.782
X198.882Y-41.402
X201.422Y-33.782
X201.422Y-41.402
X203.962Y-33.782
X203.962Y-41.402
X206.502Y-33.782
X206.502Y-41.402
X207.772Y-31.496
X209.042Y-33.782
X209.042Y-41.402
X211.582Y-33.782
X211.582Y-41.402
X214.122Y-33.782
X214.122Y-41.402
X216.662Y-33.782
X216.662Y-41.402
X219.202Y-33.782
X219.202Y-41.402
X221.488Y-31.242
X221.742Y-33.782
X221.742Y-41.402
X224.282Y-33.782
X224.282Y-41.402
X226.822Y-33.782
X226.822Y-41.402
X229.362Y-33.782
X229.362Y-41.402
T4
X190.46Y-64.516
X210.272Y-31.496
X223.988Y-31.242
T5
X181.356Y-68.326
X181.356Y-73.406
X188.976Y-68.326
X188.976Y-73.406
X231.648Y-68.58
X231.648Y-73.66
X239.268Y-68.58
X239.268Y-73.66
T6
X233.68Y-37.846
X233.68Y-40.386
T7
X205.974Y-59.903
T8
X205.974Y-44.663
X208.514Y-44.663
X208.514Y-59.903
X209.042Y-68.58
X211.054Y-44.663
X211.054Y-59.903
X213.594Y-44.663
X213.594Y-59.903
X216.134Y-44.663
X216.134Y-59.903
X216.662Y-68.58
X218.674Y-44.663
X218.674Y-59.903
T9
X177.536Y-43.828
X178.816Y-38.354
X178.816Y-40.894
X180.594Y-43.713
X180.594Y-53.873
X182.372Y-32.004
X182.372Y-35.306
X182.372Y-41.145
X183.794Y-43.713
X183.794Y-53.873
X192.532Y-32.004
X192.532Y-35.306
X192.532Y-38.357
X193.294Y-64.516
X193.294Y-67.564
X203.454Y-64.516
X203.454Y-67.564
X220.726Y-64.516
X230.886Y-64.516
X240.284Y-45.974
X240.284Y-56.134
X243.586Y-45.974
X243.586Y-56.134
T10
X174.752Y-38.608
X174.752Y-41.148
X174.752Y-43.688
X174.752Y-46.228
X174.752Y-48.768
X174.752Y-51.308
X174.752Y-53.848
T11
X177.536Y-53.988
X182.372Y-38.357
X192.532Y-41.145
T12
X236.029Y-43.03
X236.029Y-63.03
T13
X223.261Y-69.088
X225.552Y-69.088
X227.843Y-69.088
T10
X175.565Y-59.436G85X175.565Y-60.96
G05
X177.089Y-65.278G85X178.613Y-65.278
G05
X181.661Y-59.436G85X181.661Y-60.96
G05
T0
M30
