G04 #@! TF.FileFunction,Legend,Top*
%FSLAX46Y46*%
G04 Gerber Fmt 4.6, Leading zero omitted, Abs format (unit mm)*
G04 Created by KiCad (PCBNEW 4.0.1-stable) date 14-Oct-16 3:18:09 PM*
%MOMM*%
G01*
G04 APERTURE LIST*
%ADD10C,0.100000*%
%ADD11C,0.300000*%
%ADD12C,0.375000*%
%ADD13C,0.150000*%
%ADD14C,0.381000*%
%ADD15C,0.317500*%
%ADD16C,0.127000*%
%ADD17C,0.002540*%
%ADD18C,0.254000*%
%ADD19C,0.200000*%
%ADD20C,0.203200*%
%ADD21R,2.432000X2.432000*%
%ADD22C,2.400000*%
%ADD23R,1.700000X1.700000*%
%ADD24C,1.700000*%
%ADD25R,2.432000X2.127200*%
%ADD26O,2.432000X2.127200*%
%ADD27C,2.398980*%
%ADD28C,2.348180*%
%ADD29C,5.200600*%
%ADD30R,5.200600X5.200600*%
%ADD31R,2.398980X2.398980*%
%ADD32R,2.400000X2.400000*%
%ADD33O,2.000000X2.000000*%
%ADD34C,1.400760*%
%ADD35O,2.099260X3.900120*%
%ADD36R,2.000000X2.000000*%
%ADD37C,2.000000*%
%ADD38C,2.100000*%
%ADD39R,10.400000X4.400000*%
%ADD40C,3.600000*%
G04 APERTURE END LIST*
D10*
D11*
X234185829Y-66088343D02*
X234400115Y-66159771D01*
X234757258Y-66159771D01*
X234900115Y-66088343D01*
X234971544Y-66016914D01*
X235042972Y-65874057D01*
X235042972Y-65731200D01*
X234971544Y-65588343D01*
X234900115Y-65516914D01*
X234757258Y-65445486D01*
X234471544Y-65374057D01*
X234328686Y-65302629D01*
X234257258Y-65231200D01*
X234185829Y-65088343D01*
X234185829Y-64945486D01*
X234257258Y-64802629D01*
X234328686Y-64731200D01*
X234471544Y-64659771D01*
X234828686Y-64659771D01*
X235042972Y-64731200D01*
X235685829Y-65374057D02*
X236185829Y-65374057D01*
X236400115Y-66159771D02*
X235685829Y-66159771D01*
X235685829Y-64659771D01*
X236400115Y-64659771D01*
X236828686Y-64659771D02*
X237685829Y-64659771D01*
X237257258Y-66159771D02*
X237257258Y-64659771D01*
X182400914Y-66667771D02*
X182400914Y-65167771D01*
X182900914Y-66239200D01*
X183400914Y-65167771D01*
X183400914Y-66667771D01*
X184400914Y-65167771D02*
X184686628Y-65167771D01*
X184829486Y-65239200D01*
X184972343Y-65382057D01*
X185043771Y-65667771D01*
X185043771Y-66167771D01*
X184972343Y-66453486D01*
X184829486Y-66596343D01*
X184686628Y-66667771D01*
X184400914Y-66667771D01*
X184258057Y-66596343D01*
X184115200Y-66453486D01*
X184043771Y-66167771D01*
X184043771Y-65667771D01*
X184115200Y-65382057D01*
X184258057Y-65239200D01*
X184400914Y-65167771D01*
X185686629Y-66667771D02*
X185686629Y-65167771D01*
X186043772Y-65167771D01*
X186258057Y-65239200D01*
X186400915Y-65382057D01*
X186472343Y-65524914D01*
X186543772Y-65810629D01*
X186543772Y-66024914D01*
X186472343Y-66310629D01*
X186400915Y-66453486D01*
X186258057Y-66596343D01*
X186043772Y-66667771D01*
X185686629Y-66667771D01*
X187186629Y-65882057D02*
X187686629Y-65882057D01*
X187900915Y-66667771D02*
X187186629Y-66667771D01*
X187186629Y-65167771D01*
X187900915Y-65167771D01*
D12*
X219996286Y-72663857D02*
X219496286Y-72663857D01*
X219496286Y-73449571D02*
X219496286Y-71949571D01*
X220210572Y-71949571D01*
X221424857Y-72449571D02*
X221424857Y-73449571D01*
X220782000Y-72449571D02*
X220782000Y-73235286D01*
X220853428Y-73378143D01*
X220996286Y-73449571D01*
X221210571Y-73449571D01*
X221353428Y-73378143D01*
X221424857Y-73306714D01*
X222139143Y-72449571D02*
X222139143Y-73449571D01*
X222139143Y-72592429D02*
X222210571Y-72521000D01*
X222353429Y-72449571D01*
X222567714Y-72449571D01*
X222710571Y-72521000D01*
X222782000Y-72663857D01*
X222782000Y-73449571D01*
X223282000Y-71949571D02*
X224139143Y-71949571D01*
X223710572Y-73449571D02*
X223710572Y-71949571D01*
X224639143Y-73449571D02*
X224639143Y-72449571D01*
X224639143Y-71949571D02*
X224567714Y-72021000D01*
X224639143Y-72092429D01*
X224710571Y-72021000D01*
X224639143Y-71949571D01*
X224639143Y-72092429D01*
X225353429Y-73449571D02*
X225353429Y-72449571D01*
X225353429Y-72592429D02*
X225424857Y-72521000D01*
X225567715Y-72449571D01*
X225782000Y-72449571D01*
X225924857Y-72521000D01*
X225996286Y-72663857D01*
X225996286Y-73449571D01*
X225996286Y-72663857D02*
X226067715Y-72521000D01*
X226210572Y-72449571D01*
X226424857Y-72449571D01*
X226567715Y-72521000D01*
X226639143Y-72663857D01*
X226639143Y-73449571D01*
X227924857Y-73378143D02*
X227782000Y-73449571D01*
X227496286Y-73449571D01*
X227353429Y-73378143D01*
X227282000Y-73235286D01*
X227282000Y-72663857D01*
X227353429Y-72521000D01*
X227496286Y-72449571D01*
X227782000Y-72449571D01*
X227924857Y-72521000D01*
X227996286Y-72663857D01*
X227996286Y-72806714D01*
X227282000Y-72949571D01*
D13*
X172466000Y-73787000D02*
X172466000Y-31242000D01*
X246126000Y-75057000D02*
X173990000Y-75057000D01*
X247523000Y-31242000D02*
X247523000Y-73660000D01*
X173990000Y-29972000D02*
X245999000Y-29972000D01*
X173990000Y-29972000D02*
G75*
G03X172466000Y-31242000I-127000J-1397000D01*
G01*
X247523000Y-31242000D02*
G75*
G03X245999000Y-29972000I-1397000J-127000D01*
G01*
X246126000Y-75057000D02*
G75*
G03X247523000Y-73660000I0J1397000D01*
G01*
X172466000Y-73787000D02*
G75*
G03X173990000Y-75057000I1397000J127000D01*
G01*
X237473680Y-61783360D02*
X187173680Y-61783360D01*
X187173680Y-61783360D02*
X187173680Y-42783360D01*
X187173680Y-42783360D02*
X237473680Y-42783360D01*
X237473680Y-42783360D02*
X237473680Y-61783360D01*
X227953680Y-52283360D02*
X232953680Y-52283360D01*
X226203680Y-58283360D02*
X231453680Y-58283360D01*
X233703680Y-51783360D02*
X235203680Y-46283360D01*
X231953680Y-58283360D02*
X233453680Y-52783360D01*
X227453680Y-51783360D02*
X228953680Y-46283360D01*
X225703680Y-58283360D02*
X227203680Y-52783360D01*
X229453680Y-46283360D02*
X234703680Y-46283360D01*
X191123680Y-52283360D02*
X196123680Y-52283360D01*
X189373680Y-58283360D02*
X194623680Y-58283360D01*
X196873680Y-51783360D02*
X198373680Y-46283360D01*
X195123680Y-58283360D02*
X196623680Y-52783360D01*
X190623680Y-51783360D02*
X192123680Y-46283360D01*
X188873680Y-58283360D02*
X190373680Y-52783360D01*
X192623680Y-46283360D02*
X197873680Y-46283360D01*
X205323680Y-46283360D02*
X210573680Y-46283360D01*
X201573680Y-58283360D02*
X203073680Y-52783360D01*
X203323680Y-51783360D02*
X204823680Y-46283360D01*
X207823680Y-58283360D02*
X209323680Y-52783360D01*
X209573680Y-51783360D02*
X211073680Y-46283360D01*
X202073680Y-58283360D02*
X207323680Y-58283360D01*
X203823680Y-52283360D02*
X208823680Y-52283360D01*
X222208680Y-51783360D02*
X223708680Y-46283360D01*
X217958680Y-46283360D02*
X223208680Y-46283360D01*
X215958680Y-51783360D02*
X217458680Y-46283360D01*
X216458680Y-52283360D02*
X221458680Y-52283360D01*
X214708680Y-58283360D02*
X219958680Y-58283360D01*
X214208680Y-58283360D02*
X215708680Y-52783360D01*
X220458680Y-58283360D02*
X221958680Y-52783360D01*
X234703680Y-57783360D02*
G75*
G03X234703680Y-57783360I-500000J0D01*
G01*
X197873680Y-57783360D02*
G75*
G03X197873680Y-57783360I-500000J0D01*
G01*
X223208680Y-57783360D02*
G75*
G03X223208680Y-57783360I-500000J0D01*
G01*
X210573680Y-57783360D02*
G75*
G03X210573680Y-57783360I-500000J0D01*
G01*
X187710000Y-63266000D02*
X190710000Y-63266000D01*
X190710000Y-65766000D02*
X187710000Y-65766000D01*
X176022000Y-39878000D02*
X176022000Y-55118000D01*
X176022000Y-55118000D02*
X173482000Y-55118000D01*
X173482000Y-55118000D02*
X173482000Y-39878000D01*
X176302000Y-37058000D02*
X176302000Y-38608000D01*
X176022000Y-39878000D02*
X173482000Y-39878000D01*
X173202000Y-38608000D02*
X173202000Y-37058000D01*
X173202000Y-37058000D02*
X176302000Y-37058000D01*
X189992000Y-33274000D02*
X184912000Y-33274000D01*
X184912000Y-33274000D02*
X184912000Y-30734000D01*
X184912000Y-30734000D02*
X189992000Y-30734000D01*
X189992000Y-30734000D02*
X189992000Y-33274000D01*
X189992000Y-32004000D02*
X191262000Y-32004000D01*
X184912000Y-32004000D02*
X183642000Y-32004000D01*
X184912000Y-34036000D02*
X189992000Y-34036000D01*
X189992000Y-34036000D02*
X189992000Y-36576000D01*
X189992000Y-36576000D02*
X184912000Y-36576000D01*
X184912000Y-36576000D02*
X184912000Y-34036000D01*
X184912000Y-35306000D02*
X183642000Y-35306000D01*
X189992000Y-35306000D02*
X191262000Y-35306000D01*
X200914000Y-65786000D02*
X195834000Y-65786000D01*
X195834000Y-65786000D02*
X195834000Y-63246000D01*
X195834000Y-63246000D02*
X200914000Y-63246000D01*
X200914000Y-63246000D02*
X200914000Y-65786000D01*
X200914000Y-64516000D02*
X202184000Y-64516000D01*
X195834000Y-64516000D02*
X194564000Y-64516000D01*
X223266000Y-63246000D02*
X228346000Y-63246000D01*
X228346000Y-63246000D02*
X228346000Y-65786000D01*
X228346000Y-65786000D02*
X223266000Y-65786000D01*
X223266000Y-65786000D02*
X223266000Y-63246000D01*
X223266000Y-64516000D02*
X221996000Y-64516000D01*
X228346000Y-64516000D02*
X229616000Y-64516000D01*
X239014000Y-53594000D02*
X239014000Y-48514000D01*
X239014000Y-48514000D02*
X241554000Y-48514000D01*
X241554000Y-48514000D02*
X241554000Y-53594000D01*
X241554000Y-53594000D02*
X239014000Y-53594000D01*
X240284000Y-53594000D02*
X240284000Y-54864000D01*
X240284000Y-48514000D02*
X240284000Y-47244000D01*
X179324000Y-51333400D02*
X179324000Y-46253400D01*
X179324000Y-46253400D02*
X181864000Y-46253400D01*
X181864000Y-46253400D02*
X181864000Y-51333400D01*
X181864000Y-51333400D02*
X179324000Y-51333400D01*
X180594000Y-51333400D02*
X180594000Y-52603400D01*
X180594000Y-46253400D02*
X180594000Y-44983400D01*
X182524400Y-51333400D02*
X182524400Y-46253400D01*
X182524400Y-46253400D02*
X185064400Y-46253400D01*
X185064400Y-46253400D02*
X185064400Y-51333400D01*
X185064400Y-51333400D02*
X182524400Y-51333400D01*
X183794400Y-51333400D02*
X183794400Y-52603400D01*
X183794400Y-46253400D02*
X183794400Y-44983400D01*
D14*
X168452800Y-55880000D02*
X167690800Y-55880000D01*
X167690800Y-55880000D02*
X167690800Y-64516000D01*
X167690800Y-64516000D02*
X168452800Y-64516000D01*
X171500800Y-55880000D02*
X171500800Y-64516000D01*
X181152800Y-55880000D02*
X181152800Y-64516000D01*
X168452800Y-64516000D02*
X181152800Y-64516000D01*
X168452800Y-55880000D02*
X181152800Y-55880000D01*
D13*
X177535840Y-51447700D02*
X177535840Y-52463700D01*
X177535840Y-46621700D02*
X177535840Y-45351700D01*
X178805840Y-46875700D02*
X176265840Y-46875700D01*
X178805840Y-47129700D02*
X176265840Y-47129700D01*
X178805840Y-47383700D02*
X176265840Y-47383700D01*
X178805840Y-46621700D02*
X176265840Y-46621700D01*
X178805840Y-47637700D02*
X176265840Y-46367700D01*
X178805840Y-46367700D02*
X176265840Y-47637700D01*
X178805840Y-47637700D02*
X176265840Y-47637700D01*
X178805840Y-47002700D02*
X176265840Y-47002700D01*
X176265840Y-46367700D02*
X178805840Y-46367700D01*
X178805840Y-46367700D02*
X178805840Y-51447700D01*
X178805840Y-51447700D02*
X176265840Y-51447700D01*
X176265840Y-51447700D02*
X176265840Y-46367700D01*
X177502000Y-38155000D02*
X177702000Y-38155000D01*
X180096000Y-38155000D02*
X179916000Y-38155000D01*
X179785643Y-41382744D02*
G75*
G03X180102000Y-38155000I-1003643J1727744D01*
G01*
X179915068Y-40707006D02*
G75*
G03X179916000Y-38604000I-1133068J1052006D01*
G01*
X177475274Y-38167780D02*
G75*
G03X177822000Y-41405000I1306726J-1497220D01*
G01*
X177702747Y-38641111D02*
G75*
G03X177722000Y-40689000I1079253J-1013889D01*
G01*
X221238000Y-29992000D02*
X224238000Y-29992000D01*
X224238000Y-32492000D02*
X221238000Y-32492000D01*
X184912000Y-38356540D02*
X183896000Y-38356540D01*
X189738000Y-38356540D02*
X191008000Y-38356540D01*
X189484000Y-39626540D02*
X189484000Y-37086540D01*
X189230000Y-39626540D02*
X189230000Y-37086540D01*
X188976000Y-39626540D02*
X188976000Y-37086540D01*
X189738000Y-39626540D02*
X189738000Y-37086540D01*
X188722000Y-39626540D02*
X189992000Y-37086540D01*
X189992000Y-39626540D02*
X188722000Y-37086540D01*
X188722000Y-39626540D02*
X188722000Y-37086540D01*
X189357000Y-39626540D02*
X189357000Y-37086540D01*
X189992000Y-37086540D02*
X189992000Y-39626540D01*
X189992000Y-39626540D02*
X184912000Y-39626540D01*
X184912000Y-39626540D02*
X184912000Y-37086540D01*
X184912000Y-37086540D02*
X189992000Y-37086540D01*
X189992000Y-41145460D02*
X191008000Y-41145460D01*
X185166000Y-41145460D02*
X183896000Y-41145460D01*
X185420000Y-39875460D02*
X185420000Y-42415460D01*
X185674000Y-39875460D02*
X185674000Y-42415460D01*
X185928000Y-39875460D02*
X185928000Y-42415460D01*
X185166000Y-39875460D02*
X185166000Y-42415460D01*
X186182000Y-39875460D02*
X184912000Y-42415460D01*
X184912000Y-39875460D02*
X186182000Y-42415460D01*
X186182000Y-39875460D02*
X186182000Y-42415460D01*
X185547000Y-39875460D02*
X185547000Y-42415460D01*
X184912000Y-42415460D02*
X184912000Y-39875460D01*
X184912000Y-39875460D02*
X189992000Y-39875460D01*
X189992000Y-39875460D02*
X189992000Y-42415460D01*
X189992000Y-42415460D02*
X184912000Y-42415460D01*
X194047000Y-41267000D02*
X195317000Y-41267000D01*
X194047000Y-33917000D02*
X195317000Y-33917000D01*
X231657000Y-33917000D02*
X230387000Y-33917000D01*
X231657000Y-41267000D02*
X230387000Y-41267000D01*
X194047000Y-41267000D02*
X194047000Y-33917000D01*
X231657000Y-41267000D02*
X231657000Y-33917000D01*
X195317000Y-41267000D02*
X195317000Y-42202000D01*
X204392000Y-69928000D02*
X200992000Y-69928000D01*
X204389056Y-69930944D02*
G75*
G02X202692000Y-74028000I-1697056J-1697056D01*
G01*
X200994944Y-69930944D02*
G75*
G03X202692000Y-74028000I1697056J-1697056D01*
G01*
X229552500Y-70487540D02*
X229151180Y-70487540D01*
X229552500Y-70487540D02*
X229552500Y-67688460D01*
X229552500Y-67688460D02*
X229151180Y-67688460D01*
X221551500Y-70487540D02*
X221952820Y-70487540D01*
X221551500Y-70487540D02*
X221551500Y-67688460D01*
X221551500Y-67688460D02*
X221952820Y-67688460D01*
X200914000Y-68834000D02*
X195834000Y-68834000D01*
X195834000Y-68834000D02*
X195834000Y-66294000D01*
X195834000Y-66294000D02*
X200914000Y-66294000D01*
X200914000Y-66294000D02*
X200914000Y-68834000D01*
X200914000Y-67564000D02*
X202184000Y-67564000D01*
X195834000Y-67564000D02*
X194564000Y-67564000D01*
X244856000Y-48514000D02*
X244856000Y-53594000D01*
X244856000Y-53594000D02*
X242316000Y-53594000D01*
X242316000Y-53594000D02*
X242316000Y-48514000D01*
X242316000Y-48514000D02*
X244856000Y-48514000D01*
X243586000Y-48514000D02*
X243586000Y-47244000D01*
X243586000Y-53594000D02*
X243586000Y-54864000D01*
D15*
X219202000Y-68580000D02*
G75*
G03X219202000Y-68580000I-6350000J0D01*
G01*
D16*
X237998000Y-71120000D02*
G75*
G03X237998000Y-71120000I-2540000J0D01*
G01*
X239268000Y-74930000D02*
X231648000Y-74930000D01*
X231648000Y-74930000D02*
X231648000Y-67310000D01*
X231648000Y-67310000D02*
X239268000Y-67310000D01*
X239268000Y-74930000D02*
X239268000Y-67310000D01*
X187706000Y-70866000D02*
G75*
G03X187706000Y-70866000I-2540000J0D01*
G01*
X188976000Y-74676000D02*
X181356000Y-74676000D01*
X181356000Y-74676000D02*
X181356000Y-67056000D01*
X181356000Y-67056000D02*
X188976000Y-67056000D01*
X188976000Y-74676000D02*
X188976000Y-67056000D01*
D13*
X207522000Y-30246000D02*
X210522000Y-30246000D01*
X210522000Y-32746000D02*
X207522000Y-32746000D01*
X234930000Y-36616000D02*
X234930000Y-41616000D01*
X232430000Y-36616000D02*
X232430000Y-41616000D01*
X232430000Y-41616000D02*
X246430000Y-41616000D01*
X246430000Y-41616000D02*
X246430000Y-36616000D01*
X246430000Y-36616000D02*
X232430000Y-36616000D01*
X243840000Y-36882000D02*
X246240000Y-35582000D01*
X241340000Y-35482000D02*
X243840000Y-36882000D01*
X241340000Y-31982000D02*
X243840000Y-30682000D01*
X241340000Y-35582000D02*
X241340000Y-31982000D01*
X246240000Y-31982000D02*
X243840000Y-30682000D01*
X246240000Y-35582000D02*
X246240000Y-31882000D01*
X246964100Y-33782000D02*
G75*
G03X246964100Y-33782000I-3124100J0D01*
G01*
X246940000Y-33782000D02*
X246940000Y-33982000D01*
X245678478Y-33782000D02*
G75*
G03X245678478Y-33782000I-1838478J0D01*
G01*
X176022000Y-74220000D02*
X178422000Y-72920000D01*
X173522000Y-72820000D02*
X176022000Y-74220000D01*
X173522000Y-69320000D02*
X176022000Y-68020000D01*
X173522000Y-72920000D02*
X173522000Y-69320000D01*
X178422000Y-69320000D02*
X176022000Y-68020000D01*
X178422000Y-72920000D02*
X178422000Y-69220000D01*
X179146100Y-71120000D02*
G75*
G03X179146100Y-71120000I-3124100J0D01*
G01*
X179122000Y-71120000D02*
X179122000Y-71320000D01*
X177860478Y-71120000D02*
G75*
G03X177860478Y-71120000I-1838478J0D01*
G01*
X176022000Y-36882000D02*
X178422000Y-35582000D01*
X173522000Y-35482000D02*
X176022000Y-36882000D01*
X173522000Y-31982000D02*
X176022000Y-30682000D01*
X173522000Y-35582000D02*
X173522000Y-31982000D01*
X178422000Y-31982000D02*
X176022000Y-30682000D01*
X178422000Y-35582000D02*
X178422000Y-31882000D01*
X179146100Y-33782000D02*
G75*
G03X179146100Y-33782000I-3124100J0D01*
G01*
X179122000Y-33782000D02*
X179122000Y-33982000D01*
X177860478Y-33782000D02*
G75*
G03X177860478Y-33782000I-1838478J0D01*
G01*
X243840000Y-74220000D02*
X246240000Y-72920000D01*
X241340000Y-72820000D02*
X243840000Y-74220000D01*
X241340000Y-69320000D02*
X243840000Y-68020000D01*
X241340000Y-72920000D02*
X241340000Y-69320000D01*
X246240000Y-69320000D02*
X243840000Y-68020000D01*
X246240000Y-72920000D02*
X246240000Y-69220000D01*
X246964100Y-71120000D02*
G75*
G03X246964100Y-71120000I-3124100J0D01*
G01*
X246940000Y-71120000D02*
X246940000Y-71320000D01*
X245678478Y-71120000D02*
G75*
G03X245678478Y-71120000I-1838478J0D01*
G01*
D17*
G36*
X199557640Y-71945500D02*
X199550020Y-72273160D01*
X199534780Y-72506840D01*
X199499220Y-72687180D01*
X199443340Y-72852280D01*
X199400160Y-72946260D01*
X199100440Y-73446640D01*
X199016620Y-73535540D01*
X199016620Y-70784720D01*
X198688960Y-70784720D01*
X198495920Y-70787260D01*
X198401940Y-70812660D01*
X198366380Y-70878700D01*
X198361300Y-70967600D01*
X198379080Y-71130160D01*
X198447660Y-71208900D01*
X198597520Y-71226680D01*
X198714360Y-71221600D01*
X198882000Y-71201280D01*
X198963280Y-71147940D01*
X198991220Y-71031100D01*
X198996300Y-70993000D01*
X199016620Y-70784720D01*
X199016620Y-73535540D01*
X199009000Y-73545700D01*
X199009000Y-72976740D01*
X199009000Y-72753220D01*
X199009000Y-72527160D01*
X199009000Y-72397620D01*
X199009000Y-72171560D01*
X199009000Y-71945500D01*
X199009000Y-71815960D01*
X199009000Y-71592440D01*
X199009000Y-71366380D01*
X198686420Y-71366380D01*
X198361300Y-71366380D01*
X198361300Y-71592440D01*
X198361300Y-71815960D01*
X198686420Y-71815960D01*
X199009000Y-71815960D01*
X199009000Y-71945500D01*
X198686420Y-71945500D01*
X198361300Y-71945500D01*
X198361300Y-72171560D01*
X198361300Y-72397620D01*
X198686420Y-72397620D01*
X199009000Y-72397620D01*
X199009000Y-72527160D01*
X198686420Y-72527160D01*
X198361300Y-72527160D01*
X198361300Y-72753220D01*
X198361300Y-72976740D01*
X198686420Y-72976740D01*
X199009000Y-72976740D01*
X199009000Y-73545700D01*
X198727060Y-73845420D01*
X198297800Y-74132440D01*
X198297800Y-73334880D01*
X198297800Y-70721220D01*
X198297800Y-70393560D01*
X198297800Y-70065900D01*
X198089520Y-70086220D01*
X197962520Y-70106540D01*
X197896480Y-70162420D01*
X197868540Y-70286880D01*
X197858380Y-70413880D01*
X197840600Y-70721220D01*
X198069200Y-70721220D01*
X198297800Y-70721220D01*
X198297800Y-73334880D01*
X198292720Y-73154540D01*
X198259700Y-73070720D01*
X198173340Y-73042780D01*
X198071740Y-73042780D01*
X197932040Y-73047860D01*
X197868540Y-73088500D01*
X197848220Y-73202800D01*
X197848220Y-73334880D01*
X197850760Y-73512680D01*
X197883780Y-73593960D01*
X197970140Y-73621900D01*
X198071740Y-73624440D01*
X198211440Y-73616820D01*
X198277480Y-73576180D01*
X198295260Y-73461880D01*
X198297800Y-73334880D01*
X198297800Y-74132440D01*
X198267320Y-74155300D01*
X197866000Y-74333100D01*
X197718680Y-74376280D01*
X197718680Y-73334880D01*
X197718680Y-70721220D01*
X197718680Y-70398640D01*
X197718680Y-70073520D01*
X197492620Y-70073520D01*
X197266560Y-70073520D01*
X197266560Y-70398640D01*
X197266560Y-70721220D01*
X197492620Y-70721220D01*
X197718680Y-70721220D01*
X197718680Y-73334880D01*
X197711060Y-73154540D01*
X197678040Y-73070720D01*
X197591680Y-73042780D01*
X197492620Y-73042780D01*
X197352920Y-73047860D01*
X197286880Y-73088500D01*
X197266560Y-73202800D01*
X197266560Y-73334880D01*
X197271640Y-73512680D01*
X197304660Y-73593960D01*
X197391020Y-73621900D01*
X197492620Y-73624440D01*
X197629780Y-73616820D01*
X197695820Y-73576180D01*
X197716140Y-73461880D01*
X197718680Y-73334880D01*
X197718680Y-74376280D01*
X197629780Y-74406760D01*
X197418960Y-74447400D01*
X197172580Y-74457560D01*
X197121780Y-74455020D01*
X197121780Y-73334880D01*
X197116700Y-73154540D01*
X197104000Y-73113900D01*
X197104000Y-70507860D01*
X197104000Y-70398640D01*
X197098920Y-70218300D01*
X197063360Y-70129400D01*
X196974460Y-70096380D01*
X196895720Y-70086220D01*
X196687440Y-70065900D01*
X196687440Y-70398640D01*
X196687440Y-70728840D01*
X196895720Y-70705980D01*
X197025260Y-70688200D01*
X197083680Y-70634860D01*
X197104000Y-70507860D01*
X197104000Y-73113900D01*
X197088760Y-73070720D01*
X197002400Y-73042780D01*
X196905880Y-73042780D01*
X196768720Y-73047860D01*
X196705220Y-73091040D01*
X196687440Y-73205340D01*
X196687440Y-73334880D01*
X196689980Y-73512680D01*
X196723000Y-73593960D01*
X196809360Y-73621900D01*
X196900800Y-73624440D01*
X197032880Y-73616820D01*
X197096380Y-73571100D01*
X197116700Y-73456800D01*
X197121780Y-73334880D01*
X197121780Y-74455020D01*
X196890640Y-74449940D01*
X196570600Y-74427080D01*
X196509640Y-74414380D01*
X196509640Y-73464420D01*
X196507100Y-73431400D01*
X196507100Y-70154800D01*
X196463920Y-70116700D01*
X196334380Y-70088760D01*
X196319140Y-70088760D01*
X196110860Y-70065900D01*
X196093080Y-70439280D01*
X196072760Y-70812660D01*
X196039740Y-70810120D01*
X196039740Y-70495160D01*
X196039740Y-70236080D01*
X196009260Y-70203060D01*
X195976240Y-70236080D01*
X196009260Y-70266560D01*
X196039740Y-70236080D01*
X196039740Y-70495160D01*
X196009260Y-70462140D01*
X195976240Y-70495160D01*
X196009260Y-70528180D01*
X196039740Y-70495160D01*
X196039740Y-70810120D01*
X195734940Y-70792340D01*
X195536820Y-70784720D01*
X195435220Y-70802500D01*
X195399660Y-70860920D01*
X195394580Y-70967600D01*
X195404740Y-71092060D01*
X195460620Y-71153020D01*
X195597780Y-71178420D01*
X195668900Y-71183500D01*
X195879720Y-71193660D01*
X195991480Y-71178420D01*
X196034660Y-71125080D01*
X196039740Y-71071740D01*
X196067680Y-70990460D01*
X196088000Y-70985380D01*
X196237860Y-70980300D01*
X196288660Y-70899020D01*
X196278500Y-70848220D01*
X196281040Y-70746620D01*
X196369940Y-70721220D01*
X196451220Y-70695820D01*
X196484240Y-70601840D01*
X196491860Y-70462140D01*
X196494400Y-70284340D01*
X196504560Y-70170040D01*
X196507100Y-70154800D01*
X196507100Y-73431400D01*
X196502020Y-73334880D01*
X196481700Y-73154540D01*
X196438520Y-73068180D01*
X196352160Y-73042780D01*
X196291200Y-73042780D01*
X196176900Y-73050400D01*
X196123560Y-73101200D01*
X196105780Y-73228200D01*
X196105780Y-73334880D01*
X196108320Y-73512680D01*
X196141340Y-73593960D01*
X196227700Y-73621900D01*
X196314060Y-73624440D01*
X196441060Y-73616820D01*
X196499480Y-73576180D01*
X196509640Y-73464420D01*
X196509640Y-74414380D01*
X196329300Y-74386440D01*
X196108320Y-74315320D01*
X196047360Y-74284840D01*
X196047360Y-71366380D01*
X195722240Y-71366380D01*
X195529200Y-71368920D01*
X195432680Y-71394320D01*
X195399660Y-71460360D01*
X195394580Y-71551800D01*
X195412360Y-71683880D01*
X195486020Y-71752460D01*
X195638420Y-71780400D01*
X195808600Y-71777860D01*
X195950840Y-71755000D01*
X196011800Y-71676260D01*
X196027040Y-71569580D01*
X196047360Y-71366380D01*
X196047360Y-74284840D01*
X196009260Y-74269600D01*
X196009260Y-72753220D01*
X196009260Y-72171560D01*
X195999100Y-72054720D01*
X195950840Y-71993760D01*
X195826380Y-71968360D01*
X195701920Y-71958200D01*
X195394580Y-71937880D01*
X195394580Y-72171560D01*
X195394580Y-72405240D01*
X195701920Y-72384920D01*
X195887340Y-72367140D01*
X195976240Y-72331580D01*
X196004180Y-72252840D01*
X196009260Y-72171560D01*
X196009260Y-72753220D01*
X195999100Y-72633840D01*
X195950840Y-72575420D01*
X195826380Y-72547480D01*
X195701920Y-72537320D01*
X195394580Y-72519540D01*
X195394580Y-72753220D01*
X195394580Y-72984360D01*
X195701920Y-72966580D01*
X195887340Y-72948800D01*
X195976240Y-72910700D01*
X196004180Y-72831960D01*
X196009260Y-72753220D01*
X196009260Y-74269600D01*
X195897500Y-74218800D01*
X195671440Y-74096880D01*
X195483480Y-73977500D01*
X195369180Y-73886060D01*
X195298060Y-73820020D01*
X195232020Y-73804780D01*
X195138040Y-73845420D01*
X195138040Y-71153020D01*
X195094860Y-70802500D01*
X194950080Y-70469760D01*
X194703700Y-70177660D01*
X194566540Y-70068440D01*
X194416680Y-69982080D01*
X194254120Y-69933820D01*
X194033140Y-69916040D01*
X193873120Y-69913500D01*
X193619120Y-69918580D01*
X193446400Y-69941440D01*
X193311780Y-69999860D01*
X193172080Y-70101460D01*
X193159380Y-70111620D01*
X192940940Y-70332600D01*
X192763140Y-70606920D01*
X192648840Y-70886320D01*
X192620900Y-71071740D01*
X192648840Y-71333360D01*
X192717420Y-71592440D01*
X192816480Y-71795640D01*
X192862200Y-71854060D01*
X192928240Y-71935340D01*
X192902840Y-72001380D01*
X192808860Y-72075040D01*
X192707260Y-72166480D01*
X192539620Y-72331580D01*
X192331340Y-72544940D01*
X192102740Y-72788780D01*
X192074800Y-72819260D01*
X191498220Y-73446640D01*
X191653160Y-73571100D01*
X191808100Y-73698100D01*
X192232280Y-73258680D01*
X192458340Y-73017380D01*
X192686940Y-72773540D01*
X192877440Y-72560180D01*
X192920620Y-72509380D01*
X193184780Y-72202040D01*
X193415920Y-72301100D01*
X193791840Y-72390000D01*
X194175380Y-72354440D01*
X194348100Y-72298560D01*
X194685920Y-72095360D01*
X194929760Y-71821040D01*
X195082160Y-71501000D01*
X195138040Y-71153020D01*
X195138040Y-73845420D01*
X195135500Y-73847960D01*
X194970400Y-73959720D01*
X194955160Y-73974960D01*
X194482720Y-74236580D01*
X193959480Y-74401680D01*
X193415920Y-74467720D01*
X192885060Y-74429620D01*
X192491360Y-74320400D01*
X191978280Y-74061320D01*
X191546480Y-73713340D01*
X191211200Y-73289160D01*
X190974980Y-72804020D01*
X190845440Y-72275700D01*
X190832740Y-71711820D01*
X190875920Y-71417180D01*
X190987680Y-70998080D01*
X191160400Y-70639940D01*
X191414400Y-70299580D01*
X191531240Y-70170040D01*
X191937640Y-69827140D01*
X192407540Y-69575680D01*
X192915540Y-69428360D01*
X193441320Y-69377560D01*
X193962020Y-69430900D01*
X194459860Y-69585840D01*
X194909440Y-69844920D01*
X195011040Y-69926200D01*
X195199000Y-70083680D01*
X195409820Y-69926200D01*
X195874640Y-69641720D01*
X196392800Y-69461380D01*
X196613780Y-69418200D01*
X197175120Y-69382640D01*
X197716140Y-69471540D01*
X198221600Y-69667120D01*
X198673720Y-69966840D01*
X199057260Y-70365620D01*
X199354440Y-70845680D01*
X199356980Y-70848220D01*
X199448420Y-71051420D01*
X199506840Y-71221600D01*
X199539860Y-71401940D01*
X199552560Y-71628000D01*
X199557640Y-71945500D01*
X199557640Y-71945500D01*
X199557640Y-71945500D01*
G37*
X199557640Y-71945500D02*
X199550020Y-72273160D01*
X199534780Y-72506840D01*
X199499220Y-72687180D01*
X199443340Y-72852280D01*
X199400160Y-72946260D01*
X199100440Y-73446640D01*
X199016620Y-73535540D01*
X199016620Y-70784720D01*
X198688960Y-70784720D01*
X198495920Y-70787260D01*
X198401940Y-70812660D01*
X198366380Y-70878700D01*
X198361300Y-70967600D01*
X198379080Y-71130160D01*
X198447660Y-71208900D01*
X198597520Y-71226680D01*
X198714360Y-71221600D01*
X198882000Y-71201280D01*
X198963280Y-71147940D01*
X198991220Y-71031100D01*
X198996300Y-70993000D01*
X199016620Y-70784720D01*
X199016620Y-73535540D01*
X199009000Y-73545700D01*
X199009000Y-72976740D01*
X199009000Y-72753220D01*
X199009000Y-72527160D01*
X199009000Y-72397620D01*
X199009000Y-72171560D01*
X199009000Y-71945500D01*
X199009000Y-71815960D01*
X199009000Y-71592440D01*
X199009000Y-71366380D01*
X198686420Y-71366380D01*
X198361300Y-71366380D01*
X198361300Y-71592440D01*
X198361300Y-71815960D01*
X198686420Y-71815960D01*
X199009000Y-71815960D01*
X199009000Y-71945500D01*
X198686420Y-71945500D01*
X198361300Y-71945500D01*
X198361300Y-72171560D01*
X198361300Y-72397620D01*
X198686420Y-72397620D01*
X199009000Y-72397620D01*
X199009000Y-72527160D01*
X198686420Y-72527160D01*
X198361300Y-72527160D01*
X198361300Y-72753220D01*
X198361300Y-72976740D01*
X198686420Y-72976740D01*
X199009000Y-72976740D01*
X199009000Y-73545700D01*
X198727060Y-73845420D01*
X198297800Y-74132440D01*
X198297800Y-73334880D01*
X198297800Y-70721220D01*
X198297800Y-70393560D01*
X198297800Y-70065900D01*
X198089520Y-70086220D01*
X197962520Y-70106540D01*
X197896480Y-70162420D01*
X197868540Y-70286880D01*
X197858380Y-70413880D01*
X197840600Y-70721220D01*
X198069200Y-70721220D01*
X198297800Y-70721220D01*
X198297800Y-73334880D01*
X198292720Y-73154540D01*
X198259700Y-73070720D01*
X198173340Y-73042780D01*
X198071740Y-73042780D01*
X197932040Y-73047860D01*
X197868540Y-73088500D01*
X197848220Y-73202800D01*
X197848220Y-73334880D01*
X197850760Y-73512680D01*
X197883780Y-73593960D01*
X197970140Y-73621900D01*
X198071740Y-73624440D01*
X198211440Y-73616820D01*
X198277480Y-73576180D01*
X198295260Y-73461880D01*
X198297800Y-73334880D01*
X198297800Y-74132440D01*
X198267320Y-74155300D01*
X197866000Y-74333100D01*
X197718680Y-74376280D01*
X197718680Y-73334880D01*
X197718680Y-70721220D01*
X197718680Y-70398640D01*
X197718680Y-70073520D01*
X197492620Y-70073520D01*
X197266560Y-70073520D01*
X197266560Y-70398640D01*
X197266560Y-70721220D01*
X197492620Y-70721220D01*
X197718680Y-70721220D01*
X197718680Y-73334880D01*
X197711060Y-73154540D01*
X197678040Y-73070720D01*
X197591680Y-73042780D01*
X197492620Y-73042780D01*
X197352920Y-73047860D01*
X197286880Y-73088500D01*
X197266560Y-73202800D01*
X197266560Y-73334880D01*
X197271640Y-73512680D01*
X197304660Y-73593960D01*
X197391020Y-73621900D01*
X197492620Y-73624440D01*
X197629780Y-73616820D01*
X197695820Y-73576180D01*
X197716140Y-73461880D01*
X197718680Y-73334880D01*
X197718680Y-74376280D01*
X197629780Y-74406760D01*
X197418960Y-74447400D01*
X197172580Y-74457560D01*
X197121780Y-74455020D01*
X197121780Y-73334880D01*
X197116700Y-73154540D01*
X197104000Y-73113900D01*
X197104000Y-70507860D01*
X197104000Y-70398640D01*
X197098920Y-70218300D01*
X197063360Y-70129400D01*
X196974460Y-70096380D01*
X196895720Y-70086220D01*
X196687440Y-70065900D01*
X196687440Y-70398640D01*
X196687440Y-70728840D01*
X196895720Y-70705980D01*
X197025260Y-70688200D01*
X197083680Y-70634860D01*
X197104000Y-70507860D01*
X197104000Y-73113900D01*
X197088760Y-73070720D01*
X197002400Y-73042780D01*
X196905880Y-73042780D01*
X196768720Y-73047860D01*
X196705220Y-73091040D01*
X196687440Y-73205340D01*
X196687440Y-73334880D01*
X196689980Y-73512680D01*
X196723000Y-73593960D01*
X196809360Y-73621900D01*
X196900800Y-73624440D01*
X197032880Y-73616820D01*
X197096380Y-73571100D01*
X197116700Y-73456800D01*
X197121780Y-73334880D01*
X197121780Y-74455020D01*
X196890640Y-74449940D01*
X196570600Y-74427080D01*
X196509640Y-74414380D01*
X196509640Y-73464420D01*
X196507100Y-73431400D01*
X196507100Y-70154800D01*
X196463920Y-70116700D01*
X196334380Y-70088760D01*
X196319140Y-70088760D01*
X196110860Y-70065900D01*
X196093080Y-70439280D01*
X196072760Y-70812660D01*
X196039740Y-70810120D01*
X196039740Y-70495160D01*
X196039740Y-70236080D01*
X196009260Y-70203060D01*
X195976240Y-70236080D01*
X196009260Y-70266560D01*
X196039740Y-70236080D01*
X196039740Y-70495160D01*
X196009260Y-70462140D01*
X195976240Y-70495160D01*
X196009260Y-70528180D01*
X196039740Y-70495160D01*
X196039740Y-70810120D01*
X195734940Y-70792340D01*
X195536820Y-70784720D01*
X195435220Y-70802500D01*
X195399660Y-70860920D01*
X195394580Y-70967600D01*
X195404740Y-71092060D01*
X195460620Y-71153020D01*
X195597780Y-71178420D01*
X195668900Y-71183500D01*
X195879720Y-71193660D01*
X195991480Y-71178420D01*
X196034660Y-71125080D01*
X196039740Y-71071740D01*
X196067680Y-70990460D01*
X196088000Y-70985380D01*
X196237860Y-70980300D01*
X196288660Y-70899020D01*
X196278500Y-70848220D01*
X196281040Y-70746620D01*
X196369940Y-70721220D01*
X196451220Y-70695820D01*
X196484240Y-70601840D01*
X196491860Y-70462140D01*
X196494400Y-70284340D01*
X196504560Y-70170040D01*
X196507100Y-70154800D01*
X196507100Y-73431400D01*
X196502020Y-73334880D01*
X196481700Y-73154540D01*
X196438520Y-73068180D01*
X196352160Y-73042780D01*
X196291200Y-73042780D01*
X196176900Y-73050400D01*
X196123560Y-73101200D01*
X196105780Y-73228200D01*
X196105780Y-73334880D01*
X196108320Y-73512680D01*
X196141340Y-73593960D01*
X196227700Y-73621900D01*
X196314060Y-73624440D01*
X196441060Y-73616820D01*
X196499480Y-73576180D01*
X196509640Y-73464420D01*
X196509640Y-74414380D01*
X196329300Y-74386440D01*
X196108320Y-74315320D01*
X196047360Y-74284840D01*
X196047360Y-71366380D01*
X195722240Y-71366380D01*
X195529200Y-71368920D01*
X195432680Y-71394320D01*
X195399660Y-71460360D01*
X195394580Y-71551800D01*
X195412360Y-71683880D01*
X195486020Y-71752460D01*
X195638420Y-71780400D01*
X195808600Y-71777860D01*
X195950840Y-71755000D01*
X196011800Y-71676260D01*
X196027040Y-71569580D01*
X196047360Y-71366380D01*
X196047360Y-74284840D01*
X196009260Y-74269600D01*
X196009260Y-72753220D01*
X196009260Y-72171560D01*
X195999100Y-72054720D01*
X195950840Y-71993760D01*
X195826380Y-71968360D01*
X195701920Y-71958200D01*
X195394580Y-71937880D01*
X195394580Y-72171560D01*
X195394580Y-72405240D01*
X195701920Y-72384920D01*
X195887340Y-72367140D01*
X195976240Y-72331580D01*
X196004180Y-72252840D01*
X196009260Y-72171560D01*
X196009260Y-72753220D01*
X195999100Y-72633840D01*
X195950840Y-72575420D01*
X195826380Y-72547480D01*
X195701920Y-72537320D01*
X195394580Y-72519540D01*
X195394580Y-72753220D01*
X195394580Y-72984360D01*
X195701920Y-72966580D01*
X195887340Y-72948800D01*
X195976240Y-72910700D01*
X196004180Y-72831960D01*
X196009260Y-72753220D01*
X196009260Y-74269600D01*
X195897500Y-74218800D01*
X195671440Y-74096880D01*
X195483480Y-73977500D01*
X195369180Y-73886060D01*
X195298060Y-73820020D01*
X195232020Y-73804780D01*
X195138040Y-73845420D01*
X195138040Y-71153020D01*
X195094860Y-70802500D01*
X194950080Y-70469760D01*
X194703700Y-70177660D01*
X194566540Y-70068440D01*
X194416680Y-69982080D01*
X194254120Y-69933820D01*
X194033140Y-69916040D01*
X193873120Y-69913500D01*
X193619120Y-69918580D01*
X193446400Y-69941440D01*
X193311780Y-69999860D01*
X193172080Y-70101460D01*
X193159380Y-70111620D01*
X192940940Y-70332600D01*
X192763140Y-70606920D01*
X192648840Y-70886320D01*
X192620900Y-71071740D01*
X192648840Y-71333360D01*
X192717420Y-71592440D01*
X192816480Y-71795640D01*
X192862200Y-71854060D01*
X192928240Y-71935340D01*
X192902840Y-72001380D01*
X192808860Y-72075040D01*
X192707260Y-72166480D01*
X192539620Y-72331580D01*
X192331340Y-72544940D01*
X192102740Y-72788780D01*
X192074800Y-72819260D01*
X191498220Y-73446640D01*
X191653160Y-73571100D01*
X191808100Y-73698100D01*
X192232280Y-73258680D01*
X192458340Y-73017380D01*
X192686940Y-72773540D01*
X192877440Y-72560180D01*
X192920620Y-72509380D01*
X193184780Y-72202040D01*
X193415920Y-72301100D01*
X193791840Y-72390000D01*
X194175380Y-72354440D01*
X194348100Y-72298560D01*
X194685920Y-72095360D01*
X194929760Y-71821040D01*
X195082160Y-71501000D01*
X195138040Y-71153020D01*
X195138040Y-73845420D01*
X195135500Y-73847960D01*
X194970400Y-73959720D01*
X194955160Y-73974960D01*
X194482720Y-74236580D01*
X193959480Y-74401680D01*
X193415920Y-74467720D01*
X192885060Y-74429620D01*
X192491360Y-74320400D01*
X191978280Y-74061320D01*
X191546480Y-73713340D01*
X191211200Y-73289160D01*
X190974980Y-72804020D01*
X190845440Y-72275700D01*
X190832740Y-71711820D01*
X190875920Y-71417180D01*
X190987680Y-70998080D01*
X191160400Y-70639940D01*
X191414400Y-70299580D01*
X191531240Y-70170040D01*
X191937640Y-69827140D01*
X192407540Y-69575680D01*
X192915540Y-69428360D01*
X193441320Y-69377560D01*
X193962020Y-69430900D01*
X194459860Y-69585840D01*
X194909440Y-69844920D01*
X195011040Y-69926200D01*
X195199000Y-70083680D01*
X195409820Y-69926200D01*
X195874640Y-69641720D01*
X196392800Y-69461380D01*
X196613780Y-69418200D01*
X197175120Y-69382640D01*
X197716140Y-69471540D01*
X198221600Y-69667120D01*
X198673720Y-69966840D01*
X199057260Y-70365620D01*
X199354440Y-70845680D01*
X199356980Y-70848220D01*
X199448420Y-71051420D01*
X199506840Y-71221600D01*
X199539860Y-71401940D01*
X199552560Y-71628000D01*
X199557640Y-71945500D01*
X199557640Y-71945500D01*
G36*
X194736720Y-71005700D02*
X194718940Y-71300340D01*
X194612260Y-71577200D01*
X194429380Y-71805800D01*
X194185540Y-71958200D01*
X193911220Y-72009000D01*
X193743580Y-71981060D01*
X193550540Y-71909940D01*
X193530220Y-71897240D01*
X193266060Y-71699120D01*
X193100960Y-71447660D01*
X193034920Y-71163180D01*
X193067940Y-70873620D01*
X193205100Y-70606920D01*
X193441320Y-70388480D01*
X193469260Y-70370700D01*
X193743580Y-70276720D01*
X194038220Y-70286880D01*
X194320160Y-70388480D01*
X194551300Y-70571360D01*
X194650360Y-70713600D01*
X194736720Y-71005700D01*
X194736720Y-71005700D01*
X194736720Y-71005700D01*
G37*
X194736720Y-71005700D02*
X194718940Y-71300340D01*
X194612260Y-71577200D01*
X194429380Y-71805800D01*
X194185540Y-71958200D01*
X193911220Y-72009000D01*
X193743580Y-71981060D01*
X193550540Y-71909940D01*
X193530220Y-71897240D01*
X193266060Y-71699120D01*
X193100960Y-71447660D01*
X193034920Y-71163180D01*
X193067940Y-70873620D01*
X193205100Y-70606920D01*
X193441320Y-70388480D01*
X193469260Y-70370700D01*
X193743580Y-70276720D01*
X194038220Y-70286880D01*
X194320160Y-70388480D01*
X194551300Y-70571360D01*
X194650360Y-70713600D01*
X194736720Y-71005700D01*
X194736720Y-71005700D01*
D13*
X190333334Y-67032143D02*
X190285715Y-67079762D01*
X190142858Y-67127381D01*
X190047620Y-67127381D01*
X189904762Y-67079762D01*
X189809524Y-66984524D01*
X189761905Y-66889286D01*
X189714286Y-66698810D01*
X189714286Y-66555952D01*
X189761905Y-66365476D01*
X189809524Y-66270238D01*
X189904762Y-66175000D01*
X190047620Y-66127381D01*
X190142858Y-66127381D01*
X190285715Y-66175000D01*
X190333334Y-66222619D01*
X191285715Y-67127381D02*
X190714286Y-67127381D01*
X191000000Y-67127381D02*
X191000000Y-66127381D01*
X190904762Y-66270238D01*
X190809524Y-66365476D01*
X190714286Y-66413095D01*
X176310065Y-52908461D02*
X176310065Y-51908461D01*
X176691018Y-51908461D01*
X176786256Y-51956080D01*
X176833875Y-52003699D01*
X176881494Y-52098937D01*
X176881494Y-52241794D01*
X176833875Y-52337032D01*
X176786256Y-52384651D01*
X176691018Y-52432270D01*
X176310065Y-52432270D01*
X177833875Y-52908461D02*
X177262446Y-52908461D01*
X177548160Y-52908461D02*
X177548160Y-51908461D01*
X177452922Y-52051318D01*
X177357684Y-52146556D01*
X177262446Y-52194175D01*
X187539334Y-32456381D02*
X187206000Y-31980190D01*
X186967905Y-32456381D02*
X186967905Y-31456381D01*
X187348858Y-31456381D01*
X187444096Y-31504000D01*
X187491715Y-31551619D01*
X187539334Y-31646857D01*
X187539334Y-31789714D01*
X187491715Y-31884952D01*
X187444096Y-31932571D01*
X187348858Y-31980190D01*
X186967905Y-31980190D01*
X188491715Y-32456381D02*
X187920286Y-32456381D01*
X188206000Y-32456381D02*
X188206000Y-31456381D01*
X188110762Y-31599238D01*
X188015524Y-31694476D01*
X187920286Y-31742095D01*
X187412334Y-35885381D02*
X187079000Y-35409190D01*
X186840905Y-35885381D02*
X186840905Y-34885381D01*
X187221858Y-34885381D01*
X187317096Y-34933000D01*
X187364715Y-34980619D01*
X187412334Y-35075857D01*
X187412334Y-35218714D01*
X187364715Y-35313952D01*
X187317096Y-35361571D01*
X187221858Y-35409190D01*
X186840905Y-35409190D01*
X187793286Y-34980619D02*
X187840905Y-34933000D01*
X187936143Y-34885381D01*
X188174239Y-34885381D01*
X188269477Y-34933000D01*
X188317096Y-34980619D01*
X188364715Y-35075857D01*
X188364715Y-35171095D01*
X188317096Y-35313952D01*
X187745667Y-35885381D01*
X188364715Y-35885381D01*
X198207334Y-65222381D02*
X197874000Y-64746190D01*
X197635905Y-65222381D02*
X197635905Y-64222381D01*
X198016858Y-64222381D01*
X198112096Y-64270000D01*
X198159715Y-64317619D01*
X198207334Y-64412857D01*
X198207334Y-64555714D01*
X198159715Y-64650952D01*
X198112096Y-64698571D01*
X198016858Y-64746190D01*
X197635905Y-64746190D01*
X198540667Y-64222381D02*
X199159715Y-64222381D01*
X198826381Y-64603333D01*
X198969239Y-64603333D01*
X199064477Y-64650952D01*
X199112096Y-64698571D01*
X199159715Y-64793810D01*
X199159715Y-65031905D01*
X199112096Y-65127143D01*
X199064477Y-65174762D01*
X198969239Y-65222381D01*
X198683524Y-65222381D01*
X198588286Y-65174762D01*
X198540667Y-65127143D01*
X225893334Y-64968381D02*
X225560000Y-64492190D01*
X225321905Y-64968381D02*
X225321905Y-63968381D01*
X225702858Y-63968381D01*
X225798096Y-64016000D01*
X225845715Y-64063619D01*
X225893334Y-64158857D01*
X225893334Y-64301714D01*
X225845715Y-64396952D01*
X225798096Y-64444571D01*
X225702858Y-64492190D01*
X225321905Y-64492190D01*
X226750477Y-64301714D02*
X226750477Y-64968381D01*
X226512381Y-63920762D02*
X226274286Y-64635048D01*
X226893334Y-64635048D01*
X240117334Y-51379381D02*
X239784000Y-50903190D01*
X239545905Y-51379381D02*
X239545905Y-50379381D01*
X239926858Y-50379381D01*
X240022096Y-50427000D01*
X240069715Y-50474619D01*
X240117334Y-50569857D01*
X240117334Y-50712714D01*
X240069715Y-50807952D01*
X240022096Y-50855571D01*
X239926858Y-50903190D01*
X239545905Y-50903190D01*
X241022096Y-50379381D02*
X240545905Y-50379381D01*
X240498286Y-50855571D01*
X240545905Y-50807952D01*
X240641143Y-50760333D01*
X240879239Y-50760333D01*
X240974477Y-50807952D01*
X241022096Y-50855571D01*
X241069715Y-50950810D01*
X241069715Y-51188905D01*
X241022096Y-51284143D01*
X240974477Y-51331762D01*
X240879239Y-51379381D01*
X240641143Y-51379381D01*
X240545905Y-51331762D01*
X240498286Y-51284143D01*
X180427334Y-49220381D02*
X180094000Y-48744190D01*
X179855905Y-49220381D02*
X179855905Y-48220381D01*
X180236858Y-48220381D01*
X180332096Y-48268000D01*
X180379715Y-48315619D01*
X180427334Y-48410857D01*
X180427334Y-48553714D01*
X180379715Y-48648952D01*
X180332096Y-48696571D01*
X180236858Y-48744190D01*
X179855905Y-48744190D01*
X181284477Y-48220381D02*
X181094000Y-48220381D01*
X180998762Y-48268000D01*
X180951143Y-48315619D01*
X180855905Y-48458476D01*
X180808286Y-48648952D01*
X180808286Y-49029905D01*
X180855905Y-49125143D01*
X180903524Y-49172762D01*
X180998762Y-49220381D01*
X181189239Y-49220381D01*
X181284477Y-49172762D01*
X181332096Y-49125143D01*
X181379715Y-49029905D01*
X181379715Y-48791810D01*
X181332096Y-48696571D01*
X181284477Y-48648952D01*
X181189239Y-48601333D01*
X180998762Y-48601333D01*
X180903524Y-48648952D01*
X180855905Y-48696571D01*
X180808286Y-48791810D01*
X183602334Y-49347381D02*
X183269000Y-48871190D01*
X183030905Y-49347381D02*
X183030905Y-48347381D01*
X183411858Y-48347381D01*
X183507096Y-48395000D01*
X183554715Y-48442619D01*
X183602334Y-48537857D01*
X183602334Y-48680714D01*
X183554715Y-48775952D01*
X183507096Y-48823571D01*
X183411858Y-48871190D01*
X183030905Y-48871190D01*
X183935667Y-48347381D02*
X184602334Y-48347381D01*
X184173762Y-49347381D01*
D18*
X175931286Y-57258857D02*
X175882905Y-57307238D01*
X175737762Y-57355619D01*
X175641000Y-57355619D01*
X175495858Y-57307238D01*
X175399096Y-57210476D01*
X175350715Y-57113714D01*
X175302334Y-56920190D01*
X175302334Y-56775048D01*
X175350715Y-56581524D01*
X175399096Y-56484762D01*
X175495858Y-56388000D01*
X175641000Y-56339619D01*
X175737762Y-56339619D01*
X175882905Y-56388000D01*
X175931286Y-56436381D01*
X176560239Y-56339619D02*
X176753762Y-56339619D01*
X176850524Y-56388000D01*
X176947286Y-56484762D01*
X176995667Y-56678286D01*
X176995667Y-57016952D01*
X176947286Y-57210476D01*
X176850524Y-57307238D01*
X176753762Y-57355619D01*
X176560239Y-57355619D01*
X176463477Y-57307238D01*
X176366715Y-57210476D01*
X176318334Y-57016952D01*
X176318334Y-56678286D01*
X176366715Y-56484762D01*
X176463477Y-56388000D01*
X176560239Y-56339619D01*
X177431096Y-57355619D02*
X177431096Y-56339619D01*
X178011667Y-57355619D01*
X178011667Y-56339619D01*
X179027667Y-57355619D02*
X178447096Y-57355619D01*
X178737382Y-57355619D02*
X178737382Y-56339619D01*
X178640620Y-56484762D01*
X178543858Y-56581524D01*
X178447096Y-56629905D01*
D13*
X176807905Y-49982381D02*
X176807905Y-48982381D01*
X177046000Y-48982381D01*
X177188858Y-49030000D01*
X177284096Y-49125238D01*
X177331715Y-49220476D01*
X177379334Y-49410952D01*
X177379334Y-49553810D01*
X177331715Y-49744286D01*
X177284096Y-49839524D01*
X177188858Y-49934762D01*
X177046000Y-49982381D01*
X176807905Y-49982381D01*
X178331715Y-49982381D02*
X177760286Y-49982381D01*
X178046000Y-49982381D02*
X178046000Y-48982381D01*
X177950762Y-49125238D01*
X177855524Y-49220476D01*
X177760286Y-49268095D01*
X179093905Y-36774381D02*
X179093905Y-35774381D01*
X179332000Y-35774381D01*
X179474858Y-35822000D01*
X179570096Y-35917238D01*
X179617715Y-36012476D01*
X179665334Y-36202952D01*
X179665334Y-36345810D01*
X179617715Y-36536286D01*
X179570096Y-36631524D01*
X179474858Y-36726762D01*
X179332000Y-36774381D01*
X179093905Y-36774381D01*
X180046286Y-35869619D02*
X180093905Y-35822000D01*
X180189143Y-35774381D01*
X180427239Y-35774381D01*
X180522477Y-35822000D01*
X180570096Y-35869619D01*
X180617715Y-35964857D01*
X180617715Y-36060095D01*
X180570096Y-36202952D01*
X179998667Y-36774381D01*
X180617715Y-36774381D01*
X180914301Y-37914865D02*
X179914301Y-37914865D01*
X180914301Y-37343436D02*
X180342872Y-37772008D01*
X179914301Y-37343436D02*
X180485730Y-37914865D01*
X218844905Y-31948381D02*
X218844905Y-30948381D01*
X219083000Y-30948381D01*
X219225858Y-30996000D01*
X219321096Y-31091238D01*
X219368715Y-31186476D01*
X219416334Y-31376952D01*
X219416334Y-31519810D01*
X219368715Y-31710286D01*
X219321096Y-31805524D01*
X219225858Y-31900762D01*
X219083000Y-31948381D01*
X218844905Y-31948381D01*
X219749667Y-30948381D02*
X220368715Y-30948381D01*
X220035381Y-31329333D01*
X220178239Y-31329333D01*
X220273477Y-31376952D01*
X220321096Y-31424571D01*
X220368715Y-31519810D01*
X220368715Y-31757905D01*
X220321096Y-31853143D01*
X220273477Y-31900762D01*
X220178239Y-31948381D01*
X219892524Y-31948381D01*
X219797286Y-31900762D01*
X219749667Y-31853143D01*
X186205905Y-39060381D02*
X186205905Y-38060381D01*
X186444000Y-38060381D01*
X186586858Y-38108000D01*
X186682096Y-38203238D01*
X186729715Y-38298476D01*
X186777334Y-38488952D01*
X186777334Y-38631810D01*
X186729715Y-38822286D01*
X186682096Y-38917524D01*
X186586858Y-39012762D01*
X186444000Y-39060381D01*
X186205905Y-39060381D01*
X187634477Y-38393714D02*
X187634477Y-39060381D01*
X187396381Y-38012762D02*
X187158286Y-38727048D01*
X187777334Y-38727048D01*
X187221905Y-41600381D02*
X187221905Y-40600381D01*
X187460000Y-40600381D01*
X187602858Y-40648000D01*
X187698096Y-40743238D01*
X187745715Y-40838476D01*
X187793334Y-41028952D01*
X187793334Y-41171810D01*
X187745715Y-41362286D01*
X187698096Y-41457524D01*
X187602858Y-41552762D01*
X187460000Y-41600381D01*
X187221905Y-41600381D01*
X188698096Y-40600381D02*
X188221905Y-40600381D01*
X188174286Y-41076571D01*
X188221905Y-41028952D01*
X188317143Y-40981333D01*
X188555239Y-40981333D01*
X188650477Y-41028952D01*
X188698096Y-41076571D01*
X188745715Y-41171810D01*
X188745715Y-41409905D01*
X188698096Y-41505143D01*
X188650477Y-41552762D01*
X188555239Y-41600381D01*
X188317143Y-41600381D01*
X188221905Y-41552762D01*
X188174286Y-41505143D01*
X207557810Y-37409381D02*
X207557810Y-36409381D01*
X208605429Y-37314143D02*
X208557810Y-37361762D01*
X208414953Y-37409381D01*
X208319715Y-37409381D01*
X208176857Y-37361762D01*
X208081619Y-37266524D01*
X208034000Y-37171286D01*
X207986381Y-36980810D01*
X207986381Y-36837952D01*
X208034000Y-36647476D01*
X208081619Y-36552238D01*
X208176857Y-36457000D01*
X208319715Y-36409381D01*
X208414953Y-36409381D01*
X208557810Y-36457000D01*
X208605429Y-36504619D01*
X209557810Y-37409381D02*
X208986381Y-37409381D01*
X209272095Y-37409381D02*
X209272095Y-36409381D01*
X209176857Y-36552238D01*
X209081619Y-36647476D01*
X208986381Y-36695095D01*
X202596762Y-71159619D02*
X202501524Y-71112000D01*
X202406286Y-71016762D01*
X202263429Y-70873905D01*
X202168190Y-70826286D01*
X202072952Y-70826286D01*
X202120571Y-71064381D02*
X202025333Y-71016762D01*
X201930095Y-70921524D01*
X201882476Y-70731048D01*
X201882476Y-70397714D01*
X201930095Y-70207238D01*
X202025333Y-70112000D01*
X202120571Y-70064381D01*
X202311048Y-70064381D01*
X202406286Y-70112000D01*
X202501524Y-70207238D01*
X202549143Y-70397714D01*
X202549143Y-70731048D01*
X202501524Y-70921524D01*
X202406286Y-71016762D01*
X202311048Y-71064381D01*
X202120571Y-71064381D01*
X203501524Y-71064381D02*
X202930095Y-71064381D01*
X203215809Y-71064381D02*
X203215809Y-70064381D01*
X203120571Y-70207238D01*
X203025333Y-70302476D01*
X202930095Y-70350095D01*
X219360762Y-71159619D02*
X219265524Y-71112000D01*
X219170286Y-71016762D01*
X219027429Y-70873905D01*
X218932190Y-70826286D01*
X218836952Y-70826286D01*
X218884571Y-71064381D02*
X218789333Y-71016762D01*
X218694095Y-70921524D01*
X218646476Y-70731048D01*
X218646476Y-70397714D01*
X218694095Y-70207238D01*
X218789333Y-70112000D01*
X218884571Y-70064381D01*
X219075048Y-70064381D01*
X219170286Y-70112000D01*
X219265524Y-70207238D01*
X219313143Y-70397714D01*
X219313143Y-70731048D01*
X219265524Y-70921524D01*
X219170286Y-71016762D01*
X219075048Y-71064381D01*
X218884571Y-71064381D01*
X219694095Y-70159619D02*
X219741714Y-70112000D01*
X219836952Y-70064381D01*
X220075048Y-70064381D01*
X220170286Y-70112000D01*
X220217905Y-70159619D01*
X220265524Y-70254857D01*
X220265524Y-70350095D01*
X220217905Y-70492952D01*
X219646476Y-71064381D01*
X220265524Y-71064381D01*
X197953334Y-68143381D02*
X197620000Y-67667190D01*
X197381905Y-68143381D02*
X197381905Y-67143381D01*
X197762858Y-67143381D01*
X197858096Y-67191000D01*
X197905715Y-67238619D01*
X197953334Y-67333857D01*
X197953334Y-67476714D01*
X197905715Y-67571952D01*
X197858096Y-67619571D01*
X197762858Y-67667190D01*
X197381905Y-67667190D01*
X198524762Y-67571952D02*
X198429524Y-67524333D01*
X198381905Y-67476714D01*
X198334286Y-67381476D01*
X198334286Y-67333857D01*
X198381905Y-67238619D01*
X198429524Y-67191000D01*
X198524762Y-67143381D01*
X198715239Y-67143381D01*
X198810477Y-67191000D01*
X198858096Y-67238619D01*
X198905715Y-67333857D01*
X198905715Y-67381476D01*
X198858096Y-67476714D01*
X198810477Y-67524333D01*
X198715239Y-67571952D01*
X198524762Y-67571952D01*
X198429524Y-67619571D01*
X198381905Y-67667190D01*
X198334286Y-67762429D01*
X198334286Y-67952905D01*
X198381905Y-68048143D01*
X198429524Y-68095762D01*
X198524762Y-68143381D01*
X198715239Y-68143381D01*
X198810477Y-68095762D01*
X198858096Y-68048143D01*
X198905715Y-67952905D01*
X198905715Y-67762429D01*
X198858096Y-67667190D01*
X198810477Y-67619571D01*
X198715239Y-67571952D01*
X243292334Y-51633381D02*
X242959000Y-51157190D01*
X242720905Y-51633381D02*
X242720905Y-50633381D01*
X243101858Y-50633381D01*
X243197096Y-50681000D01*
X243244715Y-50728619D01*
X243292334Y-50823857D01*
X243292334Y-50966714D01*
X243244715Y-51061952D01*
X243197096Y-51109571D01*
X243101858Y-51157190D01*
X242720905Y-51157190D01*
X243768524Y-51633381D02*
X243959000Y-51633381D01*
X244054239Y-51585762D01*
X244101858Y-51538143D01*
X244197096Y-51395286D01*
X244244715Y-51204810D01*
X244244715Y-50823857D01*
X244197096Y-50728619D01*
X244149477Y-50681000D01*
X244054239Y-50633381D01*
X243863762Y-50633381D01*
X243768524Y-50681000D01*
X243720905Y-50728619D01*
X243673286Y-50823857D01*
X243673286Y-51061952D01*
X243720905Y-51157190D01*
X243768524Y-51204810D01*
X243863762Y-51252429D01*
X244054239Y-51252429D01*
X244149477Y-51204810D01*
X244197096Y-51157190D01*
X244244715Y-51061952D01*
D19*
X211284457Y-68993657D02*
X211502171Y-69066229D01*
X211865028Y-69066229D01*
X212010171Y-68993657D01*
X212082742Y-68921086D01*
X212155314Y-68775943D01*
X212155314Y-68630800D01*
X212082742Y-68485657D01*
X212010171Y-68413086D01*
X211865028Y-68340514D01*
X211574742Y-68267943D01*
X211429600Y-68195371D01*
X211357028Y-68122800D01*
X211284457Y-67977657D01*
X211284457Y-67832514D01*
X211357028Y-67687371D01*
X211429600Y-67614800D01*
X211574742Y-67542229D01*
X211937600Y-67542229D01*
X212155314Y-67614800D01*
X212808457Y-69066229D02*
X212808457Y-67542229D01*
X213389029Y-67542229D01*
X213534171Y-67614800D01*
X213606743Y-67687371D01*
X213679314Y-67832514D01*
X213679314Y-68050229D01*
X213606743Y-68195371D01*
X213534171Y-68267943D01*
X213389029Y-68340514D01*
X212808457Y-68340514D01*
X215130743Y-69066229D02*
X214259886Y-69066229D01*
X214695314Y-69066229D02*
X214695314Y-67542229D01*
X214550171Y-67759943D01*
X214405029Y-67905086D01*
X214259886Y-67977657D01*
D20*
X234103334Y-72293238D02*
X234248477Y-72341619D01*
X234490381Y-72341619D01*
X234587143Y-72293238D01*
X234635524Y-72244857D01*
X234683905Y-72148095D01*
X234683905Y-72051333D01*
X234635524Y-71954571D01*
X234587143Y-71906190D01*
X234490381Y-71857810D01*
X234296858Y-71809429D01*
X234200096Y-71761048D01*
X234151715Y-71712667D01*
X234103334Y-71615905D01*
X234103334Y-71519143D01*
X234151715Y-71422381D01*
X234200096Y-71374000D01*
X234296858Y-71325619D01*
X234538762Y-71325619D01*
X234683905Y-71374000D01*
X235022572Y-71325619D02*
X235264477Y-72341619D01*
X235458000Y-71615905D01*
X235651524Y-72341619D01*
X235893429Y-71325619D01*
X236812667Y-72341619D02*
X236232096Y-72341619D01*
X236522382Y-72341619D02*
X236522382Y-71325619D01*
X236425620Y-71470762D01*
X236328858Y-71567524D01*
X236232096Y-71615905D01*
X183811334Y-72039238D02*
X183956477Y-72087619D01*
X184198381Y-72087619D01*
X184295143Y-72039238D01*
X184343524Y-71990857D01*
X184391905Y-71894095D01*
X184391905Y-71797333D01*
X184343524Y-71700571D01*
X184295143Y-71652190D01*
X184198381Y-71603810D01*
X184004858Y-71555429D01*
X183908096Y-71507048D01*
X183859715Y-71458667D01*
X183811334Y-71361905D01*
X183811334Y-71265143D01*
X183859715Y-71168381D01*
X183908096Y-71120000D01*
X184004858Y-71071619D01*
X184246762Y-71071619D01*
X184391905Y-71120000D01*
X184730572Y-71071619D02*
X184972477Y-72087619D01*
X185166000Y-71361905D01*
X185359524Y-72087619D01*
X185601429Y-71071619D01*
X185940096Y-71168381D02*
X185988477Y-71120000D01*
X186085239Y-71071619D01*
X186327143Y-71071619D01*
X186423905Y-71120000D01*
X186472286Y-71168381D01*
X186520667Y-71265143D01*
X186520667Y-71361905D01*
X186472286Y-71507048D01*
X185891715Y-72087619D01*
X186520667Y-72087619D01*
D13*
X204724095Y-30567381D02*
X204724095Y-31376905D01*
X204771714Y-31472143D01*
X204819333Y-31519762D01*
X204914571Y-31567381D01*
X205105048Y-31567381D01*
X205200286Y-31519762D01*
X205247905Y-31472143D01*
X205295524Y-31376905D01*
X205295524Y-30567381D01*
X206295524Y-31567381D02*
X205724095Y-31567381D01*
X206009809Y-31567381D02*
X206009809Y-30567381D01*
X205914571Y-30710238D01*
X205819333Y-30805476D01*
X205724095Y-30853095D01*
X235616809Y-36044190D02*
X235616809Y-36520381D01*
X235283476Y-35520381D02*
X235616809Y-36044190D01*
X235950143Y-35520381D01*
X236807286Y-36520381D02*
X236235857Y-36520381D01*
X236521571Y-36520381D02*
X236521571Y-35520381D01*
X236426333Y-35663238D01*
X236331095Y-35758476D01*
X236235857Y-35806095D01*
X243101905Y-34234381D02*
X243101905Y-33234381D01*
X243482858Y-33234381D01*
X243578096Y-33282000D01*
X243625715Y-33329619D01*
X243673334Y-33424857D01*
X243673334Y-33567714D01*
X243625715Y-33662952D01*
X243578096Y-33710571D01*
X243482858Y-33758190D01*
X243101905Y-33758190D01*
X244054286Y-33329619D02*
X244101905Y-33282000D01*
X244197143Y-33234381D01*
X244435239Y-33234381D01*
X244530477Y-33282000D01*
X244578096Y-33329619D01*
X244625715Y-33424857D01*
X244625715Y-33520095D01*
X244578096Y-33662952D01*
X244006667Y-34234381D01*
X244625715Y-34234381D01*
X175283905Y-71572381D02*
X175283905Y-70572381D01*
X175664858Y-70572381D01*
X175760096Y-70620000D01*
X175807715Y-70667619D01*
X175855334Y-70762857D01*
X175855334Y-70905714D01*
X175807715Y-71000952D01*
X175760096Y-71048571D01*
X175664858Y-71096190D01*
X175283905Y-71096190D01*
X176188667Y-70572381D02*
X176807715Y-70572381D01*
X176474381Y-70953333D01*
X176617239Y-70953333D01*
X176712477Y-71000952D01*
X176760096Y-71048571D01*
X176807715Y-71143810D01*
X176807715Y-71381905D01*
X176760096Y-71477143D01*
X176712477Y-71524762D01*
X176617239Y-71572381D01*
X176331524Y-71572381D01*
X176236286Y-71524762D01*
X176188667Y-71477143D01*
X175283905Y-33980381D02*
X175283905Y-32980381D01*
X175664858Y-32980381D01*
X175760096Y-33028000D01*
X175807715Y-33075619D01*
X175855334Y-33170857D01*
X175855334Y-33313714D01*
X175807715Y-33408952D01*
X175760096Y-33456571D01*
X175664858Y-33504190D01*
X175283905Y-33504190D01*
X176712477Y-33313714D02*
X176712477Y-33980381D01*
X176474381Y-32932762D02*
X176236286Y-33647048D01*
X176855334Y-33647048D01*
X243101905Y-71826381D02*
X243101905Y-70826381D01*
X243482858Y-70826381D01*
X243578096Y-70874000D01*
X243625715Y-70921619D01*
X243673334Y-71016857D01*
X243673334Y-71159714D01*
X243625715Y-71254952D01*
X243578096Y-71302571D01*
X243482858Y-71350190D01*
X243101905Y-71350190D01*
X244578096Y-70826381D02*
X244101905Y-70826381D01*
X244054286Y-71302571D01*
X244101905Y-71254952D01*
X244197143Y-71207333D01*
X244435239Y-71207333D01*
X244530477Y-71254952D01*
X244578096Y-71302571D01*
X244625715Y-71397810D01*
X244625715Y-71635905D01*
X244578096Y-71731143D01*
X244530477Y-71778762D01*
X244435239Y-71826381D01*
X244197143Y-71826381D01*
X244101905Y-71778762D01*
X244054286Y-71731143D01*
%LPC*%
D21*
X205973680Y-59903360D03*
D22*
X208513680Y-59903360D03*
X211053680Y-59903360D03*
X213593680Y-59903360D03*
X216133680Y-59903360D03*
X218673680Y-59903360D03*
X213593680Y-44663360D03*
X216133680Y-44663360D03*
X205973680Y-44663360D03*
X208513680Y-44663360D03*
X218673680Y-44663360D03*
X211053680Y-44663360D03*
D23*
X187960000Y-64516000D03*
D24*
X190460000Y-64516000D03*
D25*
X174752000Y-38608000D03*
D26*
X174752000Y-41148000D03*
X174752000Y-43688000D03*
X174752000Y-46228000D03*
X174752000Y-48768000D03*
X174752000Y-51308000D03*
X174752000Y-53848000D03*
D27*
X192532000Y-32004000D03*
X182372000Y-32004000D03*
X182372000Y-35306000D03*
X192532000Y-35306000D03*
X203454000Y-64516000D03*
X193294000Y-64516000D03*
X220726000Y-64516000D03*
X230886000Y-64516000D03*
X240284000Y-56134000D03*
X240284000Y-45974000D03*
X180594000Y-53873400D03*
X180594000Y-43713400D03*
X183794400Y-53873400D03*
X183794400Y-43713400D03*
D28*
X236029500Y-43030140D03*
X236029500Y-63030100D03*
D29*
X175564800Y-60198000D03*
D30*
X181660800Y-60198000D03*
D29*
X177850800Y-65278000D03*
D27*
X177535840Y-53987700D03*
D31*
X177535840Y-43827700D03*
D32*
X178816000Y-38354000D03*
D22*
X178816000Y-40894000D03*
D23*
X221488000Y-31242000D03*
D24*
X223988000Y-31242000D03*
D27*
X182372000Y-38356540D03*
D31*
X192532000Y-38356540D03*
D27*
X192532000Y-41145460D03*
D31*
X182372000Y-41145460D03*
D33*
X196342000Y-41402000D03*
X198882000Y-41402000D03*
X201422000Y-41402000D03*
X203962000Y-41402000D03*
X206502000Y-41402000D03*
X209042000Y-41402000D03*
X211582000Y-41402000D03*
X214122000Y-41402000D03*
X216662000Y-41402000D03*
X219202000Y-41402000D03*
X221742000Y-41402000D03*
X224282000Y-41402000D03*
X226822000Y-41402000D03*
X229362000Y-41402000D03*
X229362000Y-33782000D03*
X226822000Y-33782000D03*
X224282000Y-33782000D03*
X221742000Y-33782000D03*
X219202000Y-33782000D03*
X216662000Y-33782000D03*
X214122000Y-33782000D03*
X211582000Y-33782000D03*
X209042000Y-33782000D03*
X206502000Y-33782000D03*
X203962000Y-33782000D03*
X201422000Y-33782000D03*
X198882000Y-33782000D03*
X196342000Y-33782000D03*
D34*
X202692000Y-72898000D03*
X201422000Y-71628000D03*
X203962000Y-71628000D03*
D35*
X225552000Y-69088000D03*
X227843080Y-69088000D03*
X223260920Y-69088000D03*
D27*
X203454000Y-67564000D03*
X193294000Y-67564000D03*
X243586000Y-45974000D03*
X243586000Y-56134000D03*
D36*
X216662000Y-68580000D03*
D37*
X209042000Y-68580000D03*
D38*
X231648000Y-73660000D03*
X231648000Y-68580000D03*
X239268000Y-73660000D03*
X239268000Y-68580000D03*
X181356000Y-73406000D03*
X181356000Y-68326000D03*
X188976000Y-73406000D03*
X188976000Y-68326000D03*
D23*
X207772000Y-31496000D03*
D24*
X210272000Y-31496000D03*
D22*
X233680000Y-37846000D03*
X233680000Y-40386000D03*
D39*
X241300000Y-39116000D03*
D40*
X243840000Y-33782000D03*
X176022000Y-71120000D03*
X176022000Y-33782000D03*
X243840000Y-71120000D03*
M02*
