G04 #@! TF.FileFunction,Soldermask,Bot*
%FSLAX46Y46*%
G04 Gerber Fmt 4.6, Leading zero omitted, Abs format (unit mm)*
G04 Created by KiCad (PCBNEW 4.0.1-stable) date 14-Oct-16 3:18:09 PM*
%MOMM*%
G01*
G04 APERTURE LIST*
%ADD10C,0.100000*%
%ADD11C,0.600000*%
%ADD12C,0.150000*%
%ADD13R,2.432000X2.432000*%
%ADD14C,2.400000*%
%ADD15R,1.700000X1.700000*%
%ADD16C,1.700000*%
%ADD17R,2.432000X2.127200*%
%ADD18O,2.432000X2.127200*%
%ADD19C,2.398980*%
%ADD20C,2.348180*%
%ADD21C,5.200600*%
%ADD22R,5.200600X5.200600*%
%ADD23R,2.398980X2.398980*%
%ADD24R,2.400000X2.400000*%
%ADD25O,2.000000X2.000000*%
%ADD26C,1.400760*%
%ADD27O,2.099260X3.900120*%
%ADD28R,2.000000X2.000000*%
%ADD29C,2.000000*%
%ADD30C,2.100000*%
%ADD31C,3.600000*%
G04 APERTURE END LIST*
D10*
D11*
X218983785Y-54548114D02*
X219983785Y-54548114D01*
X220180214Y-56119543D02*
X219805214Y-53119543D01*
X218376643Y-53119543D01*
X216073071Y-54119543D02*
X216323071Y-56119543D01*
X217358785Y-54119543D02*
X217555213Y-55690971D01*
X217448071Y-55976686D01*
X217180214Y-56119543D01*
X216751642Y-56119543D01*
X216448071Y-55976686D01*
X216287357Y-55833829D01*
X214644499Y-54119543D02*
X214894499Y-56119543D01*
X214680213Y-54405257D02*
X214519499Y-54262400D01*
X214215928Y-54119543D01*
X213787356Y-54119543D01*
X213519499Y-54262400D01*
X213412356Y-54548114D01*
X213608785Y-56119543D01*
X212233785Y-53119543D02*
X210519499Y-53119543D01*
X211751642Y-56119543D02*
X211376642Y-53119543D01*
X209894499Y-56119543D02*
X209644499Y-54119543D01*
X209519499Y-53119543D02*
X209680213Y-53262400D01*
X209555213Y-53405257D01*
X209394499Y-53262400D01*
X209519499Y-53119543D01*
X209555213Y-53405257D01*
X208465928Y-56119543D02*
X208215928Y-54119543D01*
X208251642Y-54405257D02*
X208090928Y-54262400D01*
X207787357Y-54119543D01*
X207358785Y-54119543D01*
X207090928Y-54262400D01*
X206983785Y-54548114D01*
X207180214Y-56119543D01*
X206983785Y-54548114D02*
X206805214Y-54262400D01*
X206501643Y-54119543D01*
X206073071Y-54119543D01*
X205805214Y-54262400D01*
X205698071Y-54548114D01*
X205894500Y-56119543D01*
X203305214Y-55976686D02*
X203608785Y-56119543D01*
X204180214Y-56119543D01*
X204448071Y-55976686D01*
X204555213Y-55690971D01*
X204412356Y-54548114D01*
X204233785Y-54262400D01*
X203930214Y-54119543D01*
X203358785Y-54119543D01*
X203090928Y-54262400D01*
X202983785Y-54548114D01*
X203019500Y-54833829D01*
X204483785Y-55119543D01*
D12*
X172466000Y-73787000D02*
X172466000Y-31242000D01*
X246126000Y-75057000D02*
X173990000Y-75057000D01*
X247523000Y-31242000D02*
X247523000Y-73660000D01*
X173990000Y-29972000D02*
X245999000Y-29972000D01*
X173990000Y-29972000D02*
G75*
G03X172466000Y-31242000I-127000J-1397000D01*
G01*
X247523000Y-31242000D02*
G75*
G03X245999000Y-29972000I-1397000J-127000D01*
G01*
X246126000Y-75057000D02*
G75*
G03X247523000Y-73660000I0J1397000D01*
G01*
X172466000Y-73787000D02*
G75*
G03X173990000Y-75057000I1397000J127000D01*
G01*
D13*
X205973680Y-59903360D03*
D14*
X208513680Y-59903360D03*
X211053680Y-59903360D03*
X213593680Y-59903360D03*
X216133680Y-59903360D03*
X218673680Y-59903360D03*
X213593680Y-44663360D03*
X216133680Y-44663360D03*
X205973680Y-44663360D03*
X208513680Y-44663360D03*
X218673680Y-44663360D03*
X211053680Y-44663360D03*
D15*
X187960000Y-64516000D03*
D16*
X190460000Y-64516000D03*
D17*
X174752000Y-38608000D03*
D18*
X174752000Y-41148000D03*
X174752000Y-43688000D03*
X174752000Y-46228000D03*
X174752000Y-48768000D03*
X174752000Y-51308000D03*
X174752000Y-53848000D03*
D19*
X192532000Y-32004000D03*
X182372000Y-32004000D03*
X182372000Y-35306000D03*
X192532000Y-35306000D03*
X203454000Y-64516000D03*
X193294000Y-64516000D03*
X220726000Y-64516000D03*
X230886000Y-64516000D03*
X240284000Y-56134000D03*
X240284000Y-45974000D03*
X180594000Y-53873400D03*
X180594000Y-43713400D03*
X183794400Y-53873400D03*
X183794400Y-43713400D03*
D20*
X236029500Y-43030140D03*
X236029500Y-63030100D03*
D21*
X175564800Y-60198000D03*
D22*
X181660800Y-60198000D03*
D21*
X177850800Y-65278000D03*
D19*
X177535840Y-53987700D03*
D23*
X177535840Y-43827700D03*
D24*
X178816000Y-38354000D03*
D14*
X178816000Y-40894000D03*
D15*
X221488000Y-31242000D03*
D16*
X223988000Y-31242000D03*
D19*
X182372000Y-38356540D03*
D23*
X192532000Y-38356540D03*
D19*
X192532000Y-41145460D03*
D23*
X182372000Y-41145460D03*
D25*
X196342000Y-41402000D03*
X198882000Y-41402000D03*
X201422000Y-41402000D03*
X203962000Y-41402000D03*
X206502000Y-41402000D03*
X209042000Y-41402000D03*
X211582000Y-41402000D03*
X214122000Y-41402000D03*
X216662000Y-41402000D03*
X219202000Y-41402000D03*
X221742000Y-41402000D03*
X224282000Y-41402000D03*
X226822000Y-41402000D03*
X229362000Y-41402000D03*
X229362000Y-33782000D03*
X226822000Y-33782000D03*
X224282000Y-33782000D03*
X221742000Y-33782000D03*
X219202000Y-33782000D03*
X216662000Y-33782000D03*
X214122000Y-33782000D03*
X211582000Y-33782000D03*
X209042000Y-33782000D03*
X206502000Y-33782000D03*
X203962000Y-33782000D03*
X201422000Y-33782000D03*
X198882000Y-33782000D03*
X196342000Y-33782000D03*
D26*
X202692000Y-72898000D03*
X201422000Y-71628000D03*
X203962000Y-71628000D03*
D27*
X225552000Y-69088000D03*
X227843080Y-69088000D03*
X223260920Y-69088000D03*
D19*
X203454000Y-67564000D03*
X193294000Y-67564000D03*
X243586000Y-45974000D03*
X243586000Y-56134000D03*
D28*
X216662000Y-68580000D03*
D29*
X209042000Y-68580000D03*
D30*
X231648000Y-73660000D03*
X231648000Y-68580000D03*
X239268000Y-73660000D03*
X239268000Y-68580000D03*
X181356000Y-73406000D03*
X181356000Y-68326000D03*
X188976000Y-73406000D03*
X188976000Y-68326000D03*
D15*
X207772000Y-31496000D03*
D16*
X210272000Y-31496000D03*
D14*
X233680000Y-37846000D03*
X233680000Y-40386000D03*
D31*
X243840000Y-33782000D03*
X176022000Y-71120000D03*
X176022000Y-33782000D03*
X243840000Y-71120000D03*
M02*
