G04 #@! TF.FileFunction,Legend,Bot*
%FSLAX46Y46*%
G04 Gerber Fmt 4.6, Leading zero omitted, Abs format (unit mm)*
G04 Created by KiCad (PCBNEW 4.0.1-stable) date 14-Oct-16 3:18:09 PM*
%MOMM*%
G01*
G04 APERTURE LIST*
%ADD10C,0.100000*%
%ADD11C,0.200000*%
%ADD12C,0.150000*%
%ADD13C,0.300000*%
%ADD14C,0.203200*%
%ADD15C,0.101600*%
%ADD16C,0.002540*%
%ADD17C,0.088900*%
%ADD18C,0.254000*%
%ADD19C,0.600000*%
%ADD20R,2.432000X2.432000*%
%ADD21C,2.400000*%
%ADD22R,1.700000X1.700000*%
%ADD23C,1.700000*%
%ADD24R,2.432000X2.127200*%
%ADD25O,2.432000X2.127200*%
%ADD26C,2.398980*%
%ADD27C,2.348180*%
%ADD28C,5.200600*%
%ADD29R,5.200600X5.200600*%
%ADD30R,2.398980X2.398980*%
%ADD31R,2.400000X2.400000*%
%ADD32O,2.000000X2.000000*%
%ADD33C,1.400760*%
%ADD34O,2.099260X3.900120*%
%ADD35R,2.000000X2.000000*%
%ADD36C,2.000000*%
%ADD37C,2.100000*%
%ADD38C,3.600000*%
G04 APERTURE END LIST*
D10*
D11*
X227444965Y-62098281D02*
X227444965Y-61098281D01*
X227111631Y-61812567D01*
X226778298Y-61098281D01*
X226778298Y-62098281D01*
X226111632Y-61098281D02*
X225921155Y-61098281D01*
X225825917Y-61145900D01*
X225730679Y-61241138D01*
X225683060Y-61431614D01*
X225683060Y-61764948D01*
X225730679Y-61955424D01*
X225825917Y-62050662D01*
X225921155Y-62098281D01*
X226111632Y-62098281D01*
X226206870Y-62050662D01*
X226302108Y-61955424D01*
X226349727Y-61764948D01*
X226349727Y-61431614D01*
X226302108Y-61241138D01*
X226206870Y-61145900D01*
X226111632Y-61098281D01*
X225254489Y-62098281D02*
X225254489Y-61098281D01*
X225016394Y-61098281D01*
X224873536Y-61145900D01*
X224778298Y-61241138D01*
X224730679Y-61336376D01*
X224683060Y-61526852D01*
X224683060Y-61669710D01*
X224730679Y-61860186D01*
X224778298Y-61955424D01*
X224873536Y-62050662D01*
X225016394Y-62098281D01*
X225254489Y-62098281D01*
X224254489Y-61574471D02*
X223921155Y-61574471D01*
X223778298Y-62098281D02*
X224254489Y-62098281D01*
X224254489Y-61098281D01*
X223778298Y-61098281D01*
X222587822Y-62003043D02*
X222540203Y-62050662D01*
X222587822Y-62098281D01*
X222635441Y-62050662D01*
X222587822Y-62003043D01*
X222587822Y-62098281D01*
X222587822Y-61479233D02*
X222540203Y-61526852D01*
X222587822Y-61574471D01*
X222635441Y-61526852D01*
X222587822Y-61479233D01*
X222587822Y-61574471D01*
X221397346Y-62050662D02*
X221254489Y-62098281D01*
X221016393Y-62098281D01*
X220921155Y-62050662D01*
X220873536Y-62003043D01*
X220825917Y-61907805D01*
X220825917Y-61812567D01*
X220873536Y-61717329D01*
X220921155Y-61669710D01*
X221016393Y-61622090D01*
X221206870Y-61574471D01*
X221302108Y-61526852D01*
X221349727Y-61479233D01*
X221397346Y-61383995D01*
X221397346Y-61288757D01*
X221349727Y-61193519D01*
X221302108Y-61145900D01*
X221206870Y-61098281D01*
X220968774Y-61098281D01*
X220825917Y-61145900D01*
X220492584Y-61431614D02*
X220302108Y-62098281D01*
X220111631Y-61622090D01*
X219921155Y-62098281D01*
X219730679Y-61431614D01*
X219349727Y-62098281D02*
X219349727Y-61431614D01*
X219349727Y-61098281D02*
X219397346Y-61145900D01*
X219349727Y-61193519D01*
X219302108Y-61145900D01*
X219349727Y-61098281D01*
X219349727Y-61193519D01*
X219016394Y-61431614D02*
X218635442Y-61431614D01*
X218873537Y-61098281D02*
X218873537Y-61955424D01*
X218825918Y-62050662D01*
X218730680Y-62098281D01*
X218635442Y-62098281D01*
X217873536Y-62050662D02*
X217968774Y-62098281D01*
X218159251Y-62098281D01*
X218254489Y-62050662D01*
X218302108Y-62003043D01*
X218349727Y-61907805D01*
X218349727Y-61622090D01*
X218302108Y-61526852D01*
X218254489Y-61479233D01*
X218159251Y-61431614D01*
X217968774Y-61431614D01*
X217873536Y-61479233D01*
X217444965Y-62098281D02*
X217444965Y-61098281D01*
X217016393Y-62098281D02*
X217016393Y-61574471D01*
X217064012Y-61479233D01*
X217159250Y-61431614D01*
X217302108Y-61431614D01*
X217397346Y-61479233D01*
X217444965Y-61526852D01*
X215778298Y-62098281D02*
X215778298Y-61098281D01*
X215778298Y-61479233D02*
X215683060Y-61431614D01*
X215492583Y-61431614D01*
X215397345Y-61479233D01*
X215349726Y-61526852D01*
X215302107Y-61622090D01*
X215302107Y-61907805D01*
X215349726Y-62003043D01*
X215397345Y-62050662D01*
X215492583Y-62098281D01*
X215683060Y-62098281D01*
X215778298Y-62050662D01*
X214492583Y-62050662D02*
X214587821Y-62098281D01*
X214778298Y-62098281D01*
X214873536Y-62050662D01*
X214921155Y-61955424D01*
X214921155Y-61574471D01*
X214873536Y-61479233D01*
X214778298Y-61431614D01*
X214587821Y-61431614D01*
X214492583Y-61479233D01*
X214444964Y-61574471D01*
X214444964Y-61669710D01*
X214921155Y-61764948D01*
X214159250Y-61431614D02*
X213778298Y-61431614D01*
X214016393Y-61098281D02*
X214016393Y-61955424D01*
X213968774Y-62050662D01*
X213873536Y-62098281D01*
X213778298Y-62098281D01*
X213540202Y-61431614D02*
X213349726Y-62098281D01*
X213159249Y-61622090D01*
X212968773Y-62098281D01*
X212778297Y-61431614D01*
X212016392Y-62050662D02*
X212111630Y-62098281D01*
X212302107Y-62098281D01*
X212397345Y-62050662D01*
X212444964Y-61955424D01*
X212444964Y-61574471D01*
X212397345Y-61479233D01*
X212302107Y-61431614D01*
X212111630Y-61431614D01*
X212016392Y-61479233D01*
X211968773Y-61574471D01*
X211968773Y-61669710D01*
X212444964Y-61764948D01*
X211159249Y-62050662D02*
X211254487Y-62098281D01*
X211444964Y-62098281D01*
X211540202Y-62050662D01*
X211587821Y-61955424D01*
X211587821Y-61574471D01*
X211540202Y-61479233D01*
X211444964Y-61431614D01*
X211254487Y-61431614D01*
X211159249Y-61479233D01*
X211111630Y-61574471D01*
X211111630Y-61669710D01*
X211587821Y-61764948D01*
X210683059Y-61431614D02*
X210683059Y-62098281D01*
X210683059Y-61526852D02*
X210635440Y-61479233D01*
X210540202Y-61431614D01*
X210397344Y-61431614D01*
X210302106Y-61479233D01*
X210254487Y-61574471D01*
X210254487Y-62098281D01*
X209159249Y-61098281D02*
X208587820Y-61098281D01*
X208873535Y-62098281D02*
X208873535Y-61098281D01*
X208254487Y-62098281D02*
X208254487Y-61431614D01*
X208254487Y-61098281D02*
X208302106Y-61145900D01*
X208254487Y-61193519D01*
X208206868Y-61145900D01*
X208254487Y-61098281D01*
X208254487Y-61193519D01*
X207778297Y-62098281D02*
X207778297Y-61431614D01*
X207778297Y-61526852D02*
X207730678Y-61479233D01*
X207635440Y-61431614D01*
X207492582Y-61431614D01*
X207397344Y-61479233D01*
X207349725Y-61574471D01*
X207349725Y-62098281D01*
X207349725Y-61574471D02*
X207302106Y-61479233D01*
X207206868Y-61431614D01*
X207064011Y-61431614D01*
X206968773Y-61479233D01*
X206921154Y-61574471D01*
X206921154Y-62098281D01*
X206064011Y-62050662D02*
X206159249Y-62098281D01*
X206349726Y-62098281D01*
X206444964Y-62050662D01*
X206492583Y-61955424D01*
X206492583Y-61574471D01*
X206444964Y-61479233D01*
X206349726Y-61431614D01*
X206159249Y-61431614D01*
X206064011Y-61479233D01*
X206016392Y-61574471D01*
X206016392Y-61669710D01*
X206492583Y-61764948D01*
X204778297Y-62050662D02*
X204778297Y-62098281D01*
X204825916Y-62193519D01*
X204873535Y-62241138D01*
X203635440Y-61812567D02*
X203159249Y-61812567D01*
X203730678Y-62098281D02*
X203397345Y-61098281D01*
X203064011Y-62098281D01*
X202587821Y-62098281D02*
X202683059Y-62050662D01*
X202730678Y-61955424D01*
X202730678Y-61098281D01*
X201778296Y-62098281D02*
X201778296Y-61574471D01*
X201825915Y-61479233D01*
X201921153Y-61431614D01*
X202111630Y-61431614D01*
X202206868Y-61479233D01*
X201778296Y-62050662D02*
X201873534Y-62098281D01*
X202111630Y-62098281D01*
X202206868Y-62050662D01*
X202254487Y-61955424D01*
X202254487Y-61860186D01*
X202206868Y-61764948D01*
X202111630Y-61717329D01*
X201873534Y-61717329D01*
X201778296Y-61669710D01*
X201302106Y-62098281D02*
X201302106Y-61431614D01*
X201302106Y-61622090D02*
X201254487Y-61526852D01*
X201206868Y-61479233D01*
X201111630Y-61431614D01*
X201016391Y-61431614D01*
X200683058Y-62098281D02*
X200683058Y-61431614D01*
X200683058Y-61526852D02*
X200635439Y-61479233D01*
X200540201Y-61431614D01*
X200397343Y-61431614D01*
X200302105Y-61479233D01*
X200254486Y-61574471D01*
X200254486Y-62098281D01*
X200254486Y-61574471D02*
X200206867Y-61479233D01*
X200111629Y-61431614D01*
X199968772Y-61431614D01*
X199873534Y-61479233D01*
X199825915Y-61574471D01*
X199825915Y-62098281D01*
X198159248Y-62098281D02*
X198159248Y-61574471D01*
X198206867Y-61479233D01*
X198302105Y-61431614D01*
X198492582Y-61431614D01*
X198587820Y-61479233D01*
X198159248Y-62050662D02*
X198254486Y-62098281D01*
X198492582Y-62098281D01*
X198587820Y-62050662D01*
X198635439Y-61955424D01*
X198635439Y-61860186D01*
X198587820Y-61764948D01*
X198492582Y-61717329D01*
X198254486Y-61717329D01*
X198159248Y-61669710D01*
X197683058Y-61431614D02*
X197683058Y-62098281D01*
X197683058Y-61526852D02*
X197635439Y-61479233D01*
X197540201Y-61431614D01*
X197397343Y-61431614D01*
X197302105Y-61479233D01*
X197254486Y-61574471D01*
X197254486Y-62098281D01*
X196349724Y-62098281D02*
X196349724Y-61098281D01*
X196349724Y-62050662D02*
X196444962Y-62098281D01*
X196635439Y-62098281D01*
X196730677Y-62050662D01*
X196778296Y-62003043D01*
X196825915Y-61907805D01*
X196825915Y-61622090D01*
X196778296Y-61526852D01*
X196730677Y-61479233D01*
X196635439Y-61431614D01*
X196444962Y-61431614D01*
X196349724Y-61479233D01*
X194635438Y-62098281D02*
X195111629Y-62098281D01*
X195111629Y-61098281D01*
X194302105Y-62098281D02*
X194302105Y-61431614D01*
X194302105Y-61098281D02*
X194349724Y-61145900D01*
X194302105Y-61193519D01*
X194254486Y-61145900D01*
X194302105Y-61098281D01*
X194302105Y-61193519D01*
X193397343Y-61431614D02*
X193397343Y-62241138D01*
X193444962Y-62336376D01*
X193492581Y-62383995D01*
X193587820Y-62431614D01*
X193730677Y-62431614D01*
X193825915Y-62383995D01*
X193397343Y-62050662D02*
X193492581Y-62098281D01*
X193683058Y-62098281D01*
X193778296Y-62050662D01*
X193825915Y-62003043D01*
X193873534Y-61907805D01*
X193873534Y-61622090D01*
X193825915Y-61526852D01*
X193778296Y-61479233D01*
X193683058Y-61431614D01*
X193492581Y-61431614D01*
X193397343Y-61479233D01*
X192921153Y-62098281D02*
X192921153Y-61098281D01*
X192492581Y-62098281D02*
X192492581Y-61574471D01*
X192540200Y-61479233D01*
X192635438Y-61431614D01*
X192778296Y-61431614D01*
X192873534Y-61479233D01*
X192921153Y-61526852D01*
X192159248Y-61431614D02*
X191778296Y-61431614D01*
X192016391Y-61098281D02*
X192016391Y-61955424D01*
X191968772Y-62050662D01*
X191873534Y-62098281D01*
X191778296Y-62098281D01*
X190254485Y-62050662D02*
X190349723Y-62098281D01*
X190540200Y-62098281D01*
X190635438Y-62050662D01*
X190683057Y-62003043D01*
X190730676Y-61907805D01*
X190730676Y-61622090D01*
X190683057Y-61526852D01*
X190635438Y-61479233D01*
X190540200Y-61431614D01*
X190349723Y-61431614D01*
X190254485Y-61479233D01*
X189683057Y-62098281D02*
X189778295Y-62050662D01*
X189825914Y-62003043D01*
X189873533Y-61907805D01*
X189873533Y-61622090D01*
X189825914Y-61526852D01*
X189778295Y-61479233D01*
X189683057Y-61431614D01*
X189540199Y-61431614D01*
X189444961Y-61479233D01*
X189397342Y-61526852D01*
X189349723Y-61622090D01*
X189349723Y-61907805D01*
X189397342Y-62003043D01*
X189444961Y-62050662D01*
X189540199Y-62098281D01*
X189683057Y-62098281D01*
X188921152Y-61431614D02*
X188921152Y-62098281D01*
X188921152Y-61526852D02*
X188873533Y-61479233D01*
X188778295Y-61431614D01*
X188635437Y-61431614D01*
X188540199Y-61479233D01*
X188492580Y-61574471D01*
X188492580Y-62098281D01*
X188159247Y-61431614D02*
X187778295Y-61431614D01*
X188016390Y-61098281D02*
X188016390Y-61955424D01*
X187968771Y-62050662D01*
X187873533Y-62098281D01*
X187778295Y-62098281D01*
X187444961Y-62098281D02*
X187444961Y-61431614D01*
X187444961Y-61622090D02*
X187397342Y-61526852D01*
X187349723Y-61479233D01*
X187254485Y-61431614D01*
X187159246Y-61431614D01*
X186683056Y-62098281D02*
X186778294Y-62050662D01*
X186825913Y-62003043D01*
X186873532Y-61907805D01*
X186873532Y-61622090D01*
X186825913Y-61526852D01*
X186778294Y-61479233D01*
X186683056Y-61431614D01*
X186540198Y-61431614D01*
X186444960Y-61479233D01*
X186397341Y-61526852D01*
X186349722Y-61622090D01*
X186349722Y-61907805D01*
X186397341Y-62003043D01*
X186444960Y-62050662D01*
X186540198Y-62098281D01*
X186683056Y-62098281D01*
X185778294Y-62098281D02*
X185873532Y-62050662D01*
X185921151Y-61955424D01*
X185921151Y-61098281D01*
X185397341Y-62003043D02*
X185349722Y-62050662D01*
X185397341Y-62098281D01*
X185444960Y-62050662D01*
X185397341Y-62003043D01*
X185397341Y-62098281D01*
X227492584Y-63650662D02*
X227349727Y-63698281D01*
X227111631Y-63698281D01*
X227016393Y-63650662D01*
X226968774Y-63603043D01*
X226921155Y-63507805D01*
X226921155Y-63412567D01*
X226968774Y-63317329D01*
X227016393Y-63269710D01*
X227111631Y-63222090D01*
X227302108Y-63174471D01*
X227397346Y-63126852D01*
X227444965Y-63079233D01*
X227492584Y-62983995D01*
X227492584Y-62888757D01*
X227444965Y-62793519D01*
X227397346Y-62745900D01*
X227302108Y-62698281D01*
X227064012Y-62698281D01*
X226921155Y-62745900D01*
X226492584Y-63174471D02*
X226159250Y-63174471D01*
X226016393Y-63698281D02*
X226492584Y-63698281D01*
X226492584Y-62698281D01*
X226016393Y-62698281D01*
X225730679Y-62698281D02*
X225159250Y-62698281D01*
X225444965Y-63698281D02*
X225444965Y-62698281D01*
X220254487Y-63603043D02*
X220206868Y-63650662D01*
X220254487Y-63698281D01*
X220302106Y-63650662D01*
X220254487Y-63603043D01*
X220254487Y-63698281D01*
X220254487Y-63079233D02*
X220206868Y-63126852D01*
X220254487Y-63174471D01*
X220302106Y-63126852D01*
X220254487Y-63079233D01*
X220254487Y-63174471D01*
X219064011Y-63650662D02*
X218921154Y-63698281D01*
X218683058Y-63698281D01*
X218587820Y-63650662D01*
X218540201Y-63603043D01*
X218492582Y-63507805D01*
X218492582Y-63412567D01*
X218540201Y-63317329D01*
X218587820Y-63269710D01*
X218683058Y-63222090D01*
X218873535Y-63174471D01*
X218968773Y-63126852D01*
X219016392Y-63079233D01*
X219064011Y-62983995D01*
X219064011Y-62888757D01*
X219016392Y-62793519D01*
X218968773Y-62745900D01*
X218873535Y-62698281D01*
X218635439Y-62698281D01*
X218492582Y-62745900D01*
X217683058Y-63650662D02*
X217778296Y-63698281D01*
X217968773Y-63698281D01*
X218064011Y-63650662D01*
X218111630Y-63555424D01*
X218111630Y-63174471D01*
X218064011Y-63079233D01*
X217968773Y-63031614D01*
X217778296Y-63031614D01*
X217683058Y-63079233D01*
X217635439Y-63174471D01*
X217635439Y-63269710D01*
X218111630Y-63364948D01*
X217349725Y-63031614D02*
X216968773Y-63031614D01*
X217206868Y-62698281D02*
X217206868Y-63555424D01*
X217159249Y-63650662D01*
X217064011Y-63698281D01*
X216968773Y-63698281D01*
X216016391Y-63031614D02*
X215635439Y-63031614D01*
X215873534Y-62698281D02*
X215873534Y-63555424D01*
X215825915Y-63650662D01*
X215730677Y-63698281D01*
X215635439Y-63698281D01*
X215302105Y-63698281D02*
X215302105Y-62698281D01*
X214873533Y-63698281D02*
X214873533Y-63174471D01*
X214921152Y-63079233D01*
X215016390Y-63031614D01*
X215159248Y-63031614D01*
X215254486Y-63079233D01*
X215302105Y-63126852D01*
X214016390Y-63650662D02*
X214111628Y-63698281D01*
X214302105Y-63698281D01*
X214397343Y-63650662D01*
X214444962Y-63555424D01*
X214444962Y-63174471D01*
X214397343Y-63079233D01*
X214302105Y-63031614D01*
X214111628Y-63031614D01*
X214016390Y-63079233D01*
X213968771Y-63174471D01*
X213968771Y-63269710D01*
X214444962Y-63364948D01*
X212873533Y-63031614D02*
X212635438Y-63698281D01*
X212397342Y-63031614D01*
X211587818Y-63698281D02*
X211587818Y-63174471D01*
X211635437Y-63079233D01*
X211730675Y-63031614D01*
X211921152Y-63031614D01*
X212016390Y-63079233D01*
X211587818Y-63650662D02*
X211683056Y-63698281D01*
X211921152Y-63698281D01*
X212016390Y-63650662D01*
X212064009Y-63555424D01*
X212064009Y-63460186D01*
X212016390Y-63364948D01*
X211921152Y-63317329D01*
X211683056Y-63317329D01*
X211587818Y-63269710D01*
X210968771Y-63698281D02*
X211064009Y-63650662D01*
X211111628Y-63555424D01*
X211111628Y-62698281D01*
X210159246Y-63031614D02*
X210159246Y-63698281D01*
X210587818Y-63031614D02*
X210587818Y-63555424D01*
X210540199Y-63650662D01*
X210444961Y-63698281D01*
X210302103Y-63698281D01*
X210206865Y-63650662D01*
X210159246Y-63603043D01*
X209302103Y-63650662D02*
X209397341Y-63698281D01*
X209587818Y-63698281D01*
X209683056Y-63650662D01*
X209730675Y-63555424D01*
X209730675Y-63174471D01*
X209683056Y-63079233D01*
X209587818Y-63031614D01*
X209397341Y-63031614D01*
X209302103Y-63079233D01*
X209254484Y-63174471D01*
X209254484Y-63269710D01*
X209730675Y-63364948D01*
X208873532Y-63650662D02*
X208778294Y-63698281D01*
X208587818Y-63698281D01*
X208492579Y-63650662D01*
X208444960Y-63555424D01*
X208444960Y-63507805D01*
X208492579Y-63412567D01*
X208587818Y-63364948D01*
X208730675Y-63364948D01*
X208825913Y-63317329D01*
X208873532Y-63222090D01*
X208873532Y-63174471D01*
X208825913Y-63079233D01*
X208730675Y-63031614D01*
X208587818Y-63031614D01*
X208492579Y-63079233D01*
X207397341Y-63031614D02*
X207016389Y-63031614D01*
X207254484Y-63698281D02*
X207254484Y-62841138D01*
X207206865Y-62745900D01*
X207111627Y-62698281D01*
X207016389Y-62698281D01*
X206540198Y-63698281D02*
X206635436Y-63650662D01*
X206683055Y-63603043D01*
X206730674Y-63507805D01*
X206730674Y-63222090D01*
X206683055Y-63126852D01*
X206635436Y-63079233D01*
X206540198Y-63031614D01*
X206397340Y-63031614D01*
X206302102Y-63079233D01*
X206254483Y-63126852D01*
X206206864Y-63222090D01*
X206206864Y-63507805D01*
X206254483Y-63603043D01*
X206302102Y-63650662D01*
X206397340Y-63698281D01*
X206540198Y-63698281D01*
X205778293Y-63698281D02*
X205778293Y-63031614D01*
X205778293Y-63222090D02*
X205730674Y-63126852D01*
X205683055Y-63079233D01*
X205587817Y-63031614D01*
X205492578Y-63031614D01*
X204397340Y-63698281D02*
X204397340Y-63031614D01*
X204397340Y-63126852D02*
X204349721Y-63079233D01*
X204254483Y-63031614D01*
X204111625Y-63031614D01*
X204016387Y-63079233D01*
X203968768Y-63174471D01*
X203968768Y-63698281D01*
X203968768Y-63174471D02*
X203921149Y-63079233D01*
X203825911Y-63031614D01*
X203683054Y-63031614D01*
X203587816Y-63079233D01*
X203540197Y-63174471D01*
X203540197Y-63698281D01*
X202921150Y-63698281D02*
X203016388Y-63650662D01*
X203064007Y-63603043D01*
X203111626Y-63507805D01*
X203111626Y-63222090D01*
X203064007Y-63126852D01*
X203016388Y-63079233D01*
X202921150Y-63031614D01*
X202778292Y-63031614D01*
X202683054Y-63079233D01*
X202635435Y-63126852D01*
X202587816Y-63222090D01*
X202587816Y-63507805D01*
X202635435Y-63603043D01*
X202683054Y-63650662D01*
X202778292Y-63698281D01*
X202921150Y-63698281D01*
X201730673Y-63698281D02*
X201730673Y-62698281D01*
X201730673Y-63650662D02*
X201825911Y-63698281D01*
X202016388Y-63698281D01*
X202111626Y-63650662D01*
X202159245Y-63603043D01*
X202206864Y-63507805D01*
X202206864Y-63222090D01*
X202159245Y-63126852D01*
X202111626Y-63079233D01*
X202016388Y-63031614D01*
X201825911Y-63031614D01*
X201730673Y-63079233D01*
X200873530Y-63650662D02*
X200968768Y-63698281D01*
X201159245Y-63698281D01*
X201254483Y-63650662D01*
X201302102Y-63555424D01*
X201302102Y-63174471D01*
X201254483Y-63079233D01*
X201159245Y-63031614D01*
X200968768Y-63031614D01*
X200873530Y-63079233D01*
X200825911Y-63174471D01*
X200825911Y-63269710D01*
X201302102Y-63364948D01*
X200444959Y-63650662D02*
X200349721Y-63698281D01*
X200159245Y-63698281D01*
X200064006Y-63650662D01*
X200016387Y-63555424D01*
X200016387Y-63507805D01*
X200064006Y-63412567D01*
X200159245Y-63364948D01*
X200302102Y-63364948D01*
X200397340Y-63317329D01*
X200444959Y-63222090D01*
X200444959Y-63174471D01*
X200397340Y-63079233D01*
X200302102Y-63031614D01*
X200159245Y-63031614D01*
X200064006Y-63079233D01*
X199587816Y-63603043D02*
X199540197Y-63650662D01*
X199587816Y-63698281D01*
X199635435Y-63650662D01*
X199587816Y-63603043D01*
X199587816Y-63698281D01*
X216933140Y-71842381D02*
X216933140Y-72651905D01*
X216885521Y-72747143D01*
X216837902Y-72794762D01*
X216742664Y-72842381D01*
X216552187Y-72842381D01*
X216456949Y-72794762D01*
X216409330Y-72747143D01*
X216361711Y-72651905D01*
X216361711Y-71842381D01*
X215933140Y-72794762D02*
X215837902Y-72842381D01*
X215647426Y-72842381D01*
X215552187Y-72794762D01*
X215504568Y-72699524D01*
X215504568Y-72651905D01*
X215552187Y-72556667D01*
X215647426Y-72509048D01*
X215790283Y-72509048D01*
X215885521Y-72461429D01*
X215933140Y-72366190D01*
X215933140Y-72318571D01*
X215885521Y-72223333D01*
X215790283Y-72175714D01*
X215647426Y-72175714D01*
X215552187Y-72223333D01*
X214695044Y-72794762D02*
X214790282Y-72842381D01*
X214980759Y-72842381D01*
X215075997Y-72794762D01*
X215123616Y-72699524D01*
X215123616Y-72318571D01*
X215075997Y-72223333D01*
X214980759Y-72175714D01*
X214790282Y-72175714D01*
X214695044Y-72223333D01*
X214647425Y-72318571D01*
X214647425Y-72413810D01*
X215123616Y-72509048D01*
X213456949Y-72461429D02*
X212695044Y-72461429D01*
X213075996Y-72842381D02*
X213075996Y-72080476D01*
X211742663Y-71842381D02*
X212218854Y-71842381D01*
X212266473Y-72318571D01*
X212218854Y-72270952D01*
X212123616Y-72223333D01*
X211885520Y-72223333D01*
X211790282Y-72270952D01*
X211742663Y-72318571D01*
X211695044Y-72413810D01*
X211695044Y-72651905D01*
X211742663Y-72747143D01*
X211790282Y-72794762D01*
X211885520Y-72842381D01*
X212123616Y-72842381D01*
X212218854Y-72794762D01*
X212266473Y-72747143D01*
X211409330Y-71842381D02*
X211075997Y-72842381D01*
X210742663Y-71842381D01*
X209647425Y-72842381D02*
X209647425Y-71842381D01*
X209409330Y-71842381D01*
X209266472Y-71890000D01*
X209171234Y-71985238D01*
X209123615Y-72080476D01*
X209075996Y-72270952D01*
X209075996Y-72413810D01*
X209123615Y-72604286D01*
X209171234Y-72699524D01*
X209266472Y-72794762D01*
X209409330Y-72842381D01*
X209647425Y-72842381D01*
X208075996Y-72747143D02*
X208123615Y-72794762D01*
X208266472Y-72842381D01*
X208361710Y-72842381D01*
X208504568Y-72794762D01*
X208599806Y-72699524D01*
X208647425Y-72604286D01*
X208695044Y-72413810D01*
X208695044Y-72270952D01*
X208647425Y-72080476D01*
X208599806Y-71985238D01*
X208504568Y-71890000D01*
X208361710Y-71842381D01*
X208266472Y-71842381D01*
X208123615Y-71890000D01*
X208075996Y-71937619D01*
X206456948Y-72842381D02*
X206456948Y-72318571D01*
X206504567Y-72223333D01*
X206599805Y-72175714D01*
X206790282Y-72175714D01*
X206885520Y-72223333D01*
X206456948Y-72794762D02*
X206552186Y-72842381D01*
X206790282Y-72842381D01*
X206885520Y-72794762D01*
X206933139Y-72699524D01*
X206933139Y-72604286D01*
X206885520Y-72509048D01*
X206790282Y-72461429D01*
X206552186Y-72461429D01*
X206456948Y-72413810D01*
X205552186Y-72842381D02*
X205552186Y-71842381D01*
X205552186Y-72794762D02*
X205647424Y-72842381D01*
X205837901Y-72842381D01*
X205933139Y-72794762D01*
X205980758Y-72747143D01*
X206028377Y-72651905D01*
X206028377Y-72366190D01*
X205980758Y-72270952D01*
X205933139Y-72223333D01*
X205837901Y-72175714D01*
X205647424Y-72175714D01*
X205552186Y-72223333D01*
X204647424Y-72842381D02*
X204647424Y-72318571D01*
X204695043Y-72223333D01*
X204790281Y-72175714D01*
X204980758Y-72175714D01*
X205075996Y-72223333D01*
X204647424Y-72794762D02*
X204742662Y-72842381D01*
X204980758Y-72842381D01*
X205075996Y-72794762D01*
X205123615Y-72699524D01*
X205123615Y-72604286D01*
X205075996Y-72509048D01*
X204980758Y-72461429D01*
X204742662Y-72461429D01*
X204647424Y-72413810D01*
X204171234Y-72175714D02*
X204171234Y-73175714D01*
X204171234Y-72223333D02*
X204075996Y-72175714D01*
X203885519Y-72175714D01*
X203790281Y-72223333D01*
X203742662Y-72270952D01*
X203695043Y-72366190D01*
X203695043Y-72651905D01*
X203742662Y-72747143D01*
X203790281Y-72794762D01*
X203885519Y-72842381D01*
X204075996Y-72842381D01*
X204171234Y-72794762D01*
X203409329Y-72175714D02*
X203028377Y-72175714D01*
X203266472Y-71842381D02*
X203266472Y-72699524D01*
X203218853Y-72794762D01*
X203123615Y-72842381D01*
X203028377Y-72842381D01*
X202314090Y-72794762D02*
X202409328Y-72842381D01*
X202599805Y-72842381D01*
X202695043Y-72794762D01*
X202742662Y-72699524D01*
X202742662Y-72318571D01*
X202695043Y-72223333D01*
X202599805Y-72175714D01*
X202409328Y-72175714D01*
X202314090Y-72223333D01*
X202266471Y-72318571D01*
X202266471Y-72413810D01*
X202742662Y-72509048D01*
X201837900Y-72842381D02*
X201837900Y-72175714D01*
X201837900Y-72366190D02*
X201790281Y-72270952D01*
X201742662Y-72223333D01*
X201647424Y-72175714D01*
X201552185Y-72175714D01*
X200314090Y-72842381D02*
X200409328Y-72794762D01*
X200456947Y-72747143D01*
X200504566Y-72651905D01*
X200504566Y-72366190D01*
X200456947Y-72270952D01*
X200409328Y-72223333D01*
X200314090Y-72175714D01*
X200171232Y-72175714D01*
X200075994Y-72223333D01*
X200028375Y-72270952D01*
X199980756Y-72366190D01*
X199980756Y-72651905D01*
X200028375Y-72747143D01*
X200075994Y-72794762D01*
X200171232Y-72842381D01*
X200314090Y-72842381D01*
X199552185Y-72175714D02*
X199552185Y-72842381D01*
X199552185Y-72270952D02*
X199504566Y-72223333D01*
X199409328Y-72175714D01*
X199266470Y-72175714D01*
X199171232Y-72223333D01*
X199123613Y-72318571D01*
X199123613Y-72842381D01*
X198504566Y-72842381D02*
X198599804Y-72794762D01*
X198647423Y-72699524D01*
X198647423Y-71842381D01*
X198218851Y-72175714D02*
X197980756Y-72842381D01*
X197742660Y-72175714D02*
X197980756Y-72842381D01*
X198075994Y-73080476D01*
X198123613Y-73128095D01*
X198218851Y-73175714D01*
D12*
X172466000Y-73787000D02*
X172466000Y-31242000D01*
X246126000Y-75057000D02*
X173990000Y-75057000D01*
X247523000Y-31242000D02*
X247523000Y-73660000D01*
X173990000Y-29972000D02*
X245999000Y-29972000D01*
X173990000Y-29972000D02*
G75*
G03X172466000Y-31242000I-127000J-1397000D01*
G01*
X247523000Y-31242000D02*
G75*
G03X245999000Y-29972000I-1397000J-127000D01*
G01*
X246126000Y-75057000D02*
G75*
G03X247523000Y-73660000I0J1397000D01*
G01*
X172466000Y-73787000D02*
G75*
G03X173990000Y-75057000I1397000J127000D01*
G01*
D13*
X218390857Y-37484857D02*
X217890857Y-37484857D01*
X217676571Y-38270571D02*
X218390857Y-38270571D01*
X218390857Y-36770571D01*
X217676571Y-36770571D01*
X217176571Y-38270571D02*
X216390857Y-37270571D01*
X217176571Y-37270571D02*
X216390857Y-38270571D01*
X215819428Y-37270571D02*
X215819428Y-38770571D01*
X215819428Y-37342000D02*
X215676571Y-37270571D01*
X215390857Y-37270571D01*
X215248000Y-37342000D01*
X215176571Y-37413429D01*
X215105142Y-37556286D01*
X215105142Y-37984857D01*
X215176571Y-38127714D01*
X215248000Y-38199143D01*
X215390857Y-38270571D01*
X215676571Y-38270571D01*
X215819428Y-38199143D01*
X214247999Y-38270571D02*
X214390857Y-38199143D01*
X214462285Y-38056286D01*
X214462285Y-36770571D01*
X213462285Y-38270571D02*
X213605143Y-38199143D01*
X213676571Y-38127714D01*
X213748000Y-37984857D01*
X213748000Y-37556286D01*
X213676571Y-37413429D01*
X213605143Y-37342000D01*
X213462285Y-37270571D01*
X213248000Y-37270571D01*
X213105143Y-37342000D01*
X213033714Y-37413429D01*
X212962285Y-37556286D01*
X212962285Y-37984857D01*
X213033714Y-38127714D01*
X213105143Y-38199143D01*
X213248000Y-38270571D01*
X213462285Y-38270571D01*
X212319428Y-38270571D02*
X212319428Y-37270571D01*
X212319428Y-37556286D02*
X212248000Y-37413429D01*
X212176571Y-37342000D01*
X212033714Y-37270571D01*
X211890857Y-37270571D01*
X210819429Y-38199143D02*
X210962286Y-38270571D01*
X211248000Y-38270571D01*
X211390857Y-38199143D01*
X211462286Y-38056286D01*
X211462286Y-37484857D01*
X211390857Y-37342000D01*
X211248000Y-37270571D01*
X210962286Y-37270571D01*
X210819429Y-37342000D01*
X210748000Y-37484857D01*
X210748000Y-37627714D01*
X211462286Y-37770571D01*
X210105143Y-37484857D02*
X209605143Y-37484857D01*
X209390857Y-38270571D02*
X210105143Y-38270571D01*
X210105143Y-36770571D01*
X209390857Y-36770571D01*
X208748000Y-38270571D02*
X208748000Y-37270571D01*
X208748000Y-37413429D02*
X208676572Y-37342000D01*
X208533714Y-37270571D01*
X208319429Y-37270571D01*
X208176572Y-37342000D01*
X208105143Y-37484857D01*
X208105143Y-38270571D01*
X208105143Y-37484857D02*
X208033714Y-37342000D01*
X207890857Y-37270571D01*
X207676572Y-37270571D01*
X207533714Y-37342000D01*
X207462286Y-37484857D01*
X207462286Y-38270571D01*
X206748000Y-38270571D02*
X206748000Y-36770571D01*
X206748000Y-37342000D02*
X206605143Y-37270571D01*
X206319429Y-37270571D01*
X206176572Y-37342000D01*
X206105143Y-37413429D01*
X206033714Y-37556286D01*
X206033714Y-37984857D01*
X206105143Y-38127714D01*
X206176572Y-38199143D01*
X206319429Y-38270571D01*
X206605143Y-38270571D01*
X206748000Y-38199143D01*
X204819429Y-38199143D02*
X204962286Y-38270571D01*
X205248000Y-38270571D01*
X205390857Y-38199143D01*
X205462286Y-38056286D01*
X205462286Y-37484857D01*
X205390857Y-37342000D01*
X205248000Y-37270571D01*
X204962286Y-37270571D01*
X204819429Y-37342000D01*
X204748000Y-37484857D01*
X204748000Y-37627714D01*
X205462286Y-37770571D01*
X203462286Y-38270571D02*
X203462286Y-36770571D01*
X203462286Y-38199143D02*
X203605143Y-38270571D01*
X203890857Y-38270571D01*
X204033715Y-38199143D01*
X204105143Y-38127714D01*
X204176572Y-37984857D01*
X204176572Y-37556286D01*
X204105143Y-37413429D01*
X204033715Y-37342000D01*
X203890857Y-37270571D01*
X203605143Y-37270571D01*
X203462286Y-37342000D01*
X202105143Y-38270571D02*
X202105143Y-36770571D01*
X202105143Y-38199143D02*
X202248000Y-38270571D01*
X202533714Y-38270571D01*
X202676572Y-38199143D01*
X202748000Y-38127714D01*
X202819429Y-37984857D01*
X202819429Y-37556286D01*
X202748000Y-37413429D01*
X202676572Y-37342000D01*
X202533714Y-37270571D01*
X202248000Y-37270571D01*
X202105143Y-37342000D01*
X200819429Y-38199143D02*
X200962286Y-38270571D01*
X201248000Y-38270571D01*
X201390857Y-38199143D01*
X201462286Y-38056286D01*
X201462286Y-37484857D01*
X201390857Y-37342000D01*
X201248000Y-37270571D01*
X200962286Y-37270571D01*
X200819429Y-37342000D01*
X200748000Y-37484857D01*
X200748000Y-37627714D01*
X201462286Y-37770571D01*
X199462286Y-38270571D02*
X199462286Y-36770571D01*
X199462286Y-38199143D02*
X199605143Y-38270571D01*
X199890857Y-38270571D01*
X200033715Y-38199143D01*
X200105143Y-38127714D01*
X200176572Y-37984857D01*
X200176572Y-37556286D01*
X200105143Y-37413429D01*
X200033715Y-37342000D01*
X199890857Y-37270571D01*
X199605143Y-37270571D01*
X199462286Y-37342000D01*
X198748000Y-38127714D02*
X198676572Y-38199143D01*
X198748000Y-38270571D01*
X198819429Y-38199143D01*
X198748000Y-38127714D01*
X198748000Y-38270571D01*
X197390857Y-38199143D02*
X197533714Y-38270571D01*
X197819428Y-38270571D01*
X197962286Y-38199143D01*
X198033714Y-38127714D01*
X198105143Y-37984857D01*
X198105143Y-37556286D01*
X198033714Y-37413429D01*
X197962286Y-37342000D01*
X197819428Y-37270571D01*
X197533714Y-37270571D01*
X197390857Y-37342000D01*
X196533714Y-38270571D02*
X196676572Y-38199143D01*
X196748000Y-38127714D01*
X196819429Y-37984857D01*
X196819429Y-37556286D01*
X196748000Y-37413429D01*
X196676572Y-37342000D01*
X196533714Y-37270571D01*
X196319429Y-37270571D01*
X196176572Y-37342000D01*
X196105143Y-37413429D01*
X196033714Y-37556286D01*
X196033714Y-37984857D01*
X196105143Y-38127714D01*
X196176572Y-38199143D01*
X196319429Y-38270571D01*
X196533714Y-38270571D01*
X195390857Y-38270571D02*
X195390857Y-37270571D01*
X195390857Y-37413429D02*
X195319429Y-37342000D01*
X195176571Y-37270571D01*
X194962286Y-37270571D01*
X194819429Y-37342000D01*
X194748000Y-37484857D01*
X194748000Y-38270571D01*
X194748000Y-37484857D02*
X194676571Y-37342000D01*
X194533714Y-37270571D01*
X194319429Y-37270571D01*
X194176571Y-37342000D01*
X194105143Y-37484857D01*
X194105143Y-38270571D01*
D14*
X240027460Y-44030900D02*
X240027460Y-41031160D01*
X240027460Y-41031160D02*
X232031540Y-41031160D01*
X232031540Y-41031160D02*
X232031540Y-44030900D01*
D15*
X243197818Y-53972460D02*
G75*
G03X243197818Y-53972460I-7069258J0D01*
G01*
D14*
X240047917Y-44039102D02*
G75*
G02X232031540Y-44030900I-4018417J-9991778D01*
G01*
D16*
G36*
X219288360Y-37401500D02*
X219295980Y-37729160D01*
X219311220Y-37962840D01*
X219346780Y-38143180D01*
X219402660Y-38308280D01*
X219445840Y-38402260D01*
X219745560Y-38902640D01*
X219829380Y-38991540D01*
X219829380Y-36240720D01*
X220157040Y-36240720D01*
X220350080Y-36243260D01*
X220444060Y-36268660D01*
X220479620Y-36334700D01*
X220484700Y-36423600D01*
X220466920Y-36586160D01*
X220398340Y-36664900D01*
X220248480Y-36682680D01*
X220131640Y-36677600D01*
X219964000Y-36657280D01*
X219882720Y-36603940D01*
X219854780Y-36487100D01*
X219849700Y-36449000D01*
X219829380Y-36240720D01*
X219829380Y-38991540D01*
X219837000Y-39001700D01*
X219837000Y-38432740D01*
X219837000Y-38209220D01*
X219837000Y-37983160D01*
X219837000Y-37853620D01*
X219837000Y-37627560D01*
X219837000Y-37401500D01*
X219837000Y-37271960D01*
X219837000Y-37048440D01*
X219837000Y-36822380D01*
X220159580Y-36822380D01*
X220484700Y-36822380D01*
X220484700Y-37048440D01*
X220484700Y-37271960D01*
X220159580Y-37271960D01*
X219837000Y-37271960D01*
X219837000Y-37401500D01*
X220159580Y-37401500D01*
X220484700Y-37401500D01*
X220484700Y-37627560D01*
X220484700Y-37853620D01*
X220159580Y-37853620D01*
X219837000Y-37853620D01*
X219837000Y-37983160D01*
X220159580Y-37983160D01*
X220484700Y-37983160D01*
X220484700Y-38209220D01*
X220484700Y-38432740D01*
X220159580Y-38432740D01*
X219837000Y-38432740D01*
X219837000Y-39001700D01*
X220118940Y-39301420D01*
X220548200Y-39588440D01*
X220548200Y-38790880D01*
X220548200Y-36177220D01*
X220548200Y-35849560D01*
X220548200Y-35521900D01*
X220756480Y-35542220D01*
X220883480Y-35562540D01*
X220949520Y-35618420D01*
X220977460Y-35742880D01*
X220987620Y-35869880D01*
X221005400Y-36177220D01*
X220776800Y-36177220D01*
X220548200Y-36177220D01*
X220548200Y-38790880D01*
X220553280Y-38610540D01*
X220586300Y-38526720D01*
X220672660Y-38498780D01*
X220774260Y-38498780D01*
X220913960Y-38503860D01*
X220977460Y-38544500D01*
X220997780Y-38658800D01*
X220997780Y-38790880D01*
X220995240Y-38968680D01*
X220962220Y-39049960D01*
X220875860Y-39077900D01*
X220774260Y-39080440D01*
X220634560Y-39072820D01*
X220568520Y-39032180D01*
X220550740Y-38917880D01*
X220548200Y-38790880D01*
X220548200Y-39588440D01*
X220578680Y-39611300D01*
X220980000Y-39789100D01*
X221127320Y-39832280D01*
X221127320Y-38790880D01*
X221127320Y-36177220D01*
X221127320Y-35854640D01*
X221127320Y-35529520D01*
X221353380Y-35529520D01*
X221579440Y-35529520D01*
X221579440Y-35854640D01*
X221579440Y-36177220D01*
X221353380Y-36177220D01*
X221127320Y-36177220D01*
X221127320Y-38790880D01*
X221134940Y-38610540D01*
X221167960Y-38526720D01*
X221254320Y-38498780D01*
X221353380Y-38498780D01*
X221493080Y-38503860D01*
X221559120Y-38544500D01*
X221579440Y-38658800D01*
X221579440Y-38790880D01*
X221574360Y-38968680D01*
X221541340Y-39049960D01*
X221454980Y-39077900D01*
X221353380Y-39080440D01*
X221216220Y-39072820D01*
X221150180Y-39032180D01*
X221129860Y-38917880D01*
X221127320Y-38790880D01*
X221127320Y-39832280D01*
X221216220Y-39862760D01*
X221427040Y-39903400D01*
X221673420Y-39913560D01*
X221724220Y-39911020D01*
X221724220Y-38790880D01*
X221729300Y-38610540D01*
X221742000Y-38569900D01*
X221742000Y-35963860D01*
X221742000Y-35854640D01*
X221747080Y-35674300D01*
X221782640Y-35585400D01*
X221871540Y-35552380D01*
X221950280Y-35542220D01*
X222158560Y-35521900D01*
X222158560Y-35854640D01*
X222158560Y-36184840D01*
X221950280Y-36161980D01*
X221820740Y-36144200D01*
X221762320Y-36090860D01*
X221742000Y-35963860D01*
X221742000Y-38569900D01*
X221757240Y-38526720D01*
X221843600Y-38498780D01*
X221940120Y-38498780D01*
X222077280Y-38503860D01*
X222140780Y-38547040D01*
X222158560Y-38661340D01*
X222158560Y-38790880D01*
X222156020Y-38968680D01*
X222123000Y-39049960D01*
X222036640Y-39077900D01*
X221945200Y-39080440D01*
X221813120Y-39072820D01*
X221749620Y-39027100D01*
X221729300Y-38912800D01*
X221724220Y-38790880D01*
X221724220Y-39911020D01*
X221955360Y-39905940D01*
X222275400Y-39883080D01*
X222336360Y-39870380D01*
X222336360Y-38920420D01*
X222338900Y-38887400D01*
X222338900Y-35610800D01*
X222382080Y-35572700D01*
X222511620Y-35544760D01*
X222526860Y-35544760D01*
X222735140Y-35521900D01*
X222752920Y-35895280D01*
X222773240Y-36268660D01*
X222806260Y-36266120D01*
X222806260Y-35951160D01*
X222806260Y-35692080D01*
X222836740Y-35659060D01*
X222869760Y-35692080D01*
X222836740Y-35722560D01*
X222806260Y-35692080D01*
X222806260Y-35951160D01*
X222836740Y-35918140D01*
X222869760Y-35951160D01*
X222836740Y-35984180D01*
X222806260Y-35951160D01*
X222806260Y-36266120D01*
X223111060Y-36248340D01*
X223309180Y-36240720D01*
X223410780Y-36258500D01*
X223446340Y-36316920D01*
X223451420Y-36423600D01*
X223441260Y-36548060D01*
X223385380Y-36609020D01*
X223248220Y-36634420D01*
X223177100Y-36639500D01*
X222966280Y-36649660D01*
X222854520Y-36634420D01*
X222811340Y-36581080D01*
X222806260Y-36527740D01*
X222778320Y-36446460D01*
X222758000Y-36441380D01*
X222608140Y-36436300D01*
X222557340Y-36355020D01*
X222567500Y-36304220D01*
X222564960Y-36202620D01*
X222476060Y-36177220D01*
X222394780Y-36151820D01*
X222361760Y-36057840D01*
X222354140Y-35918140D01*
X222351600Y-35740340D01*
X222341440Y-35626040D01*
X222338900Y-35610800D01*
X222338900Y-38887400D01*
X222343980Y-38790880D01*
X222364300Y-38610540D01*
X222407480Y-38524180D01*
X222493840Y-38498780D01*
X222554800Y-38498780D01*
X222669100Y-38506400D01*
X222722440Y-38557200D01*
X222740220Y-38684200D01*
X222740220Y-38790880D01*
X222737680Y-38968680D01*
X222704660Y-39049960D01*
X222618300Y-39077900D01*
X222531940Y-39080440D01*
X222404940Y-39072820D01*
X222346520Y-39032180D01*
X222336360Y-38920420D01*
X222336360Y-39870380D01*
X222516700Y-39842440D01*
X222737680Y-39771320D01*
X222798640Y-39740840D01*
X222798640Y-36822380D01*
X223123760Y-36822380D01*
X223316800Y-36824920D01*
X223413320Y-36850320D01*
X223446340Y-36916360D01*
X223451420Y-37007800D01*
X223433640Y-37139880D01*
X223359980Y-37208460D01*
X223207580Y-37236400D01*
X223037400Y-37233860D01*
X222895160Y-37211000D01*
X222834200Y-37132260D01*
X222818960Y-37025580D01*
X222798640Y-36822380D01*
X222798640Y-39740840D01*
X222836740Y-39725600D01*
X222836740Y-38209220D01*
X222836740Y-37627560D01*
X222846900Y-37510720D01*
X222895160Y-37449760D01*
X223019620Y-37424360D01*
X223144080Y-37414200D01*
X223451420Y-37393880D01*
X223451420Y-37627560D01*
X223451420Y-37861240D01*
X223144080Y-37840920D01*
X222958660Y-37823140D01*
X222869760Y-37787580D01*
X222841820Y-37708840D01*
X222836740Y-37627560D01*
X222836740Y-38209220D01*
X222846900Y-38089840D01*
X222895160Y-38031420D01*
X223019620Y-38003480D01*
X223144080Y-37993320D01*
X223451420Y-37975540D01*
X223451420Y-38209220D01*
X223451420Y-38440360D01*
X223144080Y-38422580D01*
X222958660Y-38404800D01*
X222869760Y-38366700D01*
X222841820Y-38287960D01*
X222836740Y-38209220D01*
X222836740Y-39725600D01*
X222948500Y-39674800D01*
X223174560Y-39552880D01*
X223362520Y-39433500D01*
X223476820Y-39342060D01*
X223547940Y-39276020D01*
X223613980Y-39260780D01*
X223707960Y-39301420D01*
X223707960Y-36609020D01*
X223751140Y-36258500D01*
X223895920Y-35925760D01*
X224142300Y-35633660D01*
X224279460Y-35524440D01*
X224429320Y-35438080D01*
X224591880Y-35389820D01*
X224812860Y-35372040D01*
X224972880Y-35369500D01*
X225226880Y-35374580D01*
X225399600Y-35397440D01*
X225534220Y-35455860D01*
X225673920Y-35557460D01*
X225686620Y-35567620D01*
X225905060Y-35788600D01*
X226082860Y-36062920D01*
X226197160Y-36342320D01*
X226225100Y-36527740D01*
X226197160Y-36789360D01*
X226128580Y-37048440D01*
X226029520Y-37251640D01*
X225983800Y-37310060D01*
X225917760Y-37391340D01*
X225943160Y-37457380D01*
X226037140Y-37531040D01*
X226138740Y-37622480D01*
X226306380Y-37787580D01*
X226514660Y-38000940D01*
X226743260Y-38244780D01*
X226771200Y-38275260D01*
X227347780Y-38902640D01*
X227192840Y-39027100D01*
X227037900Y-39154100D01*
X226613720Y-38714680D01*
X226387660Y-38473380D01*
X226159060Y-38229540D01*
X225968560Y-38016180D01*
X225925380Y-37965380D01*
X225661220Y-37658040D01*
X225430080Y-37757100D01*
X225054160Y-37846000D01*
X224670620Y-37810440D01*
X224497900Y-37754560D01*
X224160080Y-37551360D01*
X223916240Y-37277040D01*
X223763840Y-36957000D01*
X223707960Y-36609020D01*
X223707960Y-39301420D01*
X223710500Y-39303960D01*
X223875600Y-39415720D01*
X223890840Y-39430960D01*
X224363280Y-39692580D01*
X224886520Y-39857680D01*
X225430080Y-39923720D01*
X225960940Y-39885620D01*
X226354640Y-39776400D01*
X226867720Y-39517320D01*
X227299520Y-39169340D01*
X227634800Y-38745160D01*
X227871020Y-38260020D01*
X228000560Y-37731700D01*
X228013260Y-37167820D01*
X227970080Y-36873180D01*
X227858320Y-36454080D01*
X227685600Y-36095940D01*
X227431600Y-35755580D01*
X227314760Y-35626040D01*
X226908360Y-35283140D01*
X226438460Y-35031680D01*
X225930460Y-34884360D01*
X225404680Y-34833560D01*
X224883980Y-34886900D01*
X224386140Y-35041840D01*
X223936560Y-35300920D01*
X223834960Y-35382200D01*
X223647000Y-35539680D01*
X223436180Y-35382200D01*
X222971360Y-35097720D01*
X222453200Y-34917380D01*
X222232220Y-34874200D01*
X221670880Y-34838640D01*
X221129860Y-34927540D01*
X220624400Y-35123120D01*
X220172280Y-35422840D01*
X219788740Y-35821620D01*
X219491560Y-36301680D01*
X219489020Y-36304220D01*
X219397580Y-36507420D01*
X219339160Y-36677600D01*
X219306140Y-36857940D01*
X219293440Y-37084000D01*
X219288360Y-37401500D01*
X219288360Y-37401500D01*
X219288360Y-37401500D01*
G37*
X219288360Y-37401500D02*
X219295980Y-37729160D01*
X219311220Y-37962840D01*
X219346780Y-38143180D01*
X219402660Y-38308280D01*
X219445840Y-38402260D01*
X219745560Y-38902640D01*
X219829380Y-38991540D01*
X219829380Y-36240720D01*
X220157040Y-36240720D01*
X220350080Y-36243260D01*
X220444060Y-36268660D01*
X220479620Y-36334700D01*
X220484700Y-36423600D01*
X220466920Y-36586160D01*
X220398340Y-36664900D01*
X220248480Y-36682680D01*
X220131640Y-36677600D01*
X219964000Y-36657280D01*
X219882720Y-36603940D01*
X219854780Y-36487100D01*
X219849700Y-36449000D01*
X219829380Y-36240720D01*
X219829380Y-38991540D01*
X219837000Y-39001700D01*
X219837000Y-38432740D01*
X219837000Y-38209220D01*
X219837000Y-37983160D01*
X219837000Y-37853620D01*
X219837000Y-37627560D01*
X219837000Y-37401500D01*
X219837000Y-37271960D01*
X219837000Y-37048440D01*
X219837000Y-36822380D01*
X220159580Y-36822380D01*
X220484700Y-36822380D01*
X220484700Y-37048440D01*
X220484700Y-37271960D01*
X220159580Y-37271960D01*
X219837000Y-37271960D01*
X219837000Y-37401500D01*
X220159580Y-37401500D01*
X220484700Y-37401500D01*
X220484700Y-37627560D01*
X220484700Y-37853620D01*
X220159580Y-37853620D01*
X219837000Y-37853620D01*
X219837000Y-37983160D01*
X220159580Y-37983160D01*
X220484700Y-37983160D01*
X220484700Y-38209220D01*
X220484700Y-38432740D01*
X220159580Y-38432740D01*
X219837000Y-38432740D01*
X219837000Y-39001700D01*
X220118940Y-39301420D01*
X220548200Y-39588440D01*
X220548200Y-38790880D01*
X220548200Y-36177220D01*
X220548200Y-35849560D01*
X220548200Y-35521900D01*
X220756480Y-35542220D01*
X220883480Y-35562540D01*
X220949520Y-35618420D01*
X220977460Y-35742880D01*
X220987620Y-35869880D01*
X221005400Y-36177220D01*
X220776800Y-36177220D01*
X220548200Y-36177220D01*
X220548200Y-38790880D01*
X220553280Y-38610540D01*
X220586300Y-38526720D01*
X220672660Y-38498780D01*
X220774260Y-38498780D01*
X220913960Y-38503860D01*
X220977460Y-38544500D01*
X220997780Y-38658800D01*
X220997780Y-38790880D01*
X220995240Y-38968680D01*
X220962220Y-39049960D01*
X220875860Y-39077900D01*
X220774260Y-39080440D01*
X220634560Y-39072820D01*
X220568520Y-39032180D01*
X220550740Y-38917880D01*
X220548200Y-38790880D01*
X220548200Y-39588440D01*
X220578680Y-39611300D01*
X220980000Y-39789100D01*
X221127320Y-39832280D01*
X221127320Y-38790880D01*
X221127320Y-36177220D01*
X221127320Y-35854640D01*
X221127320Y-35529520D01*
X221353380Y-35529520D01*
X221579440Y-35529520D01*
X221579440Y-35854640D01*
X221579440Y-36177220D01*
X221353380Y-36177220D01*
X221127320Y-36177220D01*
X221127320Y-38790880D01*
X221134940Y-38610540D01*
X221167960Y-38526720D01*
X221254320Y-38498780D01*
X221353380Y-38498780D01*
X221493080Y-38503860D01*
X221559120Y-38544500D01*
X221579440Y-38658800D01*
X221579440Y-38790880D01*
X221574360Y-38968680D01*
X221541340Y-39049960D01*
X221454980Y-39077900D01*
X221353380Y-39080440D01*
X221216220Y-39072820D01*
X221150180Y-39032180D01*
X221129860Y-38917880D01*
X221127320Y-38790880D01*
X221127320Y-39832280D01*
X221216220Y-39862760D01*
X221427040Y-39903400D01*
X221673420Y-39913560D01*
X221724220Y-39911020D01*
X221724220Y-38790880D01*
X221729300Y-38610540D01*
X221742000Y-38569900D01*
X221742000Y-35963860D01*
X221742000Y-35854640D01*
X221747080Y-35674300D01*
X221782640Y-35585400D01*
X221871540Y-35552380D01*
X221950280Y-35542220D01*
X222158560Y-35521900D01*
X222158560Y-35854640D01*
X222158560Y-36184840D01*
X221950280Y-36161980D01*
X221820740Y-36144200D01*
X221762320Y-36090860D01*
X221742000Y-35963860D01*
X221742000Y-38569900D01*
X221757240Y-38526720D01*
X221843600Y-38498780D01*
X221940120Y-38498780D01*
X222077280Y-38503860D01*
X222140780Y-38547040D01*
X222158560Y-38661340D01*
X222158560Y-38790880D01*
X222156020Y-38968680D01*
X222123000Y-39049960D01*
X222036640Y-39077900D01*
X221945200Y-39080440D01*
X221813120Y-39072820D01*
X221749620Y-39027100D01*
X221729300Y-38912800D01*
X221724220Y-38790880D01*
X221724220Y-39911020D01*
X221955360Y-39905940D01*
X222275400Y-39883080D01*
X222336360Y-39870380D01*
X222336360Y-38920420D01*
X222338900Y-38887400D01*
X222338900Y-35610800D01*
X222382080Y-35572700D01*
X222511620Y-35544760D01*
X222526860Y-35544760D01*
X222735140Y-35521900D01*
X222752920Y-35895280D01*
X222773240Y-36268660D01*
X222806260Y-36266120D01*
X222806260Y-35951160D01*
X222806260Y-35692080D01*
X222836740Y-35659060D01*
X222869760Y-35692080D01*
X222836740Y-35722560D01*
X222806260Y-35692080D01*
X222806260Y-35951160D01*
X222836740Y-35918140D01*
X222869760Y-35951160D01*
X222836740Y-35984180D01*
X222806260Y-35951160D01*
X222806260Y-36266120D01*
X223111060Y-36248340D01*
X223309180Y-36240720D01*
X223410780Y-36258500D01*
X223446340Y-36316920D01*
X223451420Y-36423600D01*
X223441260Y-36548060D01*
X223385380Y-36609020D01*
X223248220Y-36634420D01*
X223177100Y-36639500D01*
X222966280Y-36649660D01*
X222854520Y-36634420D01*
X222811340Y-36581080D01*
X222806260Y-36527740D01*
X222778320Y-36446460D01*
X222758000Y-36441380D01*
X222608140Y-36436300D01*
X222557340Y-36355020D01*
X222567500Y-36304220D01*
X222564960Y-36202620D01*
X222476060Y-36177220D01*
X222394780Y-36151820D01*
X222361760Y-36057840D01*
X222354140Y-35918140D01*
X222351600Y-35740340D01*
X222341440Y-35626040D01*
X222338900Y-35610800D01*
X222338900Y-38887400D01*
X222343980Y-38790880D01*
X222364300Y-38610540D01*
X222407480Y-38524180D01*
X222493840Y-38498780D01*
X222554800Y-38498780D01*
X222669100Y-38506400D01*
X222722440Y-38557200D01*
X222740220Y-38684200D01*
X222740220Y-38790880D01*
X222737680Y-38968680D01*
X222704660Y-39049960D01*
X222618300Y-39077900D01*
X222531940Y-39080440D01*
X222404940Y-39072820D01*
X222346520Y-39032180D01*
X222336360Y-38920420D01*
X222336360Y-39870380D01*
X222516700Y-39842440D01*
X222737680Y-39771320D01*
X222798640Y-39740840D01*
X222798640Y-36822380D01*
X223123760Y-36822380D01*
X223316800Y-36824920D01*
X223413320Y-36850320D01*
X223446340Y-36916360D01*
X223451420Y-37007800D01*
X223433640Y-37139880D01*
X223359980Y-37208460D01*
X223207580Y-37236400D01*
X223037400Y-37233860D01*
X222895160Y-37211000D01*
X222834200Y-37132260D01*
X222818960Y-37025580D01*
X222798640Y-36822380D01*
X222798640Y-39740840D01*
X222836740Y-39725600D01*
X222836740Y-38209220D01*
X222836740Y-37627560D01*
X222846900Y-37510720D01*
X222895160Y-37449760D01*
X223019620Y-37424360D01*
X223144080Y-37414200D01*
X223451420Y-37393880D01*
X223451420Y-37627560D01*
X223451420Y-37861240D01*
X223144080Y-37840920D01*
X222958660Y-37823140D01*
X222869760Y-37787580D01*
X222841820Y-37708840D01*
X222836740Y-37627560D01*
X222836740Y-38209220D01*
X222846900Y-38089840D01*
X222895160Y-38031420D01*
X223019620Y-38003480D01*
X223144080Y-37993320D01*
X223451420Y-37975540D01*
X223451420Y-38209220D01*
X223451420Y-38440360D01*
X223144080Y-38422580D01*
X222958660Y-38404800D01*
X222869760Y-38366700D01*
X222841820Y-38287960D01*
X222836740Y-38209220D01*
X222836740Y-39725600D01*
X222948500Y-39674800D01*
X223174560Y-39552880D01*
X223362520Y-39433500D01*
X223476820Y-39342060D01*
X223547940Y-39276020D01*
X223613980Y-39260780D01*
X223707960Y-39301420D01*
X223707960Y-36609020D01*
X223751140Y-36258500D01*
X223895920Y-35925760D01*
X224142300Y-35633660D01*
X224279460Y-35524440D01*
X224429320Y-35438080D01*
X224591880Y-35389820D01*
X224812860Y-35372040D01*
X224972880Y-35369500D01*
X225226880Y-35374580D01*
X225399600Y-35397440D01*
X225534220Y-35455860D01*
X225673920Y-35557460D01*
X225686620Y-35567620D01*
X225905060Y-35788600D01*
X226082860Y-36062920D01*
X226197160Y-36342320D01*
X226225100Y-36527740D01*
X226197160Y-36789360D01*
X226128580Y-37048440D01*
X226029520Y-37251640D01*
X225983800Y-37310060D01*
X225917760Y-37391340D01*
X225943160Y-37457380D01*
X226037140Y-37531040D01*
X226138740Y-37622480D01*
X226306380Y-37787580D01*
X226514660Y-38000940D01*
X226743260Y-38244780D01*
X226771200Y-38275260D01*
X227347780Y-38902640D01*
X227192840Y-39027100D01*
X227037900Y-39154100D01*
X226613720Y-38714680D01*
X226387660Y-38473380D01*
X226159060Y-38229540D01*
X225968560Y-38016180D01*
X225925380Y-37965380D01*
X225661220Y-37658040D01*
X225430080Y-37757100D01*
X225054160Y-37846000D01*
X224670620Y-37810440D01*
X224497900Y-37754560D01*
X224160080Y-37551360D01*
X223916240Y-37277040D01*
X223763840Y-36957000D01*
X223707960Y-36609020D01*
X223707960Y-39301420D01*
X223710500Y-39303960D01*
X223875600Y-39415720D01*
X223890840Y-39430960D01*
X224363280Y-39692580D01*
X224886520Y-39857680D01*
X225430080Y-39923720D01*
X225960940Y-39885620D01*
X226354640Y-39776400D01*
X226867720Y-39517320D01*
X227299520Y-39169340D01*
X227634800Y-38745160D01*
X227871020Y-38260020D01*
X228000560Y-37731700D01*
X228013260Y-37167820D01*
X227970080Y-36873180D01*
X227858320Y-36454080D01*
X227685600Y-36095940D01*
X227431600Y-35755580D01*
X227314760Y-35626040D01*
X226908360Y-35283140D01*
X226438460Y-35031680D01*
X225930460Y-34884360D01*
X225404680Y-34833560D01*
X224883980Y-34886900D01*
X224386140Y-35041840D01*
X223936560Y-35300920D01*
X223834960Y-35382200D01*
X223647000Y-35539680D01*
X223436180Y-35382200D01*
X222971360Y-35097720D01*
X222453200Y-34917380D01*
X222232220Y-34874200D01*
X221670880Y-34838640D01*
X221129860Y-34927540D01*
X220624400Y-35123120D01*
X220172280Y-35422840D01*
X219788740Y-35821620D01*
X219491560Y-36301680D01*
X219489020Y-36304220D01*
X219397580Y-36507420D01*
X219339160Y-36677600D01*
X219306140Y-36857940D01*
X219293440Y-37084000D01*
X219288360Y-37401500D01*
X219288360Y-37401500D01*
G36*
X224109280Y-36461700D02*
X224127060Y-36756340D01*
X224233740Y-37033200D01*
X224416620Y-37261800D01*
X224660460Y-37414200D01*
X224934780Y-37465000D01*
X225102420Y-37437060D01*
X225295460Y-37365940D01*
X225315780Y-37353240D01*
X225579940Y-37155120D01*
X225745040Y-36903660D01*
X225811080Y-36619180D01*
X225778060Y-36329620D01*
X225640900Y-36062920D01*
X225404680Y-35844480D01*
X225376740Y-35826700D01*
X225102420Y-35732720D01*
X224807780Y-35742880D01*
X224525840Y-35844480D01*
X224294700Y-36027360D01*
X224195640Y-36169600D01*
X224109280Y-36461700D01*
X224109280Y-36461700D01*
X224109280Y-36461700D01*
G37*
X224109280Y-36461700D02*
X224127060Y-36756340D01*
X224233740Y-37033200D01*
X224416620Y-37261800D01*
X224660460Y-37414200D01*
X224934780Y-37465000D01*
X225102420Y-37437060D01*
X225295460Y-37365940D01*
X225315780Y-37353240D01*
X225579940Y-37155120D01*
X225745040Y-36903660D01*
X225811080Y-36619180D01*
X225778060Y-36329620D01*
X225640900Y-36062920D01*
X225404680Y-35844480D01*
X225376740Y-35826700D01*
X225102420Y-35732720D01*
X224807780Y-35742880D01*
X224525840Y-35844480D01*
X224294700Y-36027360D01*
X224195640Y-36169600D01*
X224109280Y-36461700D01*
X224109280Y-36461700D01*
D12*
X219556000Y-73136000D02*
X219556000Y-71136000D01*
X219456000Y-71136000D02*
X219456000Y-73136000D01*
X219356000Y-73136000D02*
X219356000Y-71136000D01*
X219656000Y-71136000D02*
X219456000Y-71036000D01*
X219456000Y-71036000D02*
X219256000Y-71136000D01*
D11*
X219556000Y-73536000D02*
G75*
G03X219556000Y-73536000I-100000J0D01*
G01*
D12*
X219656000Y-71136000D02*
X219556000Y-73136000D01*
X219556000Y-73136000D02*
X219356000Y-73136000D01*
X219356000Y-73136000D02*
X219256000Y-71136000D01*
X219256000Y-71136000D02*
X219656000Y-71136000D01*
D16*
G36*
X216956640Y-73995280D02*
X216959180Y-74046080D01*
X216964260Y-74094340D01*
X216976960Y-74140060D01*
X216997280Y-74178160D01*
X217007440Y-74193400D01*
X217020140Y-74206100D01*
X217032840Y-74218800D01*
X217050620Y-74228960D01*
X217068400Y-74239120D01*
X217111580Y-74256900D01*
X217345260Y-74256900D01*
X217345260Y-73939400D01*
X217350340Y-73931780D01*
X217357960Y-73919080D01*
X217368120Y-73901300D01*
X217383360Y-73878440D01*
X217390980Y-73865740D01*
X217401140Y-73850500D01*
X217406220Y-73840340D01*
X217413840Y-73827640D01*
X217421460Y-73817480D01*
X217429080Y-73807320D01*
X217436700Y-73794620D01*
X217444320Y-73781920D01*
X217454480Y-73764140D01*
X217467180Y-73743820D01*
X217479880Y-73720960D01*
X217497660Y-73693020D01*
X217517980Y-73660000D01*
X217540840Y-73621900D01*
X217568780Y-73576180D01*
X217599260Y-73522840D01*
X217632280Y-73466960D01*
X217662760Y-73418700D01*
X217688160Y-73372980D01*
X217713560Y-73332340D01*
X217736420Y-73294240D01*
X217756740Y-73258680D01*
X217774520Y-73230740D01*
X217787220Y-73210420D01*
X217797380Y-73195180D01*
X217802460Y-73187560D01*
X217807540Y-73177400D01*
X217817700Y-73159620D01*
X217830400Y-73139300D01*
X217845640Y-73111360D01*
X217863420Y-73083420D01*
X217871040Y-73068180D01*
X217893900Y-73032620D01*
X217916760Y-72994520D01*
X217942160Y-72953880D01*
X217962480Y-72915780D01*
X217982800Y-72882760D01*
X217982800Y-72880220D01*
X218003120Y-72849740D01*
X218020900Y-72816720D01*
X218038680Y-72786240D01*
X218056460Y-72760840D01*
X218066620Y-72740520D01*
X218079320Y-72720200D01*
X218097100Y-72692260D01*
X218114880Y-72661780D01*
X218132660Y-72628760D01*
X218152980Y-72595740D01*
X218152980Y-72595740D01*
X218173300Y-72560180D01*
X218196160Y-72522080D01*
X218221560Y-72478900D01*
X218246960Y-72438260D01*
X218267280Y-72402700D01*
X218287600Y-72369680D01*
X218310460Y-72329040D01*
X218335860Y-72285860D01*
X218361260Y-72242680D01*
X218386660Y-72202040D01*
X218396820Y-72184260D01*
X218419680Y-72146160D01*
X218445080Y-72108060D01*
X218470480Y-72064880D01*
X218493340Y-72024240D01*
X218516200Y-71986140D01*
X218523820Y-71970900D01*
X218541600Y-71942960D01*
X218559380Y-71915020D01*
X218572080Y-71892160D01*
X218584780Y-71871840D01*
X218592400Y-71859140D01*
X218592400Y-71856600D01*
X218600020Y-71846440D01*
X218610180Y-71828660D01*
X218622880Y-71808340D01*
X218638120Y-71782940D01*
X218648280Y-71765160D01*
X218663520Y-71737220D01*
X218678760Y-71714360D01*
X218691460Y-71694040D01*
X218699080Y-71678800D01*
X218704160Y-71671180D01*
X218709240Y-71661020D01*
X218719400Y-71645780D01*
X218732100Y-71622920D01*
X218747340Y-71597520D01*
X218765120Y-71569580D01*
X218772740Y-71556880D01*
X218793060Y-71521320D01*
X218818460Y-71480680D01*
X218843860Y-71437500D01*
X218869260Y-71394320D01*
X218889580Y-71356220D01*
X218892120Y-71356220D01*
X218909900Y-71325740D01*
X218927680Y-71295260D01*
X218942920Y-71269860D01*
X218955620Y-71247000D01*
X218965780Y-71231760D01*
X218968320Y-71226680D01*
X218978480Y-71211440D01*
X218991180Y-71188580D01*
X219008960Y-71158100D01*
X219029280Y-71122540D01*
X219054680Y-71084440D01*
X219080080Y-71038720D01*
X219108020Y-70993000D01*
X219138500Y-70944740D01*
X219168980Y-70893940D01*
X219196920Y-70845680D01*
X219227400Y-70797420D01*
X219255340Y-70749160D01*
X219283280Y-70705980D01*
X219306140Y-70665340D01*
X219329000Y-70629780D01*
X219346780Y-70599300D01*
X219349320Y-70596760D01*
X219369640Y-70563740D01*
X219389960Y-70533260D01*
X219407740Y-70502780D01*
X219425520Y-70477380D01*
X219443300Y-70454520D01*
X219453460Y-70436740D01*
X219461080Y-70424040D01*
X219466160Y-70418960D01*
X219468700Y-70424040D01*
X219476320Y-70436740D01*
X219489020Y-70454520D01*
X219506800Y-70482460D01*
X219527120Y-70515480D01*
X219549980Y-70556120D01*
X219577920Y-70601840D01*
X219608400Y-70650100D01*
X219641420Y-70705980D01*
X219674440Y-70764400D01*
X219712540Y-70827900D01*
X219750640Y-70891400D01*
X219791280Y-70959980D01*
X219811600Y-70995540D01*
X219819220Y-71005700D01*
X219831920Y-71026020D01*
X219844620Y-71048880D01*
X219862400Y-71079360D01*
X219880180Y-71109840D01*
X219900500Y-71142860D01*
X219984320Y-71285100D01*
X220065600Y-71422260D01*
X220144340Y-71551800D01*
X220218000Y-71678800D01*
X220291660Y-71803260D01*
X220362780Y-71925180D01*
X220383100Y-71960740D01*
X220403420Y-71991220D01*
X220421200Y-72021700D01*
X220436440Y-72049640D01*
X220451680Y-72072500D01*
X220461840Y-72090280D01*
X220464380Y-72095360D01*
X220472000Y-72108060D01*
X220484700Y-72130920D01*
X220499940Y-72153780D01*
X220517720Y-72184260D01*
X220538040Y-72217280D01*
X220550740Y-72240140D01*
X220571060Y-72273160D01*
X220588840Y-72303640D01*
X220606620Y-72334120D01*
X220621860Y-72359520D01*
X220634560Y-72377300D01*
X220639640Y-72387460D01*
X220649800Y-72405240D01*
X220665040Y-72428100D01*
X220680280Y-72456040D01*
X220695520Y-72481440D01*
X220698060Y-72486520D01*
X220720920Y-72527160D01*
X220746320Y-72567800D01*
X220769180Y-72608440D01*
X220792040Y-72649080D01*
X220814900Y-72682100D01*
X220830140Y-72710040D01*
X220837760Y-72720200D01*
X220850460Y-72743060D01*
X220863160Y-72765920D01*
X220873320Y-72783700D01*
X220875860Y-72786240D01*
X220880940Y-72798940D01*
X220893640Y-72819260D01*
X220911420Y-72847200D01*
X220931740Y-72882760D01*
X220957140Y-72925940D01*
X220987620Y-72976740D01*
X221020640Y-73035160D01*
X221058740Y-73096120D01*
X221099380Y-73167240D01*
X221145100Y-73240900D01*
X221145100Y-73243440D01*
X221167960Y-73284080D01*
X221193360Y-73324720D01*
X221218760Y-73367900D01*
X221241620Y-73408540D01*
X221264480Y-73446640D01*
X221277180Y-73466960D01*
X221297500Y-73499980D01*
X221315280Y-73533000D01*
X221335600Y-73566020D01*
X221350840Y-73593960D01*
X221366080Y-73616820D01*
X221368620Y-73619360D01*
X221381320Y-73644760D01*
X221396560Y-73667620D01*
X221406720Y-73687940D01*
X221416880Y-73703180D01*
X221437200Y-73738740D01*
X221457520Y-73771760D01*
X221477840Y-73807320D01*
X221495620Y-73840340D01*
X221513400Y-73868280D01*
X221528640Y-73893680D01*
X221541340Y-73914000D01*
X221548960Y-73929240D01*
X221554040Y-73934320D01*
X221554040Y-73934320D01*
X221559120Y-73941940D01*
X221559120Y-73944480D01*
X221554040Y-73944480D01*
X221538800Y-73944480D01*
X221515940Y-73944480D01*
X221482920Y-73944480D01*
X221439740Y-73944480D01*
X221388940Y-73947020D01*
X221333060Y-73947020D01*
X221267020Y-73947020D01*
X221193360Y-73947020D01*
X221112080Y-73947020D01*
X221025720Y-73947020D01*
X220931740Y-73947020D01*
X220832680Y-73947020D01*
X220726000Y-73947020D01*
X220614240Y-73947020D01*
X220499940Y-73947020D01*
X220378020Y-73947020D01*
X220253560Y-73947020D01*
X220124020Y-73947020D01*
X219991940Y-73947020D01*
X219854780Y-73947020D01*
X219715080Y-73947020D01*
X219570300Y-73947020D01*
X219450920Y-73947020D01*
X219278200Y-73947020D01*
X219113100Y-73947020D01*
X218960700Y-73947020D01*
X218815920Y-73947020D01*
X218678760Y-73947020D01*
X218551760Y-73947020D01*
X218432380Y-73947020D01*
X218320620Y-73947020D01*
X218216480Y-73947020D01*
X218119960Y-73947020D01*
X218031060Y-73947020D01*
X217949780Y-73947020D01*
X217873580Y-73947020D01*
X217805000Y-73947020D01*
X217744040Y-73947020D01*
X217685620Y-73947020D01*
X217634820Y-73947020D01*
X217589100Y-73947020D01*
X217548460Y-73947020D01*
X217512900Y-73947020D01*
X217479880Y-73947020D01*
X217451940Y-73944480D01*
X217429080Y-73944480D01*
X217408760Y-73944480D01*
X217393520Y-73944480D01*
X217378280Y-73944480D01*
X217368120Y-73944480D01*
X217360500Y-73941940D01*
X217352880Y-73941940D01*
X217350340Y-73941940D01*
X217347800Y-73941940D01*
X217345260Y-73939400D01*
X217345260Y-73939400D01*
X217345260Y-74256900D01*
X219445840Y-74259440D01*
X221777560Y-74261980D01*
X221820740Y-74244200D01*
X221863920Y-74223880D01*
X221896940Y-74195940D01*
X221922340Y-74165460D01*
X221940120Y-74127360D01*
X221950280Y-74081640D01*
X221955360Y-74035920D01*
X221955360Y-74020680D01*
X221952820Y-74010520D01*
X221952820Y-74000360D01*
X221950280Y-73987660D01*
X221945200Y-73974960D01*
X221937580Y-73959720D01*
X221924880Y-73939400D01*
X221912180Y-73914000D01*
X221891860Y-73883520D01*
X221881700Y-73865740D01*
X221866460Y-73837800D01*
X221848680Y-73809860D01*
X221835980Y-73784460D01*
X221823280Y-73766680D01*
X221815660Y-73753980D01*
X221808040Y-73736200D01*
X221792800Y-73713340D01*
X221777560Y-73685400D01*
X221759780Y-73654920D01*
X221739460Y-73619360D01*
X221719140Y-73586340D01*
X221698820Y-73553320D01*
X221696280Y-73548240D01*
X221683580Y-73527920D01*
X221670880Y-73505060D01*
X221653100Y-73477120D01*
X221635320Y-73446640D01*
X221617540Y-73416160D01*
X221597220Y-73383140D01*
X221574360Y-73342500D01*
X221551500Y-73301860D01*
X221528640Y-73263760D01*
X221513400Y-73238360D01*
X221495620Y-73207880D01*
X221475300Y-73172320D01*
X221454980Y-73139300D01*
X221437200Y-73108820D01*
X221424500Y-73085960D01*
X221409260Y-73060560D01*
X221391480Y-73030080D01*
X221371160Y-72997060D01*
X221350840Y-72964040D01*
X221333060Y-72931020D01*
X221312740Y-72900540D01*
X221294960Y-72867520D01*
X221274640Y-72834500D01*
X221259400Y-72809100D01*
X221246700Y-72786240D01*
X221246700Y-72786240D01*
X221239080Y-72773540D01*
X221231460Y-72760840D01*
X221221300Y-72743060D01*
X221211140Y-72725280D01*
X221195900Y-72704960D01*
X221180660Y-72677020D01*
X221162880Y-72646540D01*
X221142560Y-72613520D01*
X221119700Y-72570340D01*
X221091760Y-72524620D01*
X221058740Y-72471280D01*
X221023180Y-72410320D01*
X220982540Y-72339200D01*
X220980000Y-72336660D01*
X220957140Y-72298560D01*
X220934280Y-72263000D01*
X220913960Y-72224900D01*
X220893640Y-72194420D01*
X220878400Y-72166480D01*
X220865700Y-72143620D01*
X220860620Y-72136000D01*
X220850460Y-72120760D01*
X220835220Y-72097900D01*
X220817440Y-72067420D01*
X220797120Y-72031860D01*
X220776800Y-71996300D01*
X220753940Y-71955660D01*
X220733620Y-71922640D01*
X220690440Y-71851520D01*
X220652340Y-71785480D01*
X220614240Y-71721980D01*
X220578680Y-71661020D01*
X220545660Y-71607680D01*
X220515180Y-71556880D01*
X220489780Y-71513700D01*
X220469460Y-71480680D01*
X220459300Y-71460360D01*
X220449140Y-71445120D01*
X220436440Y-71419720D01*
X220418660Y-71391780D01*
X220395800Y-71356220D01*
X220372940Y-71315580D01*
X220350080Y-71274940D01*
X220324680Y-71231760D01*
X220304360Y-71201280D01*
X220278960Y-71155560D01*
X220251020Y-71109840D01*
X220225620Y-71066660D01*
X220200220Y-71023480D01*
X220177360Y-70985380D01*
X220157040Y-70952360D01*
X220141800Y-70924420D01*
X220134180Y-70911720D01*
X220116400Y-70881240D01*
X220096080Y-70845680D01*
X220075760Y-70810120D01*
X220055440Y-70779640D01*
X220045280Y-70761860D01*
X220030040Y-70736460D01*
X220012260Y-70703440D01*
X219991940Y-70670420D01*
X219971620Y-70634860D01*
X219956380Y-70609460D01*
X219918280Y-70548500D01*
X219887800Y-70492620D01*
X219857320Y-70441820D01*
X219831920Y-70398640D01*
X219811600Y-70363080D01*
X219793820Y-70335140D01*
X219783660Y-70314820D01*
X219776040Y-70304660D01*
X219768420Y-70291960D01*
X219755720Y-70271640D01*
X219743020Y-70248780D01*
X219727780Y-70223380D01*
X219725240Y-70218300D01*
X219702380Y-70177660D01*
X219682060Y-70147180D01*
X219666820Y-70121780D01*
X219651580Y-70101460D01*
X219638880Y-70086220D01*
X219626180Y-70073520D01*
X219610940Y-70063360D01*
X219595700Y-70053200D01*
X219577920Y-70045580D01*
X219555060Y-70037960D01*
X219552520Y-70035420D01*
X219529660Y-70027800D01*
X219514420Y-70022720D01*
X219499180Y-70020180D01*
X219483940Y-70020180D01*
X219461080Y-70020180D01*
X219420440Y-70025260D01*
X219382340Y-70035420D01*
X219344240Y-70053200D01*
X219311220Y-70078600D01*
X219280740Y-70111620D01*
X219250260Y-70152260D01*
X219219780Y-70203060D01*
X219204540Y-70233540D01*
X219196920Y-70246240D01*
X219186760Y-70266560D01*
X219171520Y-70294500D01*
X219153740Y-70324980D01*
X219130880Y-70360540D01*
X219108020Y-70401180D01*
X219085160Y-70441820D01*
X219059760Y-70482460D01*
X219034360Y-70525640D01*
X219011500Y-70566280D01*
X218988640Y-70601840D01*
X218981020Y-70614540D01*
X218968320Y-70637400D01*
X218953080Y-70662800D01*
X218935300Y-70693280D01*
X218914980Y-70726300D01*
X218894660Y-70759320D01*
X218894660Y-70761860D01*
X218866720Y-70805040D01*
X218836240Y-70858380D01*
X218800680Y-70916800D01*
X218762580Y-70982840D01*
X218716860Y-71056500D01*
X218668600Y-71137780D01*
X218617800Y-71221600D01*
X218564460Y-71313040D01*
X218506040Y-71409560D01*
X218445080Y-71511160D01*
X218381580Y-71615300D01*
X218315540Y-71724520D01*
X218246960Y-71838820D01*
X218178380Y-71953120D01*
X218107260Y-72069960D01*
X218036140Y-72186800D01*
X218018360Y-72217280D01*
X217985340Y-72270620D01*
X217952320Y-72326500D01*
X217914220Y-72387460D01*
X217878660Y-72448420D01*
X217840560Y-72511920D01*
X217802460Y-72572880D01*
X217764360Y-72633840D01*
X217731340Y-72692260D01*
X217698320Y-72745600D01*
X217667840Y-72793860D01*
X217642440Y-72837040D01*
X217629740Y-72862440D01*
X217586560Y-72933560D01*
X217548460Y-72997060D01*
X217512900Y-73052940D01*
X217479880Y-73106280D01*
X217451940Y-73157080D01*
X217421460Y-73202800D01*
X217393520Y-73248520D01*
X217365580Y-73294240D01*
X217337640Y-73342500D01*
X217309700Y-73388220D01*
X217258900Y-73469500D01*
X217213180Y-73545700D01*
X217172540Y-73611740D01*
X217134440Y-73675240D01*
X217103960Y-73728580D01*
X217073480Y-73779380D01*
X217048080Y-73825100D01*
X217025220Y-73865740D01*
X217004900Y-73903840D01*
X216987120Y-73934320D01*
X216956640Y-73995280D01*
X216956640Y-73995280D01*
X216956640Y-73995280D01*
G37*
X216956640Y-73995280D02*
X216959180Y-74046080D01*
X216964260Y-74094340D01*
X216976960Y-74140060D01*
X216997280Y-74178160D01*
X217007440Y-74193400D01*
X217020140Y-74206100D01*
X217032840Y-74218800D01*
X217050620Y-74228960D01*
X217068400Y-74239120D01*
X217111580Y-74256900D01*
X217345260Y-74256900D01*
X217345260Y-73939400D01*
X217350340Y-73931780D01*
X217357960Y-73919080D01*
X217368120Y-73901300D01*
X217383360Y-73878440D01*
X217390980Y-73865740D01*
X217401140Y-73850500D01*
X217406220Y-73840340D01*
X217413840Y-73827640D01*
X217421460Y-73817480D01*
X217429080Y-73807320D01*
X217436700Y-73794620D01*
X217444320Y-73781920D01*
X217454480Y-73764140D01*
X217467180Y-73743820D01*
X217479880Y-73720960D01*
X217497660Y-73693020D01*
X217517980Y-73660000D01*
X217540840Y-73621900D01*
X217568780Y-73576180D01*
X217599260Y-73522840D01*
X217632280Y-73466960D01*
X217662760Y-73418700D01*
X217688160Y-73372980D01*
X217713560Y-73332340D01*
X217736420Y-73294240D01*
X217756740Y-73258680D01*
X217774520Y-73230740D01*
X217787220Y-73210420D01*
X217797380Y-73195180D01*
X217802460Y-73187560D01*
X217807540Y-73177400D01*
X217817700Y-73159620D01*
X217830400Y-73139300D01*
X217845640Y-73111360D01*
X217863420Y-73083420D01*
X217871040Y-73068180D01*
X217893900Y-73032620D01*
X217916760Y-72994520D01*
X217942160Y-72953880D01*
X217962480Y-72915780D01*
X217982800Y-72882760D01*
X217982800Y-72880220D01*
X218003120Y-72849740D01*
X218020900Y-72816720D01*
X218038680Y-72786240D01*
X218056460Y-72760840D01*
X218066620Y-72740520D01*
X218079320Y-72720200D01*
X218097100Y-72692260D01*
X218114880Y-72661780D01*
X218132660Y-72628760D01*
X218152980Y-72595740D01*
X218152980Y-72595740D01*
X218173300Y-72560180D01*
X218196160Y-72522080D01*
X218221560Y-72478900D01*
X218246960Y-72438260D01*
X218267280Y-72402700D01*
X218287600Y-72369680D01*
X218310460Y-72329040D01*
X218335860Y-72285860D01*
X218361260Y-72242680D01*
X218386660Y-72202040D01*
X218396820Y-72184260D01*
X218419680Y-72146160D01*
X218445080Y-72108060D01*
X218470480Y-72064880D01*
X218493340Y-72024240D01*
X218516200Y-71986140D01*
X218523820Y-71970900D01*
X218541600Y-71942960D01*
X218559380Y-71915020D01*
X218572080Y-71892160D01*
X218584780Y-71871840D01*
X218592400Y-71859140D01*
X218592400Y-71856600D01*
X218600020Y-71846440D01*
X218610180Y-71828660D01*
X218622880Y-71808340D01*
X218638120Y-71782940D01*
X218648280Y-71765160D01*
X218663520Y-71737220D01*
X218678760Y-71714360D01*
X218691460Y-71694040D01*
X218699080Y-71678800D01*
X218704160Y-71671180D01*
X218709240Y-71661020D01*
X218719400Y-71645780D01*
X218732100Y-71622920D01*
X218747340Y-71597520D01*
X218765120Y-71569580D01*
X218772740Y-71556880D01*
X218793060Y-71521320D01*
X218818460Y-71480680D01*
X218843860Y-71437500D01*
X218869260Y-71394320D01*
X218889580Y-71356220D01*
X218892120Y-71356220D01*
X218909900Y-71325740D01*
X218927680Y-71295260D01*
X218942920Y-71269860D01*
X218955620Y-71247000D01*
X218965780Y-71231760D01*
X218968320Y-71226680D01*
X218978480Y-71211440D01*
X218991180Y-71188580D01*
X219008960Y-71158100D01*
X219029280Y-71122540D01*
X219054680Y-71084440D01*
X219080080Y-71038720D01*
X219108020Y-70993000D01*
X219138500Y-70944740D01*
X219168980Y-70893940D01*
X219196920Y-70845680D01*
X219227400Y-70797420D01*
X219255340Y-70749160D01*
X219283280Y-70705980D01*
X219306140Y-70665340D01*
X219329000Y-70629780D01*
X219346780Y-70599300D01*
X219349320Y-70596760D01*
X219369640Y-70563740D01*
X219389960Y-70533260D01*
X219407740Y-70502780D01*
X219425520Y-70477380D01*
X219443300Y-70454520D01*
X219453460Y-70436740D01*
X219461080Y-70424040D01*
X219466160Y-70418960D01*
X219468700Y-70424040D01*
X219476320Y-70436740D01*
X219489020Y-70454520D01*
X219506800Y-70482460D01*
X219527120Y-70515480D01*
X219549980Y-70556120D01*
X219577920Y-70601840D01*
X219608400Y-70650100D01*
X219641420Y-70705980D01*
X219674440Y-70764400D01*
X219712540Y-70827900D01*
X219750640Y-70891400D01*
X219791280Y-70959980D01*
X219811600Y-70995540D01*
X219819220Y-71005700D01*
X219831920Y-71026020D01*
X219844620Y-71048880D01*
X219862400Y-71079360D01*
X219880180Y-71109840D01*
X219900500Y-71142860D01*
X219984320Y-71285100D01*
X220065600Y-71422260D01*
X220144340Y-71551800D01*
X220218000Y-71678800D01*
X220291660Y-71803260D01*
X220362780Y-71925180D01*
X220383100Y-71960740D01*
X220403420Y-71991220D01*
X220421200Y-72021700D01*
X220436440Y-72049640D01*
X220451680Y-72072500D01*
X220461840Y-72090280D01*
X220464380Y-72095360D01*
X220472000Y-72108060D01*
X220484700Y-72130920D01*
X220499940Y-72153780D01*
X220517720Y-72184260D01*
X220538040Y-72217280D01*
X220550740Y-72240140D01*
X220571060Y-72273160D01*
X220588840Y-72303640D01*
X220606620Y-72334120D01*
X220621860Y-72359520D01*
X220634560Y-72377300D01*
X220639640Y-72387460D01*
X220649800Y-72405240D01*
X220665040Y-72428100D01*
X220680280Y-72456040D01*
X220695520Y-72481440D01*
X220698060Y-72486520D01*
X220720920Y-72527160D01*
X220746320Y-72567800D01*
X220769180Y-72608440D01*
X220792040Y-72649080D01*
X220814900Y-72682100D01*
X220830140Y-72710040D01*
X220837760Y-72720200D01*
X220850460Y-72743060D01*
X220863160Y-72765920D01*
X220873320Y-72783700D01*
X220875860Y-72786240D01*
X220880940Y-72798940D01*
X220893640Y-72819260D01*
X220911420Y-72847200D01*
X220931740Y-72882760D01*
X220957140Y-72925940D01*
X220987620Y-72976740D01*
X221020640Y-73035160D01*
X221058740Y-73096120D01*
X221099380Y-73167240D01*
X221145100Y-73240900D01*
X221145100Y-73243440D01*
X221167960Y-73284080D01*
X221193360Y-73324720D01*
X221218760Y-73367900D01*
X221241620Y-73408540D01*
X221264480Y-73446640D01*
X221277180Y-73466960D01*
X221297500Y-73499980D01*
X221315280Y-73533000D01*
X221335600Y-73566020D01*
X221350840Y-73593960D01*
X221366080Y-73616820D01*
X221368620Y-73619360D01*
X221381320Y-73644760D01*
X221396560Y-73667620D01*
X221406720Y-73687940D01*
X221416880Y-73703180D01*
X221437200Y-73738740D01*
X221457520Y-73771760D01*
X221477840Y-73807320D01*
X221495620Y-73840340D01*
X221513400Y-73868280D01*
X221528640Y-73893680D01*
X221541340Y-73914000D01*
X221548960Y-73929240D01*
X221554040Y-73934320D01*
X221554040Y-73934320D01*
X221559120Y-73941940D01*
X221559120Y-73944480D01*
X221554040Y-73944480D01*
X221538800Y-73944480D01*
X221515940Y-73944480D01*
X221482920Y-73944480D01*
X221439740Y-73944480D01*
X221388940Y-73947020D01*
X221333060Y-73947020D01*
X221267020Y-73947020D01*
X221193360Y-73947020D01*
X221112080Y-73947020D01*
X221025720Y-73947020D01*
X220931740Y-73947020D01*
X220832680Y-73947020D01*
X220726000Y-73947020D01*
X220614240Y-73947020D01*
X220499940Y-73947020D01*
X220378020Y-73947020D01*
X220253560Y-73947020D01*
X220124020Y-73947020D01*
X219991940Y-73947020D01*
X219854780Y-73947020D01*
X219715080Y-73947020D01*
X219570300Y-73947020D01*
X219450920Y-73947020D01*
X219278200Y-73947020D01*
X219113100Y-73947020D01*
X218960700Y-73947020D01*
X218815920Y-73947020D01*
X218678760Y-73947020D01*
X218551760Y-73947020D01*
X218432380Y-73947020D01*
X218320620Y-73947020D01*
X218216480Y-73947020D01*
X218119960Y-73947020D01*
X218031060Y-73947020D01*
X217949780Y-73947020D01*
X217873580Y-73947020D01*
X217805000Y-73947020D01*
X217744040Y-73947020D01*
X217685620Y-73947020D01*
X217634820Y-73947020D01*
X217589100Y-73947020D01*
X217548460Y-73947020D01*
X217512900Y-73947020D01*
X217479880Y-73947020D01*
X217451940Y-73944480D01*
X217429080Y-73944480D01*
X217408760Y-73944480D01*
X217393520Y-73944480D01*
X217378280Y-73944480D01*
X217368120Y-73944480D01*
X217360500Y-73941940D01*
X217352880Y-73941940D01*
X217350340Y-73941940D01*
X217347800Y-73941940D01*
X217345260Y-73939400D01*
X217345260Y-73939400D01*
X217345260Y-74256900D01*
X219445840Y-74259440D01*
X221777560Y-74261980D01*
X221820740Y-74244200D01*
X221863920Y-74223880D01*
X221896940Y-74195940D01*
X221922340Y-74165460D01*
X221940120Y-74127360D01*
X221950280Y-74081640D01*
X221955360Y-74035920D01*
X221955360Y-74020680D01*
X221952820Y-74010520D01*
X221952820Y-74000360D01*
X221950280Y-73987660D01*
X221945200Y-73974960D01*
X221937580Y-73959720D01*
X221924880Y-73939400D01*
X221912180Y-73914000D01*
X221891860Y-73883520D01*
X221881700Y-73865740D01*
X221866460Y-73837800D01*
X221848680Y-73809860D01*
X221835980Y-73784460D01*
X221823280Y-73766680D01*
X221815660Y-73753980D01*
X221808040Y-73736200D01*
X221792800Y-73713340D01*
X221777560Y-73685400D01*
X221759780Y-73654920D01*
X221739460Y-73619360D01*
X221719140Y-73586340D01*
X221698820Y-73553320D01*
X221696280Y-73548240D01*
X221683580Y-73527920D01*
X221670880Y-73505060D01*
X221653100Y-73477120D01*
X221635320Y-73446640D01*
X221617540Y-73416160D01*
X221597220Y-73383140D01*
X221574360Y-73342500D01*
X221551500Y-73301860D01*
X221528640Y-73263760D01*
X221513400Y-73238360D01*
X221495620Y-73207880D01*
X221475300Y-73172320D01*
X221454980Y-73139300D01*
X221437200Y-73108820D01*
X221424500Y-73085960D01*
X221409260Y-73060560D01*
X221391480Y-73030080D01*
X221371160Y-72997060D01*
X221350840Y-72964040D01*
X221333060Y-72931020D01*
X221312740Y-72900540D01*
X221294960Y-72867520D01*
X221274640Y-72834500D01*
X221259400Y-72809100D01*
X221246700Y-72786240D01*
X221246700Y-72786240D01*
X221239080Y-72773540D01*
X221231460Y-72760840D01*
X221221300Y-72743060D01*
X221211140Y-72725280D01*
X221195900Y-72704960D01*
X221180660Y-72677020D01*
X221162880Y-72646540D01*
X221142560Y-72613520D01*
X221119700Y-72570340D01*
X221091760Y-72524620D01*
X221058740Y-72471280D01*
X221023180Y-72410320D01*
X220982540Y-72339200D01*
X220980000Y-72336660D01*
X220957140Y-72298560D01*
X220934280Y-72263000D01*
X220913960Y-72224900D01*
X220893640Y-72194420D01*
X220878400Y-72166480D01*
X220865700Y-72143620D01*
X220860620Y-72136000D01*
X220850460Y-72120760D01*
X220835220Y-72097900D01*
X220817440Y-72067420D01*
X220797120Y-72031860D01*
X220776800Y-71996300D01*
X220753940Y-71955660D01*
X220733620Y-71922640D01*
X220690440Y-71851520D01*
X220652340Y-71785480D01*
X220614240Y-71721980D01*
X220578680Y-71661020D01*
X220545660Y-71607680D01*
X220515180Y-71556880D01*
X220489780Y-71513700D01*
X220469460Y-71480680D01*
X220459300Y-71460360D01*
X220449140Y-71445120D01*
X220436440Y-71419720D01*
X220418660Y-71391780D01*
X220395800Y-71356220D01*
X220372940Y-71315580D01*
X220350080Y-71274940D01*
X220324680Y-71231760D01*
X220304360Y-71201280D01*
X220278960Y-71155560D01*
X220251020Y-71109840D01*
X220225620Y-71066660D01*
X220200220Y-71023480D01*
X220177360Y-70985380D01*
X220157040Y-70952360D01*
X220141800Y-70924420D01*
X220134180Y-70911720D01*
X220116400Y-70881240D01*
X220096080Y-70845680D01*
X220075760Y-70810120D01*
X220055440Y-70779640D01*
X220045280Y-70761860D01*
X220030040Y-70736460D01*
X220012260Y-70703440D01*
X219991940Y-70670420D01*
X219971620Y-70634860D01*
X219956380Y-70609460D01*
X219918280Y-70548500D01*
X219887800Y-70492620D01*
X219857320Y-70441820D01*
X219831920Y-70398640D01*
X219811600Y-70363080D01*
X219793820Y-70335140D01*
X219783660Y-70314820D01*
X219776040Y-70304660D01*
X219768420Y-70291960D01*
X219755720Y-70271640D01*
X219743020Y-70248780D01*
X219727780Y-70223380D01*
X219725240Y-70218300D01*
X219702380Y-70177660D01*
X219682060Y-70147180D01*
X219666820Y-70121780D01*
X219651580Y-70101460D01*
X219638880Y-70086220D01*
X219626180Y-70073520D01*
X219610940Y-70063360D01*
X219595700Y-70053200D01*
X219577920Y-70045580D01*
X219555060Y-70037960D01*
X219552520Y-70035420D01*
X219529660Y-70027800D01*
X219514420Y-70022720D01*
X219499180Y-70020180D01*
X219483940Y-70020180D01*
X219461080Y-70020180D01*
X219420440Y-70025260D01*
X219382340Y-70035420D01*
X219344240Y-70053200D01*
X219311220Y-70078600D01*
X219280740Y-70111620D01*
X219250260Y-70152260D01*
X219219780Y-70203060D01*
X219204540Y-70233540D01*
X219196920Y-70246240D01*
X219186760Y-70266560D01*
X219171520Y-70294500D01*
X219153740Y-70324980D01*
X219130880Y-70360540D01*
X219108020Y-70401180D01*
X219085160Y-70441820D01*
X219059760Y-70482460D01*
X219034360Y-70525640D01*
X219011500Y-70566280D01*
X218988640Y-70601840D01*
X218981020Y-70614540D01*
X218968320Y-70637400D01*
X218953080Y-70662800D01*
X218935300Y-70693280D01*
X218914980Y-70726300D01*
X218894660Y-70759320D01*
X218894660Y-70761860D01*
X218866720Y-70805040D01*
X218836240Y-70858380D01*
X218800680Y-70916800D01*
X218762580Y-70982840D01*
X218716860Y-71056500D01*
X218668600Y-71137780D01*
X218617800Y-71221600D01*
X218564460Y-71313040D01*
X218506040Y-71409560D01*
X218445080Y-71511160D01*
X218381580Y-71615300D01*
X218315540Y-71724520D01*
X218246960Y-71838820D01*
X218178380Y-71953120D01*
X218107260Y-72069960D01*
X218036140Y-72186800D01*
X218018360Y-72217280D01*
X217985340Y-72270620D01*
X217952320Y-72326500D01*
X217914220Y-72387460D01*
X217878660Y-72448420D01*
X217840560Y-72511920D01*
X217802460Y-72572880D01*
X217764360Y-72633840D01*
X217731340Y-72692260D01*
X217698320Y-72745600D01*
X217667840Y-72793860D01*
X217642440Y-72837040D01*
X217629740Y-72862440D01*
X217586560Y-72933560D01*
X217548460Y-72997060D01*
X217512900Y-73052940D01*
X217479880Y-73106280D01*
X217451940Y-73157080D01*
X217421460Y-73202800D01*
X217393520Y-73248520D01*
X217365580Y-73294240D01*
X217337640Y-73342500D01*
X217309700Y-73388220D01*
X217258900Y-73469500D01*
X217213180Y-73545700D01*
X217172540Y-73611740D01*
X217134440Y-73675240D01*
X217103960Y-73728580D01*
X217073480Y-73779380D01*
X217048080Y-73825100D01*
X217025220Y-73865740D01*
X217004900Y-73903840D01*
X216987120Y-73934320D01*
X216956640Y-73995280D01*
X216956640Y-73995280D01*
D17*
X236838671Y-68679786D02*
X236858024Y-68737843D01*
X236877376Y-68757195D01*
X236916081Y-68776547D01*
X236974138Y-68776547D01*
X237012843Y-68757195D01*
X237032195Y-68737843D01*
X237051548Y-68699138D01*
X237051548Y-68544319D01*
X236645148Y-68544319D01*
X236645148Y-68679786D01*
X236664500Y-68718490D01*
X236683852Y-68737843D01*
X236722557Y-68757195D01*
X236761262Y-68757195D01*
X236799967Y-68737843D01*
X236819319Y-68718490D01*
X236838671Y-68679786D01*
X236838671Y-68544319D01*
X236645148Y-68892662D02*
X236645148Y-69124890D01*
X237051548Y-69008776D02*
X236645148Y-69008776D01*
X237051548Y-69473233D02*
X237051548Y-69241005D01*
X237051548Y-69357119D02*
X236645148Y-69357119D01*
X236703205Y-69318414D01*
X236741910Y-69279709D01*
X236761262Y-69241005D01*
X235742843Y-67692813D02*
X235762195Y-67673461D01*
X235781548Y-67615404D01*
X235781548Y-67576699D01*
X235762195Y-67518642D01*
X235723490Y-67479937D01*
X235684786Y-67460585D01*
X235607376Y-67441233D01*
X235549319Y-67441233D01*
X235471910Y-67460585D01*
X235433205Y-67479937D01*
X235394500Y-67518642D01*
X235375148Y-67576699D01*
X235375148Y-67615404D01*
X235394500Y-67673461D01*
X235413852Y-67692813D01*
X235781548Y-68099213D02*
X235588024Y-67963747D01*
X235781548Y-67866985D02*
X235375148Y-67866985D01*
X235375148Y-68021804D01*
X235394500Y-68060509D01*
X235413852Y-68079861D01*
X235452557Y-68099213D01*
X235510614Y-68099213D01*
X235549319Y-68079861D01*
X235568671Y-68060509D01*
X235588024Y-68021804D01*
X235588024Y-67866985D01*
X235626729Y-68273385D02*
X235626729Y-68583023D01*
X235413852Y-68757195D02*
X235394500Y-68776547D01*
X235375148Y-68815252D01*
X235375148Y-68912014D01*
X235394500Y-68950718D01*
X235413852Y-68970071D01*
X235452557Y-68989423D01*
X235491262Y-68989423D01*
X235549319Y-68970071D01*
X235781548Y-68737842D01*
X235781548Y-68989423D01*
X235375148Y-69241004D02*
X235375148Y-69279709D01*
X235394500Y-69318414D01*
X235413852Y-69337766D01*
X235452557Y-69357119D01*
X235529967Y-69376471D01*
X235626729Y-69376471D01*
X235704138Y-69357119D01*
X235742843Y-69337766D01*
X235762195Y-69318414D01*
X235781548Y-69279709D01*
X235781548Y-69241004D01*
X235762195Y-69202300D01*
X235742843Y-69182947D01*
X235704138Y-69163595D01*
X235626729Y-69144243D01*
X235529967Y-69144243D01*
X235452557Y-69163595D01*
X235413852Y-69182947D01*
X235394500Y-69202300D01*
X235375148Y-69241004D01*
X235375148Y-69511938D02*
X235375148Y-69763519D01*
X235529967Y-69628052D01*
X235529967Y-69686110D01*
X235549319Y-69724814D01*
X235568671Y-69744167D01*
X235607376Y-69763519D01*
X235704138Y-69763519D01*
X235742843Y-69744167D01*
X235762195Y-69724814D01*
X235781548Y-69686110D01*
X235781548Y-69569995D01*
X235762195Y-69531291D01*
X235742843Y-69511938D01*
X235413852Y-69918339D02*
X235394500Y-69937691D01*
X235375148Y-69976396D01*
X235375148Y-70073158D01*
X235394500Y-70111862D01*
X235413852Y-70131215D01*
X235452557Y-70150567D01*
X235491262Y-70150567D01*
X235549319Y-70131215D01*
X235781548Y-69898986D01*
X235781548Y-70150567D01*
X236153234Y-44626591D02*
X236153234Y-45594210D01*
X236637044Y-45110400D02*
X235669425Y-45110400D01*
X236153234Y-59963111D02*
X236153234Y-60930730D01*
D18*
G36*
X212385429Y-48371568D02*
X213699261Y-48596368D01*
X215174285Y-49171377D01*
X216322927Y-49902104D01*
X217243647Y-50665628D01*
X217435749Y-50909711D01*
X217886086Y-52485890D01*
X217909281Y-52530650D01*
X217948063Y-52562859D01*
X218001525Y-52577824D01*
X218430847Y-52600420D01*
X218594915Y-52622135D01*
X219179306Y-52734518D01*
X219851590Y-52936203D01*
X220440537Y-53193558D01*
X220975074Y-53527643D01*
X221482591Y-53932657D01*
X222039736Y-54422945D01*
X222578263Y-55214603D01*
X222868058Y-55749610D01*
X223152358Y-56520212D01*
X223263505Y-56942572D01*
X223353533Y-57505245D01*
X223385514Y-57778317D01*
X223390481Y-58053988D01*
X223390849Y-58061630D01*
X223400429Y-58183773D01*
X223400327Y-58186408D01*
X198998609Y-58204027D01*
X198994077Y-58136043D01*
X199038541Y-57543192D01*
X199196193Y-56754933D01*
X199337621Y-56233883D01*
X199514530Y-55813724D01*
X200004641Y-54931523D01*
X200316477Y-54441496D01*
X200813796Y-53904589D01*
X201585176Y-53257225D01*
X203371631Y-52407968D01*
X203865088Y-52222311D01*
X205038277Y-52086943D01*
X205086215Y-52071339D01*
X205135816Y-52020476D01*
X205589241Y-51169044D01*
X205989199Y-50603673D01*
X206271683Y-50330845D01*
X206744457Y-49983144D01*
X207398505Y-49509523D01*
X208696299Y-48865637D01*
X209737951Y-48529218D01*
X211124268Y-48349047D01*
X212385429Y-48371568D01*
X212385429Y-48371568D01*
G37*
X212385429Y-48371568D02*
X213699261Y-48596368D01*
X215174285Y-49171377D01*
X216322927Y-49902104D01*
X217243647Y-50665628D01*
X217435749Y-50909711D01*
X217886086Y-52485890D01*
X217909281Y-52530650D01*
X217948063Y-52562859D01*
X218001525Y-52577824D01*
X218430847Y-52600420D01*
X218594915Y-52622135D01*
X219179306Y-52734518D01*
X219851590Y-52936203D01*
X220440537Y-53193558D01*
X220975074Y-53527643D01*
X221482591Y-53932657D01*
X222039736Y-54422945D01*
X222578263Y-55214603D01*
X222868058Y-55749610D01*
X223152358Y-56520212D01*
X223263505Y-56942572D01*
X223353533Y-57505245D01*
X223385514Y-57778317D01*
X223390481Y-58053988D01*
X223390849Y-58061630D01*
X223400429Y-58183773D01*
X223400327Y-58186408D01*
X198998609Y-58204027D01*
X198994077Y-58136043D01*
X199038541Y-57543192D01*
X199196193Y-56754933D01*
X199337621Y-56233883D01*
X199514530Y-55813724D01*
X200004641Y-54931523D01*
X200316477Y-54441496D01*
X200813796Y-53904589D01*
X201585176Y-53257225D01*
X203371631Y-52407968D01*
X203865088Y-52222311D01*
X205038277Y-52086943D01*
X205086215Y-52071339D01*
X205135816Y-52020476D01*
X205589241Y-51169044D01*
X205989199Y-50603673D01*
X206271683Y-50330845D01*
X206744457Y-49983144D01*
X207398505Y-49509523D01*
X208696299Y-48865637D01*
X209737951Y-48529218D01*
X211124268Y-48349047D01*
X212385429Y-48371568D01*
%LPC*%
D19*
X218983785Y-54548114D02*
X219983785Y-54548114D01*
X220180214Y-56119543D02*
X219805214Y-53119543D01*
X218376643Y-53119543D01*
X216073071Y-54119543D02*
X216323071Y-56119543D01*
X217358785Y-54119543D02*
X217555213Y-55690971D01*
X217448071Y-55976686D01*
X217180214Y-56119543D01*
X216751642Y-56119543D01*
X216448071Y-55976686D01*
X216287357Y-55833829D01*
X214644499Y-54119543D02*
X214894499Y-56119543D01*
X214680213Y-54405257D02*
X214519499Y-54262400D01*
X214215928Y-54119543D01*
X213787356Y-54119543D01*
X213519499Y-54262400D01*
X213412356Y-54548114D01*
X213608785Y-56119543D01*
X212233785Y-53119543D02*
X210519499Y-53119543D01*
X211751642Y-56119543D02*
X211376642Y-53119543D01*
X209894499Y-56119543D02*
X209644499Y-54119543D01*
X209519499Y-53119543D02*
X209680213Y-53262400D01*
X209555213Y-53405257D01*
X209394499Y-53262400D01*
X209519499Y-53119543D01*
X209555213Y-53405257D01*
X208465928Y-56119543D02*
X208215928Y-54119543D01*
X208251642Y-54405257D02*
X208090928Y-54262400D01*
X207787357Y-54119543D01*
X207358785Y-54119543D01*
X207090928Y-54262400D01*
X206983785Y-54548114D01*
X207180214Y-56119543D01*
X206983785Y-54548114D02*
X206805214Y-54262400D01*
X206501643Y-54119543D01*
X206073071Y-54119543D01*
X205805214Y-54262400D01*
X205698071Y-54548114D01*
X205894500Y-56119543D01*
X203305214Y-55976686D02*
X203608785Y-56119543D01*
X204180214Y-56119543D01*
X204448071Y-55976686D01*
X204555213Y-55690971D01*
X204412356Y-54548114D01*
X204233785Y-54262400D01*
X203930214Y-54119543D01*
X203358785Y-54119543D01*
X203090928Y-54262400D01*
X202983785Y-54548114D01*
X203019500Y-54833829D01*
X204483785Y-55119543D01*
D20*
X205973680Y-59903360D03*
D21*
X208513680Y-59903360D03*
X211053680Y-59903360D03*
X213593680Y-59903360D03*
X216133680Y-59903360D03*
X218673680Y-59903360D03*
X213593680Y-44663360D03*
X216133680Y-44663360D03*
X205973680Y-44663360D03*
X208513680Y-44663360D03*
X218673680Y-44663360D03*
X211053680Y-44663360D03*
D22*
X187960000Y-64516000D03*
D23*
X190460000Y-64516000D03*
D24*
X174752000Y-38608000D03*
D25*
X174752000Y-41148000D03*
X174752000Y-43688000D03*
X174752000Y-46228000D03*
X174752000Y-48768000D03*
X174752000Y-51308000D03*
X174752000Y-53848000D03*
D26*
X192532000Y-32004000D03*
X182372000Y-32004000D03*
X182372000Y-35306000D03*
X192532000Y-35306000D03*
X203454000Y-64516000D03*
X193294000Y-64516000D03*
X220726000Y-64516000D03*
X230886000Y-64516000D03*
X240284000Y-56134000D03*
X240284000Y-45974000D03*
X180594000Y-53873400D03*
X180594000Y-43713400D03*
X183794400Y-53873400D03*
X183794400Y-43713400D03*
D27*
X236029500Y-43030140D03*
X236029500Y-63030100D03*
D28*
X175564800Y-60198000D03*
D29*
X181660800Y-60198000D03*
D28*
X177850800Y-65278000D03*
D26*
X177535840Y-53987700D03*
D30*
X177535840Y-43827700D03*
D31*
X178816000Y-38354000D03*
D21*
X178816000Y-40894000D03*
D22*
X221488000Y-31242000D03*
D23*
X223988000Y-31242000D03*
D26*
X182372000Y-38356540D03*
D30*
X192532000Y-38356540D03*
D26*
X192532000Y-41145460D03*
D30*
X182372000Y-41145460D03*
D32*
X196342000Y-41402000D03*
X198882000Y-41402000D03*
X201422000Y-41402000D03*
X203962000Y-41402000D03*
X206502000Y-41402000D03*
X209042000Y-41402000D03*
X211582000Y-41402000D03*
X214122000Y-41402000D03*
X216662000Y-41402000D03*
X219202000Y-41402000D03*
X221742000Y-41402000D03*
X224282000Y-41402000D03*
X226822000Y-41402000D03*
X229362000Y-41402000D03*
X229362000Y-33782000D03*
X226822000Y-33782000D03*
X224282000Y-33782000D03*
X221742000Y-33782000D03*
X219202000Y-33782000D03*
X216662000Y-33782000D03*
X214122000Y-33782000D03*
X211582000Y-33782000D03*
X209042000Y-33782000D03*
X206502000Y-33782000D03*
X203962000Y-33782000D03*
X201422000Y-33782000D03*
X198882000Y-33782000D03*
X196342000Y-33782000D03*
D33*
X202692000Y-72898000D03*
X201422000Y-71628000D03*
X203962000Y-71628000D03*
D34*
X225552000Y-69088000D03*
X227843080Y-69088000D03*
X223260920Y-69088000D03*
D26*
X203454000Y-67564000D03*
X193294000Y-67564000D03*
X243586000Y-45974000D03*
X243586000Y-56134000D03*
D35*
X216662000Y-68580000D03*
D36*
X209042000Y-68580000D03*
D37*
X231648000Y-73660000D03*
X231648000Y-68580000D03*
X239268000Y-73660000D03*
X239268000Y-68580000D03*
X181356000Y-73406000D03*
X181356000Y-68326000D03*
X188976000Y-73406000D03*
X188976000Y-68326000D03*
D22*
X207772000Y-31496000D03*
D23*
X210272000Y-31496000D03*
D21*
X233680000Y-37846000D03*
X233680000Y-40386000D03*
D38*
X243840000Y-33782000D03*
X176022000Y-71120000D03*
X176022000Y-33782000D03*
X243840000Y-71120000D03*
M02*
